<?xml version="1.0" encoding="UTF-8"?>
<!DOCTYPE svg PUBLIC "-//W3C//DTD SVG 1.1//EN" "http://www.w3.org/Graphics/SVG/1.1/DTD/svg11.dtd">
<svg xmlns="http://www.w3.org/2000/svg" version="1.1" width="512px" height="512px" style="shape-rendering:geometricPrecision; text-rendering:geometricPrecision; image-rendering:optimizeQuality; fill-rule:evenodd; clip-rule:evenodd" xmlns:xlink="http://www.w3.org/1999/xlink">
<g><path style="opacity:0.999" fill="#fefefe" d="M 63.5,-0.5 C 191.5,-0.5 319.5,-0.5 447.5,-0.5C 481.833,7.83333 503.167,29.1667 511.5,63.5C 511.5,191.5 511.5,319.5 511.5,447.5C 503.167,481.833 481.833,503.167 447.5,511.5C 319.5,511.5 191.5,511.5 63.5,511.5C 29.1667,503.167 7.83333,481.833 -0.5,447.5C -0.5,319.5 -0.5,191.5 -0.5,63.5C 7.83333,29.1667 29.1667,7.83333 63.5,-0.5 Z"/></g>
<g><path style="opacity:1" fill="#12aadd" d="M 197.5,162.5 C 269.167,162.333 340.834,162.5 412.5,163C 379.5,224.667 346.5,286.333 313.5,348C 241.833,348.667 170.167,348.667 98.5,348C 131.64,286.219 164.64,224.386 197.5,162.5 Z"/></g>
</svg>
