<?xml version="1.0" encoding="UTF-8"?>
<!DOCTYPE svg PUBLIC "-//W3C//DTD SVG 1.1//EN" "http://www.w3.org/Graphics/SVG/1.1/DTD/svg11.dtd">
<svg xmlns="http://www.w3.org/2000/svg" version="1.1" width="400px" height="400px" style="shape-rendering:geometricPrecision; text-rendering:geometricPrecision; image-rendering:optimizeQuality; fill-rule:evenodd; clip-rule:evenodd" xmlns:xlink="http://www.w3.org/1999/xlink">
<g><path style="opacity:1" fill="#202020" d="M -0.5,-0.5 C 132.833,-0.5 266.167,-0.5 399.5,-0.5C 399.5,132.833 399.5,266.167 399.5,399.5C 266.167,399.5 132.833,399.5 -0.5,399.5C -0.5,266.167 -0.5,132.833 -0.5,-0.5 Z"/></g>
<g><path style="opacity:1" fill="#f6f6f6" d="M 104.5,261.5 C 97.5999,260.801 90.5999,260.134 83.5,259.5C 83.3229,253.639 80.3229,250.472 74.5,250C 72.8787,247.834 72.0454,245.334 72,242.5C 70,241.167 68,239.833 66,238.5C 65.3333,226.833 65.3333,215.167 66,203.5C 68.4622,202.35 70.7955,201.017 73,199.5C 73.3333,196.167 73.6667,192.833 74,189.5C 76.7384,187.354 79.7384,185.687 83,184.5C 83.3333,172.833 83.6667,161.167 84,149.5C 85.514,147.234 87.6807,146.068 90.5,146C 91.9437,144.237 92.9437,142.237 93.5,140C 97.0458,138.826 100.713,138.16 104.5,138C 105,137.5 105.5,137 106,136.5C 106.333,130.5 106.667,124.5 107,118.5C 107.5,118 108,117.5 108.5,117C 111.78,116.944 114.78,116.111 117.5,114.5C 118.132,111.97 119.132,109.637 120.5,107.5C 127.476,106.669 134.476,106.169 141.5,106C 143.675,103.475 145.342,100.642 146.5,97.5C 181.829,96.3334 217.162,96.1668 252.5,97C 253.687,100.262 255.354,103.262 257.5,106C 264.5,106.333 271.5,106.667 278.5,107C 279.687,110.262 281.354,113.262 283.5,116C 286.659,116.011 289.493,116.845 292,118.5C 292.333,124.167 292.667,129.833 293,135.5C 293.692,136.025 294.192,136.692 294.5,137.5C 297.785,138.324 301.118,138.824 304.5,139C 306.017,141.204 307.35,143.538 308.5,146C 311.007,146.093 313.174,146.926 315,148.5C 316.294,160.738 316.961,173.071 317,185.5C 320.169,185.863 322.836,187.197 325,189.5C 325.16,193.287 325.826,196.954 327,200.5C 329.462,201.65 331.796,202.983 334,204.5C 334.667,215.833 334.667,227.167 334,238.5C 331.667,239.833 329.333,241.167 327,242.5C 326.667,244.833 326.333,247.167 326,249.5C 323.825,250.255 321.659,251.088 319.5,252C 318.02,254.559 316.687,257.226 315.5,260C 308.5,260.333 301.5,260.667 294.5,261C 293,261.833 291.833,263 291,264.5C 292.165,270.606 289.832,274.273 284,275.5C 282.018,275.01 280.351,274.01 279,272.5C 278.828,268.129 278.328,263.796 277.5,259.5C 275.931,260.714 275.098,262.381 275,264.5C 272,264.833 270.333,266.5 270,269.5C 266.5,270.333 264.333,272.5 263.5,276C 260.447,276.179 257.447,276.679 254.5,277.5C 253.926,279.059 253.26,280.559 252.5,282C 249.447,282.179 246.447,282.679 243.5,283.5C 242.754,284.736 242.421,286.07 242.5,287.5C 239.1,287.731 237.1,289.564 236.5,293C 234.285,293.17 232.285,293.837 230.5,295C 210.5,295.667 190.5,295.667 170.5,295C 168.103,293.282 165.436,292.115 162.5,291.5C 161.412,289.035 159.579,287.369 157,286.5C 156.691,285.234 156.191,284.067 155.5,283C 152.447,282.821 149.447,282.321 146.5,281.5C 145.926,279.941 145.26,278.441 144.5,277C 141.5,276.667 138.5,276.333 135.5,276C 135.529,271.891 133.529,270.057 129.5,270.5C 129.698,267.23 128.198,265.23 125,264.5C 124.51,263.207 124.343,261.873 124.5,260.5C 123.5,260.5 122.5,260.5 121.5,260.5C 121.665,264.182 121.499,267.848 121,271.5C 117.004,276.665 113.004,276.665 109,271.5C 108.667,268.833 108.333,266.167 108,263.5C 107.184,262.177 106.017,261.511 104.5,261.5 Z"/></g>
<g><path style="opacity:1" fill="#212121" d="M 146.5,111.5 C 181.835,111.333 217.168,111.5 252.5,112C 253.906,114.445 255.24,116.945 256.5,119.5C 262.472,120.33 268.472,120.83 274.5,121C 275.333,121.833 276.167,122.667 277,123.5C 277.232,127.555 277.732,131.555 278.5,135.5C 280.567,136.134 282.4,137.134 284,138.5C 284.16,142.287 284.826,145.954 286,149.5C 286.5,150 287,150.5 287.5,151C 291.373,151.27 295.206,151.77 299,152.5C 300.221,153.272 301.221,154.272 302,155.5C 302.667,161.833 302.667,168.167 302,174.5C 299.668,177.791 296.835,178.291 293.5,176C 291.442,167.12 286.608,165.287 279,170.5C 278.503,173.146 278.336,175.813 278.5,178.5C 277.5,178.5 276.5,178.5 275.5,178.5C 276.152,174.44 274.485,172.44 270.5,172.5C 270.663,169.06 268.996,167.06 265.5,166.5C 264.756,165.009 264.09,163.509 263.5,162C 260.518,161.502 257.518,161.335 254.5,161.5C 254.579,160.07 254.246,158.736 253.5,157.5C 250.553,156.679 247.553,156.179 244.5,156C 243.107,154.829 242.273,153.329 242,151.5C 238.886,150.449 237.053,148.283 236.5,145C 233.957,144.86 231.623,144.194 229.5,143C 209.833,142.333 190.167,142.333 170.5,143C 168.51,144.751 166.177,145.751 163.5,146C 162.403,148.765 160.403,150.431 157.5,151C 156.91,152.509 156.244,154.009 155.5,155.5C 152.557,156.244 149.557,156.744 146.5,157C 145.833,158.333 145.167,159.667 144.5,161C 141.447,161.179 138.447,161.679 135.5,162.5C 134.902,163.795 134.402,165.128 134,166.5C 130.8,168.553 127.8,170.886 125,173.5C 124.902,175.619 124.069,177.286 122.5,178.5C 122.34,168.591 117.674,165.424 108.5,169C 107.313,171.774 105.98,174.441 104.5,177C 101.975,177.896 99.8083,177.396 98,175.5C 97.3333,168.5 97.3333,161.5 98,154.5C 98.8333,153.667 99.6667,152.833 100.5,152C 104.167,151.667 107.833,151.333 111.5,151C 112.308,150.692 112.975,150.192 113.5,149.5C 114.262,145.889 114.762,142.222 115,138.5C 116.763,137.056 118.763,136.056 121,135.5C 121.333,131.833 121.667,128.167 122,124.5C 122.465,123.069 123.299,121.903 124.5,121C 130.5,120.667 136.5,120.333 142.5,120C 144.056,117.294 145.389,114.46 146.5,111.5 Z"/></g>
<g><path style="opacity:1" fill="#222222" d="M 178.5,156.5 C 183.762,156.195 188.928,156.529 194,157.5C 194.819,168.077 194.652,178.577 193.5,189C 188.333,189.167 183.167,189.333 178,189.5C 172.42,189.473 167.086,188.806 162,187.5C 161.333,183.167 161.333,178.833 162,174.5C 163.763,173.056 165.763,172.056 168,171.5C 168.333,168.5 168.667,165.5 169,162.5C 171.74,161.718 174.574,161.218 177.5,161C 178.38,159.644 178.714,158.144 178.5,156.5 Z"/></g>
<g><path style="opacity:1" fill="#212121" d="M 205.5,156.5 C 210.511,156.334 215.511,156.501 220.5,157C 221.167,158.333 221.833,159.667 222.5,161C 225.623,161.206 228.623,161.873 231.5,163C 232.451,166.057 232.784,169.223 232.5,172.5C 234.39,172.297 235.89,172.963 237,174.5C 237.802,179.419 237.635,184.252 236.5,189C 226.5,189.667 216.5,189.667 206.5,189C 205.513,178.248 205.18,167.415 205.5,156.5 Z"/></g>
<g><path style="opacity:1" fill="#222222" d="M 141.5,172.5 C 144.448,172.223 147.281,172.556 150,173.5C 150.499,178.823 150.666,184.156 150.5,189.5C 143.578,189.812 136.744,189.479 130,188.5C 129.333,187.5 129.333,186.5 130,185.5C 133.376,184.956 135.21,182.956 135.5,179.5C 139.559,178.949 141.559,176.616 141.5,172.5 Z"/></g>
<g><path style="opacity:1" fill="#202020" d="M 287.5,182.5 C 290.695,181.961 293.195,182.961 295,185.5C 295.667,206.5 295.667,227.5 295,248.5C 292.582,250.68 289.916,251.013 287,249.5C 286.178,227.094 286.345,204.761 287.5,182.5 Z"/></g>
<g><path style="opacity:1" fill="#232323" d="M 250.5,172.5 C 252.857,172.337 255.19,172.503 257.5,173C 258.893,174.171 259.727,175.671 260,177.5C 263.465,177.967 265.132,179.967 265,183.5C 266.667,184.167 268.333,184.833 270,185.5C 270.667,186.5 270.667,187.5 270,188.5C 263.248,189.645 256.414,189.811 249.5,189C 247.92,183.303 248.253,177.803 250.5,172.5 Z"/></g>
<g><path style="opacity:1" fill="#262626" d="M 106.5,182.5 C 109.079,182.083 111.246,182.75 113,184.5C 113.667,205.5 113.667,226.5 113,247.5C 111.334,250.379 108.834,251.212 105.5,250C 104.874,249.25 104.374,248.416 104,247.5C 103.333,227.167 103.333,206.833 104,186.5C 104.662,185.016 105.496,183.683 106.5,182.5 Z"/></g>
<g><path style="opacity:1" fill="#202020" d="M 121.5,201.5 C 129.174,201.334 136.841,201.5 144.5,202C 145.82,213.438 145.82,224.938 144.5,236.5C 136.89,237.467 129.223,237.8 121.5,237.5C 121.5,225.5 121.5,213.5 121.5,201.5 Z"/></g>
<g><path style="opacity:1" fill="#222222" d="M 277.5,201.5 C 277.5,213.167 277.5,224.833 277.5,236.5C 270.167,236.5 262.833,236.5 255.5,236.5C 254.778,236.082 254.278,235.416 254,234.5C 253.19,223.786 253.357,213.12 254.5,202.5C 262.138,201.503 269.804,201.169 277.5,201.5 Z"/></g>
<g><path style="opacity:1" fill="#515151" d="M 277.5,201.5 C 278.495,213.322 278.828,225.322 278.5,237.5C 270.648,237.825 262.982,237.492 255.5,236.5C 262.833,236.5 270.167,236.5 277.5,236.5C 277.5,224.833 277.5,213.167 277.5,201.5 Z"/></g>
<g><path style="opacity:1" fill="#202020" d="M 206.5,201.5 C 218.5,201.5 230.5,201.5 242.5,201.5C 242.832,213.186 242.499,224.852 241.5,236.5C 229.637,237.825 217.803,237.825 206,236.5C 205.189,224.757 205.356,213.091 206.5,201.5 Z"/></g>
<g><path style="opacity:1" fill="#222222" d="M 157.5,201.5 C 169.505,201.333 181.505,201.5 193.5,202C 194.82,213.438 194.82,224.938 193.5,236.5C 181.5,237.833 169.5,237.833 157.5,236.5C 156.19,224.772 156.19,213.105 157.5,201.5 Z"/></g>
<g><path style="opacity:1" fill="#242424" d="M 88.5,206.5 C 93.1939,206.71 95.1939,209.21 94.5,214C 94.3609,221.959 91.1943,223.459 85,218.5C 83.5927,213.556 84.7593,209.556 88.5,206.5 Z"/></g>
<g><path style="opacity:1" fill="#262626" d="M 307.5,206.5 C 310.325,206.081 312.491,207.081 314,209.5C 314.667,212.833 314.667,216.167 314,219.5C 311,222.167 308,222.167 305,219.5C 303.743,214.617 304.576,210.284 307.5,206.5 Z"/></g>
<g><path style="opacity:1" fill="#252525" d="M 130.5,248.5 C 137.167,248.5 143.833,248.5 150.5,248.5C 150.807,254.093 150.473,259.593 149.5,265C 146.833,265.667 144.167,265.667 141.5,265C 140.667,261.5 138.5,259.333 135,258.5C 134.51,257.207 134.343,255.873 134.5,254.5C 129.74,254.799 128.406,252.799 130.5,248.5 Z"/></g>
<g><path style="opacity:1" fill="#242424" d="M 162.5,248.5 C 173.258,247.872 183.758,248.538 194,250.5C 194.667,260.833 194.667,271.167 194,281.5C 189.252,282.635 184.419,282.802 179.5,282C 178.74,280.559 178.074,279.059 177.5,277.5C 174.572,276.516 171.572,276.183 168.5,276.5C 168.82,273.102 168.487,269.768 167.5,266.5C 165.386,265.966 163.552,264.966 162,263.5C 161.274,258.448 161.441,253.448 162.5,248.5 Z"/></g>
<g><path style="opacity:1" fill="#232323" d="M 206.5,248.5 C 216.749,248.181 226.916,248.514 237,249.5C 237.667,254.5 237.667,259.5 237,264.5C 235.667,265.167 234.333,265.833 233,266.5C 232.788,269.758 232.288,272.924 231.5,276C 228.5,276.333 225.5,276.667 222.5,277C 221.74,278.441 221.074,279.941 220.5,281.5C 215.615,282.802 210.782,282.802 206,281.5C 205.191,270.424 205.358,259.424 206.5,248.5 Z"/></g>
<g><path style="opacity:1" fill="#252525" d="M 249.5,248.5 C 255.842,248.334 262.175,248.5 268.5,249C 269.357,249.689 270.023,250.522 270.5,251.5C 269.262,253.637 267.429,254.971 265,255.5C 264.667,258.5 263,260.167 260,260.5C 259.598,261.872 259.098,263.205 258.5,264.5C 255.554,265.655 252.554,265.821 249.5,265C 248.189,259.5 248.189,254 249.5,248.5 Z"/></g>
<g><path style="opacity:1" fill="#545454" d="M 83.5,259.5 C 90.5999,260.134 97.5999,260.801 104.5,261.5C 97.0869,262.128 90.0869,261.461 83.5,259.5 Z"/></g>
</svg>
