<?xml version="1.0" encoding="UTF-8"?>
<!DOCTYPE svg PUBLIC "-//W3C//DTD SVG 1.1//EN" "http://www.w3.org/Graphics/SVG/1.1/DTD/svg11.dtd">
<svg xmlns="http://www.w3.org/2000/svg" version="1.1" width="400px" height="400px" style="shape-rendering:geometricPrecision; text-rendering:geometricPrecision; image-rendering:optimizeQuality; fill-rule:evenodd; clip-rule:evenodd" xmlns:xlink="http://www.w3.org/1999/xlink">
<g><path style="opacity:1" fill="#c92100" d="M -0.5,-0.5 C 132.833,-0.5 266.167,-0.5 399.5,-0.5C 399.5,132.833 399.5,266.167 399.5,399.5C 266.167,399.5 132.833,399.5 -0.5,399.5C -0.5,266.167 -0.5,132.833 -0.5,-0.5 Z"/></g>
<g><path style="opacity:1" fill="#c12608" d="M 117.5,166.5 C 113.702,167.483 109.702,167.817 105.5,167.5C 103.777,165.747 102.277,163.747 101,161.5C 100.5,147.504 100.333,133.504 100.5,119.5C 96.1667,119.5 91.8333,119.5 87.5,119.5C 86.5044,132.656 86.1711,145.99 86.5,159.5C 85.5714,160.936 84.4048,162.269 83,163.5C 82.4054,164.899 82.5721,166.232 83.5,167.5C 83.1924,168.308 82.6924,168.975 82,169.5C 80.4597,166.058 80.4597,162.725 82,159.5C 82.6871,150.827 83.0204,142.16 83,133.5C 82.2496,134.126 81.4162,134.626 80.5,135C 74.8431,135.499 69.1764,135.666 63.5,135.5C 63.5,134.167 63.5,132.833 63.5,131.5C 70.2257,131.205 76.8923,131.538 83.5,132.5C 84.4519,130.955 84.7852,129.288 84.5,127.5C 83.5,127.5 82.5,127.5 81.5,127.5C 81.8064,124.615 81.4731,121.948 80.5,119.5C 80.1667,119.5 79.8333,119.5 79.5,119.5C 66.5,119.5 53.5,119.5 40.5,119.5C 40.1667,119.5 39.8333,119.5 39.5,119.5C 52.6728,118.833 66.0061,118.167 79.5,117.5C 67.5,116.833 55.5,116.167 43.5,115.5C 53.1667,115.167 62.8333,114.833 72.5,114.5C 83.555,114.38 94.555,114.88 105.5,116C 105.957,116.414 106.291,116.914 106.5,117.5C 105.148,123.423 104.148,129.423 103.5,135.5C 104.586,144.186 104.586,152.853 103.5,161.5C 103.529,163.029 104.196,164.196 105.5,165C 109.466,165.828 113.466,166.328 117.5,166.5 Z"/></g>
<g><path style="opacity:1" fill="#a93720" d="M 257.5,119.5 C 268.988,118.505 280.655,118.172 292.5,118.5C 293.5,119.167 294.5,119.833 295.5,120.5C 282.863,119.579 270.197,119.246 257.5,119.5 Z"/></g>
<g><path style="opacity:1" fill="#fee7de" d="M 358.5,119.5 C 358.5,122.833 358.5,126.167 358.5,129.5C 348.5,129.5 338.5,129.5 328.5,129.5C 337.986,128.506 347.652,128.173 357.5,128.5C 357.5,125.833 357.5,123.167 357.5,120.5C 343.833,120.5 330.167,120.5 316.5,120.5C 316.18,139.243 316.514,157.91 317.5,176.5C 316.833,176.5 316.167,176.5 315.5,176.5C 315.5,157.5 315.5,138.5 315.5,119.5C 329.833,119.5 344.167,119.5 358.5,119.5 Z"/></g>
<g><path style="opacity:1" fill="#fbfcf9" d="M 40.5,119.5 C 53.5,119.5 66.5,119.5 79.5,119.5C 79.5,122.833 79.5,126.167 79.5,129.5C 70.3178,129.173 61.3178,129.507 52.5,130.5C 51.6773,133.977 51.1773,137.644 51,141.5C 49.7949,142.071 48.6283,142.738 47.5,143.5C 56.8096,144.498 66.1429,144.832 75.5,144.5C 75.5,147.167 75.5,149.833 75.5,152.5C 67.6484,152.175 59.9818,152.508 52.5,153.5C 52.5,155.5 52.5,157.5 52.5,159.5C 51.5111,164.975 51.1778,170.642 51.5,176.5C 47.8333,176.5 44.1667,176.5 40.5,176.5C 40.5,157.5 40.5,138.5 40.5,119.5 Z"/></g>
<g><path style="opacity:1" fill="#faf8f4" d="M 257.5,119.5 C 270.197,119.246 282.863,119.579 295.5,120.5C 302.747,124.18 306.081,130.18 305.5,138.5C 304.078,143.483 301.078,147.317 296.5,150C 298.196,151.176 299.862,152.343 301.5,153.5C 302.594,155.359 303.427,157.359 304,159.5C 304.309,165.26 305.142,170.927 306.5,176.5C 302.217,177.492 297.884,177.826 293.5,177.5C 293.184,172.156 292.684,166.822 292,161.5C 291.722,160.584 291.222,159.918 290.5,159.5C 290.033,156.703 288.367,155.369 285.5,155.5C 280.36,154.512 275.026,154.179 269.5,154.5C 269.5,161.833 269.5,169.167 269.5,176.5C 265.702,177.483 261.702,177.817 257.5,177.5C 257.5,158.167 257.5,138.833 257.5,119.5 Z"/></g>
<g><path style="opacity:1" fill="#fbfcfa" d="M 328.5,129.5 C 328.5,129.833 328.5,130.167 328.5,130.5C 328.5,134.5 328.5,138.5 328.5,142.5C 337.318,143.493 346.318,143.827 355.5,143.5C 355.5,146.167 355.5,148.833 355.5,151.5C 346.318,151.173 337.318,151.507 328.5,152.5C 328.5,157.167 328.5,161.833 328.5,166.5C 338.319,167.494 348.319,167.827 358.5,167.5C 358.777,170.448 358.444,173.281 357.5,176C 344.171,176.5 330.837,176.667 317.5,176.5C 316.514,157.91 316.18,139.243 316.5,120.5C 330.167,120.5 343.833,120.5 357.5,120.5C 357.5,123.167 357.5,125.833 357.5,128.5C 347.652,128.173 337.986,128.506 328.5,129.5 Z"/></g>
<g><path style="opacity:1" fill="#af3720" d="M 39.5,119.5 C 39.5,138.833 39.5,158.167 39.5,177.5C 38.6236,177.631 37.9569,177.298 37.5,176.5C 38.1549,157.372 38.8215,138.372 39.5,119.5 Z"/></g>
<g><path style="opacity:1" fill="#f4bcaf" d="M 39.5,119.5 C 39.8333,119.5 40.1667,119.5 40.5,119.5C 40.5,138.5 40.5,157.5 40.5,176.5C 44.1667,176.5 47.8333,176.5 51.5,176.5C 51.1778,170.642 51.5111,164.975 52.5,159.5C 52.5,165.5 52.5,171.5 52.5,177.5C 48.1667,177.5 43.8333,177.5 39.5,177.5C 39.5,158.167 39.5,138.833 39.5,119.5 Z"/></g>
<g><path style="opacity:1" fill="#f9fdfb" d="M 90.5,168.5 C 90.5,167.833 90.1667,167.5 89.5,167.5C 88.962,165.883 88.6287,164.216 88.5,162.5C 88.5,148.5 88.5,134.5 88.5,120.5C 91.8984,120.18 95.2317,120.513 98.5,121.5C 98.6048,134.717 98.4381,148.051 98,161.5C 96.1967,165.512 95.1967,165.178 95,160.5C 93.5688,163.391 92.0688,166.057 90.5,168.5 Z"/></g>
<g><path style="opacity:1" fill="#bb341a" d="M 209.5,119.5 C 205.167,119.5 200.833,119.5 196.5,119.5C 196.5,133.5 196.5,147.5 196.5,161.5C 194.519,148.876 193.852,135.876 194.5,122.5C 193.5,122.5 192.5,122.5 191.5,122.5C 191.802,125.059 191.468,127.393 190.5,129.5C 190.5,126.167 190.5,122.833 190.5,119.5C 174.833,119.5 159.167,119.5 143.5,119.5C 143.5,122.833 143.5,126.167 143.5,129.5C 148.833,130.167 154.167,130.833 159.5,131.5C 154.489,131.334 149.489,131.501 144.5,132C 144,132.5 143.5,133 143,133.5C 141.309,130.393 140.142,127.059 139.5,123.5C 139.155,135.861 138.155,147.861 136.5,159.5C 136.5,146.167 136.5,132.833 136.5,119.5C 133.5,119.5 130.5,119.5 127.5,119.5C 126.167,119.5 124.833,119.5 123.5,119.5C 129.347,118.753 135.347,118.086 141.5,117.5C 150.14,118.139 158.807,118.472 167.5,118.5C 176.125,118.456 184.625,117.789 193,116.5C 198.642,117.468 204.142,118.468 209.5,119.5 Z"/></g>
<g><path style="opacity:1" fill="#fbb1a1" d="M 79.5,119.5 C 79.8333,119.5 80.1667,119.5 80.5,119.5C 80.5,123.167 80.5,126.833 80.5,130.5C 71.1667,130.5 61.8333,130.5 52.5,130.5C 61.3178,129.507 70.3178,129.173 79.5,129.5C 79.5,126.167 79.5,122.833 79.5,119.5 Z"/></g>
<g><path style="opacity:1" fill="#f1a392" d="M 358.5,119.5 C 359.479,122.625 359.813,125.958 359.5,129.5C 359.5,130.167 359.167,130.5 358.5,130.5C 348.833,130.5 339.167,130.5 329.5,130.5C 329.167,130.5 328.833,130.5 328.5,130.5C 328.5,130.167 328.5,129.833 328.5,129.5C 338.5,129.5 348.5,129.5 358.5,129.5C 358.5,126.167 358.5,122.833 358.5,119.5 Z"/></g>
<g><path style="opacity:1" fill="#fcfaf8" d="M 190.5,129.5 C 190.158,130.338 189.492,130.672 188.5,130.5C 183.5,130.5 178.5,130.5 173.5,130.5C 172.504,145.658 172.17,160.991 172.5,176.5C 168.833,176.5 165.167,176.5 161.5,176.5C 161.83,160.991 161.496,145.658 160.5,130.5C 155.025,129.511 149.358,129.178 143.5,129.5C 143.5,126.167 143.5,122.833 143.5,119.5C 159.167,119.5 174.833,119.5 190.5,119.5C 190.5,122.833 190.5,126.167 190.5,129.5 Z"/></g>
<g><path style="opacity:1" fill="#be3e23" d="M 287.5,130.5 C 291.174,131.029 292.841,133.195 292.5,137C 293.101,140.635 291.768,143.135 288.5,144.5C 282.355,145.49 276.022,145.823 269.5,145.5C 269.5,140.167 269.5,134.833 269.5,129.5C 275.69,129.177 281.69,129.51 287.5,130.5 Z"/></g>
<g><path style="opacity:1" fill="#ca2105" d="M 287.5,130.5 C 287.75,131.922 288.583,132.922 290,133.5C 290.667,135.167 290.667,136.833 290,138.5C 289.5,138 289,137.5 288.5,137C 282.843,136.501 277.176,136.334 271.5,136.5C 271.5,134.5 271.5,132.5 271.5,130.5C 276.833,130.5 282.167,130.5 287.5,130.5 Z"/></g>
<g><path style="opacity:1" fill="#cb2002" d="M 288.5,144.5 C 282.833,144.5 277.167,144.5 271.5,144.5C 271.5,142.167 271.5,139.833 271.5,137.5C 276.833,137.5 282.167,137.5 287.5,137.5C 287.674,139.861 288.007,142.194 288.5,144.5 Z"/></g>
<g><path style="opacity:1" fill="#b92e14" d="M 80.5,119.5 C 81.4731,121.948 81.8064,124.615 81.5,127.5C 82.5,127.5 83.5,127.5 84.5,127.5C 84.7852,129.288 84.4519,130.955 83.5,132.5C 76.8923,131.538 70.2257,131.205 63.5,131.5C 63.5,132.833 63.5,134.167 63.5,135.5C 61.9519,135.179 61.2852,134.179 61.5,132.5C 56.0687,131.094 53.7353,133.094 54.5,138.5C 56.7159,138.275 58.3826,139.108 59.5,141C 66.5236,141.169 73.5236,141.669 80.5,142.5C 78.2965,145.477 77.9632,148.644 79.5,152C 78.7562,153.039 77.7562,153.539 76.5,153.5C 76.5,150.167 76.5,146.833 76.5,143.5C 68.5,143.5 60.5,143.5 52.5,143.5C 52.5,139.167 52.5,134.833 52.5,130.5C 61.8333,130.5 71.1667,130.5 80.5,130.5C 80.5,126.833 80.5,123.167 80.5,119.5 Z"/></g>
<g><path style="opacity:1" fill="#9f3320" d="M 328.5,130.5 C 328.833,130.5 329.167,130.5 329.5,130.5C 329.5,134.167 329.5,137.833 329.5,141.5C 338.017,141.174 346.35,141.507 354.5,142.5C 345.833,142.5 337.167,142.5 328.5,142.5C 328.5,138.5 328.5,134.5 328.5,130.5 Z"/></g>
<g><path style="opacity:1" fill="#fae3e0" d="M 52.5,130.5 C 52.5,134.833 52.5,139.167 52.5,143.5C 60.5,143.5 68.5,143.5 76.5,143.5C 76.5,146.833 76.5,150.167 76.5,153.5C 68.5,153.5 60.5,153.5 52.5,153.5C 59.9818,152.508 67.6484,152.175 75.5,152.5C 75.5,149.833 75.5,147.167 75.5,144.5C 66.1429,144.832 56.8096,144.498 47.5,143.5C 48.6283,142.738 49.7949,142.071 51,141.5C 51.1773,137.644 51.6773,133.977 52.5,130.5 Z"/></g>
<g><path style="opacity:1" fill="#fec2b2" d="M 328.5,142.5 C 337.167,142.5 345.833,142.5 354.5,142.5C 355.777,143.694 356.444,145.36 356.5,147.5C 356.493,149.369 356.16,151.036 355.5,152.5C 346.5,152.5 337.5,152.5 328.5,152.5C 337.318,151.507 346.318,151.173 355.5,151.5C 355.5,148.833 355.5,146.167 355.5,143.5C 346.318,143.827 337.318,143.493 328.5,142.5 Z"/></g>
<g><path style="opacity:1" fill="#bb6e54" d="M 143.5,129.5 C 149.358,129.178 155.025,129.511 160.5,130.5C 160.5,146.167 160.5,161.833 160.5,177.5C 159.504,162.342 159.17,147.009 159.5,131.5C 154.167,130.833 148.833,130.167 143.5,129.5 Z"/></g>
<g><path style="opacity:1" fill="#fbc5ba" d="M 160.5,130.5 C 161.496,145.658 161.83,160.991 161.5,176.5C 165.167,176.5 168.833,176.5 172.5,176.5C 172.17,160.991 172.504,145.658 173.5,130.5C 173.5,146.167 173.5,161.833 173.5,177.5C 169.167,177.5 164.833,177.5 160.5,177.5C 160.5,161.833 160.5,146.167 160.5,130.5 Z"/></g>
<g><path style="opacity:1" fill="#ab2c15" d="M 173.5,130.5 C 178.5,130.5 183.5,130.5 188.5,130.5C 184.03,131.486 179.363,131.819 174.5,131.5C 174.183,146.548 174.516,161.548 175.5,176.5C 175.043,177.298 174.376,177.631 173.5,177.5C 173.5,161.833 173.5,146.167 173.5,130.5 Z"/></g>
<g><path style="opacity:1" fill="#b83f2f" d="M 305.5,138.5 C 305.296,141.518 304.963,144.518 304.5,147.5C 300.489,147.835 299.489,149.835 301.5,153.5C 299.862,152.343 298.196,151.176 296.5,150C 301.078,147.317 304.078,143.483 305.5,138.5 Z"/></g>
<g><path style="opacity:1" fill="#c05237" d="M 87.5,119.5 C 87.1707,134.01 87.5041,148.343 88.5,162.5C 88.6287,164.216 88.962,165.883 89.5,167.5C 87.0181,165.497 86.0181,162.831 86.5,159.5C 86.1711,145.99 86.5044,132.656 87.5,119.5 Z"/></g>
<g><path style="opacity:1" fill="#c02706" d="M 329.5,130.5 C 339.167,130.5 348.833,130.5 358.5,130.5C 349.56,132.472 340.227,133.139 330.5,132.5C 330.232,135.119 330.565,137.619 331.5,140C 339.833,140.333 348.167,140.667 356.5,141C 357.833,141.667 359.167,142.333 360.5,143C 359.267,144.698 358.6,146.698 358.5,149C 358.667,150.833 358.833,152.667 359,154.5C 362.013,153.72 364.846,154.386 367.5,156.5C 365.282,157.057 362.949,157.057 360.5,156.5C 361.052,158.331 361.052,159.997 360.5,161.5C 357.497,160.915 354.497,160.248 351.5,159.5C 353.003,158.948 354.669,158.948 356.5,159.5C 356.5,157.833 356.5,156.167 356.5,154.5C 347.833,154.5 339.167,154.5 330.5,154.5C 330.238,155.978 330.571,157.311 331.5,158.5C 332.7,157.469 334.034,156.635 335.5,156C 340.864,155.171 346.198,155.337 351.5,156.5C 346.208,157.495 340.875,157.828 335.5,157.5C 335.5,158.833 335.5,160.167 335.5,161.5C 340.875,161.172 346.208,161.505 351.5,162.5C 346.198,163.663 340.864,163.829 335.5,163C 332.246,158.083 330.58,158.583 330.5,164.5C 329.518,161.038 329.185,157.371 329.5,153.5C 338.349,153.826 347.016,153.493 355.5,152.5C 356.16,151.036 356.493,149.369 356.5,147.5C 356.444,145.36 355.777,143.694 354.5,142.5C 346.35,141.507 338.017,141.174 329.5,141.5C 329.5,137.833 329.5,134.167 329.5,130.5 Z"/></g>
<g><path style="opacity:1" fill="#a0331e" d="M 52.5,153.5 C 60.5,153.5 68.5,153.5 76.5,153.5C 69.0182,154.492 61.3516,154.825 53.5,154.5C 53.8254,162.352 53.492,170.018 52.5,177.5C 52.5,171.5 52.5,165.5 52.5,159.5C 52.5,157.5 52.5,155.5 52.5,153.5 Z"/></g>
<g><path style="opacity:1" fill="#c36855" d="M 285.5,155.5 C 280.5,155.5 275.5,155.5 270.5,155.5C 270.825,162.687 270.491,169.687 269.5,176.5C 269.5,169.167 269.5,161.833 269.5,154.5C 275.026,154.179 280.36,154.512 285.5,155.5 Z"/></g>
<g><path style="opacity:1" fill="#a33d29" d="M 328.5,152.5 C 337.5,152.5 346.5,152.5 355.5,152.5C 347.016,153.493 338.349,153.826 329.5,153.5C 329.185,157.371 329.518,161.038 330.5,164.5C 339.833,165.167 349.167,165.833 358.5,166.5C 348.5,166.5 338.5,166.5 328.5,166.5C 328.5,161.833 328.5,157.167 328.5,152.5 Z"/></g>
<g><path style="opacity:1" fill="#bd3f29" d="M 246.5,159.5 C 247.093,164.537 245.759,168.87 242.5,172.5C 240.757,174.038 238.757,175.038 236.5,175.5C 238.355,173.967 240.188,172.3 242,170.5C 243.428,166.693 244.928,163.026 246.5,159.5 Z"/></g>
<g><path style="opacity:1" fill="#c1482c" d="M 136.5,160.5 C 137.688,166.36 135.688,170.36 130.5,172.5C 133.843,169.115 135.843,165.115 136.5,160.5 Z"/></g>
<g><path style="opacity:1" fill="#fbf1ec" d="M 209.5,119.5 C 209.5,132.833 209.5,146.167 209.5,159.5C 210.108,162.958 212.108,165.458 215.5,167C 219.5,167.667 223.5,167.667 227.5,167C 230.663,165.52 232.496,163.02 233,159.5C 233.5,146.171 233.667,132.837 233.5,119.5C 237.833,119.5 242.167,119.5 246.5,119.5C 246.5,132.833 246.5,146.167 246.5,159.5C 244.928,163.026 243.428,166.693 242,170.5C 240.188,172.3 238.355,173.967 236.5,175.5C 227.673,178.678 218.673,179.178 209.5,177C 202.73,173.742 198.397,168.575 196.5,161.5C 196.5,147.5 196.5,133.5 196.5,119.5C 200.833,119.5 205.167,119.5 209.5,119.5 Z"/></g>
<g><path style="opacity:1" fill="#fafdfd" d="M 209.5,159.5 C 209.665,162.518 209.498,165.518 209,168.5C 206.383,172.476 203.716,172.476 201,168.5C 200.333,166.5 199.667,164.5 199,162.5C 198.644,148.35 198.477,134.35 198.5,120.5C 201.833,120.5 205.167,120.5 208.5,120.5C 208.171,133.677 208.505,146.677 209.5,159.5 Z"/></g>
<g><path style="opacity:1" fill="#c25241" d="M 89.5,167.5 C 90.1667,167.5 90.5,167.833 90.5,168.5C 92.4216,170.687 94.0883,173.02 95.5,175.5C 94.5,175.5 93.5,175.5 92.5,175.5C 91.2166,172.99 90.2166,170.323 89.5,167.5 Z"/></g>
<g><path style="opacity:1" fill="#fce8df" d="M 87.5,119.5 C 91.8333,119.5 96.1667,119.5 100.5,119.5C 100.333,133.504 100.5,147.504 101,161.5C 102.277,163.747 103.777,165.747 105.5,167.5C 103.167,167.5 100.833,167.5 98.5,167.5C 98.8541,169.541 98.8541,171.374 98.5,173C 102.167,173.333 105.833,173.667 109.5,174C 113.57,176.55 117.903,177.05 122.5,175.5C 123.59,174.609 123.59,173.609 122.5,172.5C 130.228,171.776 134.395,167.442 135,159.5C 135.5,146.504 135.667,133.504 135.5,120.5C 132.615,120.806 129.948,120.473 127.5,119.5C 130.5,119.5 133.5,119.5 136.5,119.5C 136.5,132.833 136.5,146.167 136.5,159.5C 136.5,159.833 136.5,160.167 136.5,160.5C 135.843,165.115 133.843,169.115 130.5,172.5C 129.306,173.272 128.306,174.272 127.5,175.5C 117.157,179.446 106.824,179.446 96.5,175.5C 96.1667,175.5 95.8333,175.5 95.5,175.5C 94.0883,173.02 92.4216,170.687 90.5,168.5C 92.0688,166.057 93.5688,163.391 95,160.5C 95.1967,165.178 96.1967,165.512 98,161.5C 98.4381,148.051 98.6048,134.717 98.5,121.5C 95.2317,120.513 91.8984,120.18 88.5,120.5C 88.5,134.5 88.5,148.5 88.5,162.5C 87.5041,148.343 87.1707,134.01 87.5,119.5 Z"/></g>
<g><path style="opacity:1" fill="#b62d1b" d="M 123.5,120.5 C 123.667,134.504 123.5,148.504 123,162.5C 122.125,165.215 120.292,166.548 117.5,166.5C 117.5,165.167 117.5,163.833 117.5,162.5C 118.5,162.5 119.5,162.5 120.5,162.5C 122.065,148.459 123.065,134.459 123.5,120.5 Z"/></g>
<g><path style="opacity:1" fill="#faf5f2" d="M 123.5,119.5 C 124.833,119.5 126.167,119.5 127.5,119.5C 129.948,120.473 132.615,120.806 135.5,120.5C 135.667,133.504 135.5,146.504 135,159.5C 134.395,167.442 130.228,171.776 122.5,172.5C 123.59,173.609 123.59,174.609 122.5,175.5C 117.903,177.05 113.57,176.55 109.5,174C 105.833,173.667 102.167,173.333 98.5,173C 98.8541,171.374 98.8541,169.541 98.5,167.5C 100.833,167.5 103.167,167.5 105.5,167.5C 109.702,167.817 113.702,167.483 117.5,166.5C 120.292,166.548 122.125,165.215 123,162.5C 123.5,148.504 123.667,134.504 123.5,120.5C 123.5,120.167 123.5,119.833 123.5,119.5 Z"/></g>
<g><path style="opacity:1" fill="#bc3010" d="M 96.5,175.5 C 106.824,179.446 117.157,179.446 127.5,175.5C 127.5,176.833 127.5,178.167 127.5,179.5C 118.546,179.946 109.712,181.279 101,183.5C 100.167,183.333 99.3333,183.167 98.5,183C 100.731,181.853 103.065,180.853 105.5,180C 102.444,178.224 99.2778,178.057 96,179.5C 95.4209,178.072 95.5876,176.738 96.5,175.5 Z"/></g>
<g><path style="opacity:1" fill="#c42607" d="M 359.5,129.5 C 359.813,125.958 359.479,122.625 358.5,119.5C 344.167,119.5 329.833,119.5 315.5,119.5C 315.5,138.5 315.5,157.5 315.5,176.5C 329.99,177.496 344.657,177.829 359.5,177.5C 359.815,173.629 359.482,169.962 358.5,166.5C 349.167,165.833 339.833,165.167 330.5,164.5C 340.172,164.334 349.839,164.5 359.5,165C 360.812,169.803 360.812,174.636 359.5,179.5C 363.832,180.512 365.165,183.012 363.5,187C 341.842,186.354 320.175,186.52 298.5,187.5C 298.5,186.5 298.5,185.5 298.5,184.5C 301.247,184.813 303.914,184.48 306.5,183.5C 301.479,182.756 296.479,181.923 291.5,181C 291.833,180.667 292.167,180.333 292.5,180C 290.248,177.66 288.915,174.827 288.5,171.5C 289.769,167.618 290.435,163.618 290.5,159.5C 291.222,159.918 291.722,160.584 292,161.5C 292.684,166.822 293.184,172.156 293.5,177.5C 297.884,177.826 302.217,177.492 306.5,176.5C 305.142,170.927 304.309,165.26 304,159.5C 303.427,157.359 302.594,155.359 301.5,153.5C 299.489,149.835 300.489,147.835 304.5,147.5C 304.963,144.518 305.296,141.518 305.5,138.5C 306.081,130.18 302.747,124.18 295.5,120.5C 294.5,119.833 293.5,119.167 292.5,118.5C 290.722,116.68 289.056,114.68 287.5,112.5C 288,112.167 288.5,111.833 289,111.5C 292.122,113.983 295.288,113.983 298.5,111.5C 300.958,112.919 303.625,113.919 306.5,114.5C 305.372,115.262 304.205,115.929 303,116.5C 300.299,114.078 297.465,113.911 294.5,116C 298.047,116.307 301.38,117.14 304.5,118.5C 304.187,121.247 304.52,123.914 305.5,126.5C 305.833,126.333 306.167,126.167 306.5,126C 307.456,122.606 307.789,119.106 307.5,115.5C 309.199,115.66 310.866,115.494 312.5,115C 313.641,114.259 313.641,113.425 312.5,112.5C 313.325,111.614 314.325,111.281 315.5,111.5C 315.5,112.5 315.5,113.5 315.5,114.5C 330.167,114.5 344.833,114.5 359.5,114.5C 360.619,119.653 360.619,124.653 359.5,129.5 Z"/></g>
<g><path style="opacity:1" fill="#fecabd" d="M 328.5,166.5 C 338.5,166.5 348.5,166.5 358.5,166.5C 359.482,169.962 359.815,173.629 359.5,177.5C 344.657,177.829 329.99,177.496 315.5,176.5C 316.167,176.5 316.833,176.5 317.5,176.5C 330.837,176.667 344.171,176.5 357.5,176C 358.444,173.281 358.777,170.448 358.5,167.5C 348.319,167.827 338.319,167.494 328.5,166.5 Z"/></g>
<g><path style="opacity:1" fill="#e48570" d="M 198.5,219.5 C 212.99,218.504 227.657,218.171 242.5,218.5C 242.815,222.371 242.482,226.038 241.5,229.5C 241.5,226.167 241.5,222.833 241.5,219.5C 227.167,219.5 212.833,219.5 198.5,219.5 Z"/></g>
<g><path style="opacity:1" fill="#fbfbf9" d="M 35.5,219.5 C 51.1667,219.5 66.8333,219.5 82.5,219.5C 82.5,222.833 82.5,226.167 82.5,229.5C 76.642,229.178 70.9753,229.511 65.5,230.5C 64.5043,243.99 64.171,257.656 64.5,271.5C 63.5655,272.568 63.2322,273.901 63.5,275.5C 60.5,275.5 57.5,275.5 54.5,275.5C 53.8962,260.019 53.2295,244.685 52.5,229.5C 46.8333,229.5 41.1667,229.5 35.5,229.5C 35.5,226.167 35.5,222.833 35.5,219.5 Z"/></g>
<g><path style="opacity:1" fill="#fbfcfa" d="M 211.5,229.5 C 210.167,233.5 210.167,237.5 211.5,241.5C 220.318,242.493 229.318,242.827 238.5,242.5C 238.5,245.5 238.5,248.5 238.5,251.5C 229.318,251.173 220.318,251.507 211.5,252.5C 210.514,256.97 210.181,261.637 210.5,266.5C 212.5,266.5 214.5,266.5 216.5,266.5C 216.47,267.497 216.97,268.164 218,268.5C 225.129,267.386 232.296,267.219 239.5,268C 241.576,269.884 241.91,272.051 240.5,274.5C 227.216,275.482 213.883,275.815 200.5,275.5C 200.5,257.167 200.5,238.833 200.5,220.5C 213.504,220.333 226.504,220.5 239.5,221C 240.833,223.333 240.833,225.667 239.5,228C 229.991,228.17 220.658,228.67 211.5,229.5 Z"/></g>
<g><path style="opacity:1" fill="#ffece3" d="M 198.5,219.5 C 212.833,219.5 227.167,219.5 241.5,219.5C 241.5,222.833 241.5,226.167 241.5,229.5C 231.5,229.5 221.5,229.5 211.5,229.5C 220.658,228.67 229.991,228.17 239.5,228C 240.833,225.667 240.833,223.333 239.5,221C 226.504,220.5 213.504,220.333 200.5,220.5C 200.5,238.833 200.5,257.167 200.5,275.5C 213.883,275.815 227.216,275.482 240.5,274.5C 241.91,272.051 241.576,269.884 239.5,268C 232.296,267.219 225.129,267.386 218,268.5C 216.97,268.164 216.47,267.497 216.5,266.5C 224.833,266.5 233.167,266.5 241.5,266.5C 242.479,269.625 242.813,272.958 242.5,276.5C 227.833,276.5 213.167,276.5 198.5,276.5C 198.5,257.5 198.5,238.5 198.5,219.5 Z"/></g>
<g><path style="opacity:1" fill="#cc755e" d="M 211.5,229.5 C 221.5,229.5 231.5,229.5 241.5,229.5C 232.014,230.494 222.348,230.827 212.5,230.5C 211.518,233.962 211.185,237.629 211.5,241.5C 210.167,237.5 210.167,233.5 211.5,229.5 Z"/></g>
<g><path style="opacity:1" fill="#c43b1c" d="M 102.5,223.5 C 101.014,229.119 99.0136,234.453 96.5,239.5C 96.1667,237.5 95.8333,235.5 95.5,233.5C 91.1508,234.423 87.8175,233.09 85.5,229.5C 83.8067,231.027 81.9734,232.36 80,233.5C 79.3659,239.134 78.8659,239.468 78.5,234.5C 77.5,234.5 76.5,234.5 75.5,234.5C 75.7852,236.288 75.4519,237.955 74.5,239.5C 73.52,236.914 73.1866,234.247 73.5,231.5C 72.5,231.5 71.5,231.5 70.5,231.5C 70.8076,233.924 70.4742,236.257 69.5,238.5C 68.8133,236.726 67.9799,235.059 67,233.5C 66.8312,248.006 66.3312,262.339 65.5,276.5C 65.5,261.167 65.5,245.833 65.5,230.5C 70.9753,229.511 76.642,229.178 82.5,229.5C 82.5,226.167 82.5,222.833 82.5,219.5C 66.8333,219.5 51.1667,219.5 35.5,219.5C 50.331,217.806 65.4976,216.806 81,216.5C 81.772,216.645 82.4387,216.978 83,217.5C 83.8952,219.804 84.7285,222.138 85.5,224.5C 86.1667,224.167 86.8333,223.833 87.5,223.5C 89.6802,215.61 91.3469,215.61 92.5,223.5C 91.5,223.5 90.5,223.5 89.5,223.5C 89.5,225.5 89.5,227.5 89.5,229.5C 92.0792,229.917 94.2458,229.25 96,227.5C 97.016,228.634 97.6827,228.301 98,226.5C 98.414,226.957 98.914,227.291 99.5,227.5C 100.057,225.668 101.057,224.335 102.5,223.5 Z"/></g>
<g><path style="opacity:1" fill="#a7452c" d="M 35.5,229.5 C 41.1667,229.5 46.8333,229.5 52.5,229.5C 52.5,245.167 52.5,260.833 52.5,276.5C 51.5038,261.342 51.1705,246.009 51.5,230.5C 45.9738,230.821 40.6405,230.488 35.5,229.5 Z"/></g>
<g><path style="opacity:1" fill="#fee5d8" d="M 52.5,229.5 C 53.2295,244.685 53.8962,260.019 54.5,275.5C 57.5,275.5 60.5,275.5 63.5,275.5C 63.2322,273.901 63.5655,272.568 64.5,271.5C 64.5,273.167 64.5,274.833 64.5,276.5C 60.5,276.5 56.5,276.5 52.5,276.5C 52.5,260.833 52.5,245.167 52.5,229.5 Z"/></g>
<g><path style="opacity:1" fill="#efaa9c" d="M 65.5,230.5 C 65.5,245.833 65.5,261.167 65.5,276.5C 61.1667,277.833 56.8333,277.833 52.5,276.5C 56.5,276.5 60.5,276.5 64.5,276.5C 64.5,274.833 64.5,273.167 64.5,271.5C 64.171,257.656 64.5043,243.99 65.5,230.5 Z"/></g>
<g><path style="opacity:1" fill="#d99689" d="M 211.5,241.5 C 220.833,241.5 230.167,241.5 239.5,241.5C 239.5,245.167 239.5,248.833 239.5,252.5C 230.167,252.5 220.833,252.5 211.5,252.5C 220.318,251.507 229.318,251.173 238.5,251.5C 238.5,248.5 238.5,245.5 238.5,242.5C 229.318,242.827 220.318,242.493 211.5,241.5 Z"/></g>
<g><path style="opacity:1" fill="#be3619" d="M 212.5,230.5 C 212.5,233.833 212.5,237.167 212.5,240.5C 221.751,240.818 230.917,240.485 240,239.5C 240.71,240.973 241.876,241.64 243.5,241.5C 245.249,246.178 244.583,250.511 241.5,254.5C 242.5,255.167 243.5,255.833 244.5,256.5C 243.833,256.833 243.167,257.167 242.5,257.5C 235.923,256.274 229.423,254.94 223,253.5C 222.612,254.428 221.945,255.095 221,255.5C 218.405,253.854 215.572,253.187 212.5,253.5C 212.5,257.167 212.5,260.833 212.5,264.5C 222.041,264.795 231.541,264.461 241,263.5C 244.917,268.099 245.417,273.099 242.5,278.5C 241.833,278.833 241.167,279.167 240.5,279.5C 226.337,279 212.337,278 198.5,276.5C 213.167,276.5 227.833,276.5 242.5,276.5C 242.813,272.958 242.479,269.625 241.5,266.5C 231.681,265.506 221.681,265.173 211.5,265.5C 211.5,261.167 211.5,256.833 211.5,252.5C 220.833,252.5 230.167,252.5 239.5,252.5C 239.5,248.833 239.5,245.167 239.5,241.5C 230.167,241.5 220.833,241.5 211.5,241.5C 211.185,237.629 211.518,233.962 212.5,230.5 Z"/></g>
<g><path style="opacity:1" fill="#fbfaf7" d="M 188.5,228.5 C 190.981,233.934 191.148,239.601 189,245.5C 186.382,251.391 181.882,254.724 175.5,255.5C 171.833,255.5 168.167,255.5 164.5,255.5C 161.829,253.882 158.829,253.215 155.5,253.5C 155.317,260.868 155.65,268.201 156.5,275.5C 153.639,275.487 152.639,274.321 153.5,272C 150.173,270.837 148.173,272.003 147.5,275.5C 146.948,257.121 146.615,238.788 146.5,220.5C 156.839,220.334 167.172,220.5 177.5,221C 178.623,222.044 179.956,222.71 181.5,223C 180.939,224.676 179.939,226.009 178.5,227C 179.667,228.5 180.833,230 182,231.5C 183.465,229.085 185.632,228.085 188.5,228.5 Z"/></g>
<g><path style="opacity:1" fill="#b82d11" d="M 169.5,229.5 C 177.658,230.477 180.158,234.811 177,242.5C 175.266,244.451 173.099,245.451 170.5,245.5C 166.298,245.817 162.298,245.483 158.5,244.5C 162.514,244.666 166.514,244.499 170.5,244C 171.634,242.984 171.301,242.317 169.5,242C 171.81,241.503 174.143,241.337 176.5,241.5C 176.5,239.167 176.5,236.833 176.5,234.5C 174.167,234.5 171.833,234.5 169.5,234.5C 169.5,233.167 169.5,231.833 169.5,230.5C 165.731,230.244 162.064,230.577 158.5,231.5C 161.684,229.586 165.351,228.92 169.5,229.5 Z"/></g>
<g><path style="opacity:1" fill="#cb2103" d="M 158.5,244.5 C 158.5,240.167 158.5,235.833 158.5,231.5C 162.064,230.577 165.731,230.244 169.5,230.5C 169.5,231.833 169.5,233.167 169.5,234.5C 171.833,234.5 174.167,234.5 176.5,234.5C 176.5,236.833 176.5,239.167 176.5,241.5C 174.143,241.337 171.81,241.503 169.5,242C 171.301,242.317 171.634,242.984 170.5,244C 166.514,244.499 162.514,244.666 158.5,244.5 Z"/></g>
<g><path style="opacity:1" fill="#b85a46" d="M 169.5,229.5 C 165.351,228.92 161.684,229.586 158.5,231.5C 158.5,235.833 158.5,240.167 158.5,244.5C 162.298,245.483 166.298,245.817 170.5,245.5C 166.366,246.485 162.032,246.818 157.5,246.5C 157.5,240.5 157.5,234.5 157.5,228.5C 161.702,228.183 165.702,228.517 169.5,229.5 Z"/></g>
<g><path style="opacity:1" fill="#fce0d8" d="M 188.5,228.5 C 185.632,228.085 183.465,229.085 182,231.5C 180.833,230 179.667,228.5 178.5,227C 179.939,226.009 180.939,224.676 181.5,223C 179.956,222.71 178.623,222.044 177.5,221C 167.172,220.5 156.839,220.334 146.5,220.5C 146.615,238.788 146.948,257.121 147.5,275.5C 148.173,272.003 150.173,270.837 153.5,272C 152.639,274.321 153.639,275.487 156.5,275.5C 155.65,268.201 155.317,260.868 155.5,253.5C 158.829,253.215 161.829,253.882 164.5,255.5C 162.167,255.5 159.833,255.5 157.5,255.5C 157.5,262.5 157.5,269.5 157.5,276.5C 153.366,277.485 149.032,277.818 144.5,277.5C 144.5,257.833 144.5,238.167 144.5,218.5C 154.839,218.334 165.172,218.5 175.5,219C 181.396,220.258 185.73,223.425 188.5,228.5 Z"/></g>
<g><path style="opacity:1" fill="#faf6f3" d="M 138.5,274.5 C 134.971,276.423 130.971,277.089 126.5,276.5C 124.98,274.11 123.98,271.443 123.5,268.5C 122.962,266.883 122.629,265.216 122.5,263.5C 114.981,263.175 107.648,263.508 100.5,264.5C 98.5415,268.275 96.8749,272.275 95.5,276.5C 91.5546,277.491 87.5546,277.824 83.5,277.5C 87.8197,264.854 92.153,252.187 96.5,239.5C 99.0136,234.453 101.014,229.119 102.5,223.5C 103.391,222.739 104.058,221.739 104.5,220.5C 109.167,219.167 113.833,219.167 118.5,220.5C 125.743,238.313 132.41,256.313 138.5,274.5 Z"/></g>
<g><path style="opacity:1" fill="#973a24" d="M 105.5,249.5 C 105.5,250.833 105.5,252.167 105.5,253.5C 109.167,253.5 112.833,253.5 116.5,253.5C 116.5,252.167 116.5,250.833 116.5,249.5C 117.451,250.919 117.784,252.585 117.5,254.5C 113.167,254.5 108.833,254.5 104.5,254.5C 104.216,252.585 104.549,250.919 105.5,249.5 Z"/></g>
<g><path style="opacity:1" fill="#c4270c" d="M 112.5,236.5 C 114.232,240.697 115.565,245.03 116.5,249.5C 116.5,250.833 116.5,252.167 116.5,253.5C 112.833,253.5 109.167,253.5 105.5,253.5C 105.5,252.167 105.5,250.833 105.5,249.5C 105.557,248.391 105.89,247.391 106.5,246.5C 109.061,243.358 111.061,240.025 112.5,236.5 Z"/></g>
<g><path style="opacity:1" fill="#b44b35" d="M 112.5,236.5 C 111.061,240.025 109.061,243.358 106.5,246.5C 107.993,242.178 109.493,237.844 111,233.5C 112.039,234.244 112.539,235.244 112.5,236.5 Z"/></g>
<g><path style="opacity:1" fill="#dc7c69" d="M 100.5,264.5 C 107.648,263.508 114.981,263.175 122.5,263.5C 122.629,265.216 122.962,266.883 123.5,268.5C 121.896,267.713 121.229,266.38 121.5,264.5C 114.5,264.5 107.5,264.5 100.5,264.5 Z"/></g>
<g><path style="opacity:1" fill="#bf745d" d="M 211.5,252.5 C 211.5,256.833 211.5,261.167 211.5,265.5C 221.681,265.173 231.681,265.506 241.5,266.5C 233.167,266.5 224.833,266.5 216.5,266.5C 214.5,266.5 212.5,266.5 210.5,266.5C 210.181,261.637 210.514,256.97 211.5,252.5 Z"/></g>
<g><path style="opacity:1" fill="#cc5d42" d="M 164.5,255.5 C 168.167,255.5 171.833,255.5 175.5,255.5C 170.025,256.489 164.358,256.822 158.5,256.5C 158.824,263.354 158.491,270.021 157.5,276.5C 157.5,269.5 157.5,262.5 157.5,255.5C 159.833,255.5 162.167,255.5 164.5,255.5 Z"/></g>
<g><path style="opacity:1" fill="#d3816e" d="M 138.5,274.5 C 139.404,275.209 139.737,276.209 139.5,277.5C 134.968,277.818 130.634,277.485 126.5,276.5C 130.971,277.089 134.971,276.423 138.5,274.5 Z"/></g>
</svg>
