<?xml version="1.0" encoding="UTF-8"?>
<!DOCTYPE svg PUBLIC "-//W3C//DTD SVG 1.1//EN" "http://www.w3.org/Graphics/SVG/1.1/DTD/svg11.dtd">
<svg xmlns="http://www.w3.org/2000/svg" version="1.1" width="270px" height="270px" style="shape-rendering:geometricPrecision; text-rendering:geometricPrecision; image-rendering:optimizeQuality; fill-rule:evenodd; clip-rule:evenodd" xmlns:xlink="http://www.w3.org/1999/xlink">
<g><path style="opacity:0.999" fill="#fa738c" d="M 123.5,-0.5 C 130.5,-0.5 137.5,-0.5 144.5,-0.5C 153.722,1.61087 162.056,5.61087 169.5,11.5C 169.265,12.0967 168.765,12.4301 168,12.5C 149.323,4.59966 130.156,3.433 110.5,9C 104.014,13.7447 97.3477,18.2447 90.5,22.5C 95.0411,14.1288 101.708,7.96211 110.5,4C 114.893,2.32866 119.226,0.828658 123.5,-0.5 Z"/></g>
<g><path style="opacity:0.999" fill="#fe4a6b" d="M 256.5,64.5 C 256.5,65.1667 256.5,65.8333 256.5,66.5C 255.288,65.7701 254.288,64.7701 253.5,63.5C 251.997,63.8346 250.664,63.8346 249.5,63.5C 252.06,68.0145 253.726,72.8478 254.5,78C 253.833,78.3333 253.167,78.6667 252.5,79C 253.428,79.3879 254.095,80.0546 254.5,81C 253.465,81.2526 252.465,82.086 251.5,83.5C 254.076,84.8834 253.742,85.7167 250.5,86C 250.833,87 251.167,88 251.5,89C 250.126,91.5829 248.626,94.0829 247,96.5C 246.692,95.6919 246.192,95.0253 245.5,94.5C 245.331,95.3966 244.998,96.3966 244.5,97.5C 241.539,96.8169 241.205,95.9836 243.5,95C 243,94.5 242.5,94 242,93.5C 240.333,93.5 238.667,93.5 237,93.5C 236.535,92.0692 235.701,90.9025 234.5,90C 236.929,89.5488 237.096,88.7155 235,87.5C 231.58,90.1821 230.747,89.3487 232.5,85C 230.299,84.1751 228.466,84.6751 227,86.5C 225.89,84.9632 224.39,84.2965 222.5,84.5C 222.649,83.448 222.483,82.448 222,81.5C 221,81.5 220,81.5 219,81.5C 218.16,78.5363 217.16,78.203 216,80.5C 215.667,80.1667 215.333,79.8333 215,79.5C 214.311,80.3567 213.478,81.0233 212.5,81.5C 210.297,79.7046 209.131,77.3712 209,74.5C 208.667,75.5 208.333,76.5 208,77.5C 205.683,76.1802 203.683,74.5136 202,72.5C 199.439,78.0964 197.939,77.7631 197.5,71.5C 196.178,71.33 195.011,71.6634 194,72.5C 193.097,71.2986 191.931,70.4652 190.5,70C 190.957,69.586 191.291,69.086 191.5,68.5C 190.282,68.891 189.448,68.2244 189,66.5C 186.918,69.1496 185.251,68.8163 184,65.5C 182.221,68.2764 181.221,67.9431 181,64.5C 180,66.1667 179,67.8333 178,69.5C 177.333,68.1667 176.333,67.1667 175,66.5C 173.981,67.6872 172.814,68.6872 171.5,69.5C 169.418,67.8926 167.918,66.2259 167,64.5C 165.013,68.3673 164.513,68.3673 165.5,64.5C 164.369,63.3961 163.535,63.7295 163,65.5C 162,64.1667 161,64.1667 160,65.5C 159.5,64.3333 158.667,63.5 157.5,63C 158.196,61.512 157.862,60.012 156.5,58.5C 156.306,60.0701 156.306,61.5701 156.5,63C 155.584,63.3742 154.75,63.8742 154,64.5C 151.843,62.1968 150.177,59.5302 149,56.5C 148.626,57.4162 148.126,58.2496 147.5,59C 144.899,59.9203 142.232,60.587 139.5,61C 140.624,61.2492 141.624,61.7492 142.5,62.5C 140.791,62.879 138.957,63.879 137,65.5C 136.383,64.5509 136.549,63.7175 137.5,63C 135.713,62.8974 134.046,62.2308 132.5,61C 132.833,61.3333 133.167,61.6667 133.5,62C 132.027,63.6723 131.193,65.5057 131,67.5C 129.903,65.9474 128.57,64.614 127,63.5C 125.602,64.0509 124.268,64.3842 123,64.5C 121.934,62.9005 120.434,61.9005 118.5,61.5C 118.891,62.8905 118.058,63.8905 116,64.5C 115,63.1667 114,63.1667 113,64.5C 112.085,63.6721 111.419,62.6721 111,61.5C 108.944,63.3188 106.777,63.9855 104.5,63.5C 103.406,64.868 103.74,66.0347 105.5,67C 104.975,67.6924 104.308,68.1924 103.5,68.5C 101.606,67.3989 100.939,66.0655 101.5,64.5C 99.9411,65.0736 98.4411,65.7402 97,66.5C 96.6667,65.8333 96.3333,65.1667 96,64.5C 94.3963,65.6493 92.7297,65.6493 91,64.5C 89.2729,64.6465 89.1062,65.3131 90.5,66.5C 89.4826,69.028 88.3159,69.028 87,66.5C 86.6667,67.5 86.3333,68.5 86,69.5C 82.4896,65.1236 80.823,65.457 81,70.5C 77.6013,73.2705 74.6013,72.9372 72,69.5C 71.5,69.8333 71,70.1667 70.5,70.5C 71.1667,70.8333 71.8333,71.1667 72.5,71.5C 70.8035,72.3636 69.6368,73.6969 69,75.5C 68.6667,74.8333 68.3333,74.1667 68,73.5C 66.636,74.6961 65.136,75.6961 63.5,76.5C 62.2141,76.1485 61.3808,75.4818 61,74.5C 61.054,75.8107 60.054,76.8107 58,77.5C 56.9433,76.3726 55.7766,75.8726 54.5,76C 54.8333,76.3333 55.1667,76.6667 55.5,77C 51.6695,77.407 51.0028,78.7403 53.5,81C 50.7157,82.3379 48.2157,84.1713 46,86.5C 43.6907,84.7985 41.524,83.2985 39.5,82C 40.8333,83 40.8333,84 39.5,85C 40.938,85.2189 42.2713,85.7189 43.5,86.5C 43.0623,87.5063 42.3957,87.5063 41.5,86.5C 40.4024,90.3605 39.5691,90.3605 39,86.5C 38.6667,87.1667 38.3333,87.8333 38,88.5C 36.1667,88.3333 34.3333,88.1667 32.5,88C 32.8333,88.3333 33.1667,88.6667 33.5,89C 31.6171,91.2609 30.2838,93.4276 29.5,95.5C 27.997,94.4099 27.6637,93.2433 28.5,92C 25.7825,90.967 23.9492,91.8003 23,94.5C 21.9916,94.0183 20.825,93.8516 19.5,94C 20.5762,92.2739 20.7429,90.4406 20,88.5C 19.7074,92.9799 18.874,93.3133 17.5,89.5C 18.9023,88.1575 18.5689,87.3242 16.5,87C 17.8146,85.6054 17.4812,84.6054 15.5,84C 17.0368,82.8904 17.7035,81.3904 17.5,79.5C 13.6893,79.4042 13.6893,78.7376 17.5,77.5C 16.4706,77.7036 15.4706,77.2036 14.5,76C 15.6005,72.1046 16.9338,68.2712 18.5,64.5C 17.7579,63.7132 16.9246,63.0465 16,62.5C 14.9681,64.0267 13.8014,65.36 12.5,66.5C 12.5,65.8333 12.5,65.1667 12.5,64.5C 17.2142,57.4598 23.5475,52.2931 31.5,49C 47.0857,42.7528 62.4191,44.0862 77.5,53C 82.2742,54.3608 85.7742,52.8608 88,48.5C 90.1806,31.6483 99.3472,20.4816 115.5,15C 134.493,9.56163 152.16,12.2283 168.5,23C 176.555,29.9454 180.722,38.7787 181,49.5C 186.488,54.6897 191.988,54.523 197.5,49C 216.725,41.8967 234.392,44.5634 250.5,57C 253.121,59.1141 255.121,61.6141 256.5,64.5 Z"/></g>
<g><path style="opacity:0.889" fill="#fa6884" d="M 169.5,11.5 C 172.832,14 175.666,17 178,20.5C 181.751,27.6019 184.584,34.9352 186.5,42.5C 186.45,44.5901 187.45,45.9234 189.5,46.5C 204.456,36.8885 220.123,35.0551 236.5,41C 241.261,42.1022 245.761,43.9356 250,46.5C 250.765,46.4301 251.265,46.0967 251.5,45.5C 260.797,53.4262 266.464,63.4262 268.5,75.5C 266.738,70.8658 264.238,66.5325 261,62.5C 255.813,58.311 250.98,53.811 246.5,49C 226.999,37.5396 207.665,37.7063 188.5,49.5C 186.742,48.8721 185.242,47.8721 184,46.5C 181.811,29.6282 172.644,18.4615 156.5,13C 136.683,5.76304 117.683,7.42971 99.5,18C 94.5104,23.1069 90.3437,28.9402 87,35.5C 86.7031,38.914 86.0365,42.2473 85,45.5C 84.2411,47.6349 82.7411,48.9682 80.5,49.5C 60.4928,38.9437 40.4928,39.1104 20.5,50C 16.3874,54.1126 12.2208,58.2792 8,62.5C 6.06546,65.3707 4.39879,68.3707 3,71.5C 2.32924,72.2524 1.4959,72.5858 0.5,72.5C 1.52029,66.7973 3.85363,61.7973 7.5,57.5C 12.0822,54.2613 16.4156,50.5946 20.5,46.5C 39.9137,35.0679 59.4137,34.7345 79,45.5C 80.4343,45.1382 81.6009,44.4715 82.5,43.5C 83.5893,35.8988 86.2559,28.8988 90.5,22.5C 97.3477,18.2447 104.014,13.7447 110.5,9C 130.156,3.433 149.323,4.59966 168,12.5C 168.765,12.4301 169.265,12.0967 169.5,11.5 Z"/></g>
<g><path style="opacity:0.996" fill="#fa748d" d="M 82.5,43.5 C 81.6009,44.4715 80.4343,45.1382 79,45.5C 59.4137,34.7345 39.9137,35.0679 20.5,46.5C 16.4156,50.5946 12.0822,54.2613 7.5,57.5C 21.5831,36.0756 41.2498,28.2422 66.5,34C 72.691,35.9208 78.0244,39.0875 82.5,43.5 Z"/></g>
<g><path style="opacity:0.999" fill="#fa748d" d="M 251.5,45.5 C 251.265,46.0967 250.765,46.4301 250,46.5C 245.761,43.9356 241.261,42.1022 236.5,41C 220.123,35.0551 204.456,36.8885 189.5,46.5C 187.45,45.9234 186.45,44.5901 186.5,42.5C 208.965,27.2206 230.631,28.2206 251.5,45.5 Z"/></g>
<g><path style="opacity:0.999" fill="#fc5876" d="M 268.5,75.5 C 268.833,75.5 269.167,75.5 269.5,75.5C 269.5,80.8333 269.5,86.1667 269.5,91.5C 269.167,91.5 268.833,91.5 268.5,91.5C 268.546,80.601 264.546,71.601 256.5,64.5C 255.121,61.6141 253.121,59.1141 250.5,57C 234.392,44.5634 216.725,41.8967 197.5,49C 191.988,54.523 186.488,54.6897 181,49.5C 180.722,38.7787 176.555,29.9454 168.5,23C 152.16,12.2283 134.493,9.56163 115.5,15C 99.3472,20.4816 90.1806,31.6483 88,48.5C 85.7742,52.8608 82.2742,54.3608 77.5,53C 62.4191,44.0862 47.0857,42.7528 31.5,49C 23.5475,52.2931 17.2142,57.4598 12.5,64.5C 9.83238,66.3355 7.66571,68.6688 6,71.5C 3.46073,76.8799 1.29406,82.2132 -0.5,87.5C -0.5,83.1667 -0.5,78.8333 -0.5,74.5C 0.338246,74.1583 0.67158,73.4916 0.5,72.5C 1.4959,72.5858 2.32924,72.2524 3,71.5C 4.39879,68.3707 6.06546,65.3707 8,62.5C 12.2208,58.2792 16.3874,54.1126 20.5,50C 40.4928,39.1104 60.4928,38.9437 80.5,49.5C 82.7411,48.9682 84.2411,47.6349 85,45.5C 86.0365,42.2473 86.7031,38.914 87,35.5C 90.3437,28.9402 94.5104,23.1069 99.5,18C 117.683,7.42971 136.683,5.76304 156.5,13C 172.644,18.4615 181.811,29.6282 184,46.5C 185.242,47.8721 186.742,48.8721 188.5,49.5C 207.665,37.7063 226.999,37.5396 246.5,49C 250.98,53.811 255.813,58.311 261,62.5C 264.238,66.5325 266.738,70.8658 268.5,75.5 Z"/></g>
<g><path style="opacity:0.999" fill="#fe4768" d="M 256.5,66.5 C 256.557,67.609 256.89,68.609 257.5,69.5C 256.761,69.369 256.094,69.5357 255.5,70C 257.806,81.169 255.306,91.669 248,101.5C 241.216,107.265 234.382,113.765 227.5,121C 227.833,121.333 228.167,121.667 228.5,122C 222.279,128.093 221.279,134.927 225.5,142.5C 231.432,147.595 236.432,152.762 240.5,158C 239.66,159.666 240.16,159.833 242,158.5C 243.487,159.253 243.654,160.086 242.5,161C 246.494,161.43 247.16,162.93 244.5,165.5C 245.893,167.669 247.56,170.169 249.5,173C 248.317,175.155 248.65,177.155 250.5,179C 249.167,181 249.167,183 250.5,185C 249.551,185.617 248.718,185.451 248,184.5C 247.632,185.91 246.799,186.91 245.5,187.5C 244.904,186.284 244.737,184.951 245,183.5C 238.612,183.214 238.112,181.047 243.5,177C 242.251,175.176 241.085,175.343 240,177.5C 238.513,176.747 238.346,175.914 239.5,175C 237.729,172.887 236.229,173.053 235,175.5C 234.493,174.004 234.993,172.837 236.5,172C 235.809,170.933 235.309,169.766 235,168.5C 234,169.5 233,170.5 232,171.5C 231.667,170.833 231.333,170.167 231,169.5C 229.951,170.517 228.784,170.684 227.5,170C 227.833,169.667 228.167,169.333 228.5,169C 227.716,166.418 226.049,164.751 223.5,164C 223.833,163.667 224.167,163.333 224.5,163C 222.065,162.304 219.731,162.47 217.5,163.5C 216.667,162.5 215.833,161.5 215,160.5C 214.346,161.696 213.846,161.696 213.5,160.5C 214.833,159.833 216.167,159.167 217.5,158.5C 216.52,157.019 215.353,155.685 214,154.5C 213.692,155.308 213.192,155.975 212.5,156.5C 211.573,154.887 210.739,153.221 210,151.5C 207.933,154.014 206.433,153.848 205.5,151C 207.524,149.542 207.691,147.709 206,145.5C 205.667,146.833 205.333,148.167 205,149.5C 203.601,148.773 202.101,148.273 200.5,148C 203.849,147.911 204.349,146.744 202,144.5C 201.667,145.167 201.333,145.833 201,146.5C 199.62,143.942 198.12,143.942 196.5,146.5C 195.193,145.184 193.693,144.184 192,143.5C 192.285,141.294 192.452,139.127 192.5,137C 191.272,133.579 189.939,130.246 188.5,127C 188.833,126.667 189.167,126.333 189.5,126C 184.416,122.214 179.583,119.714 175,118.5C 169.55,119 165.217,121.334 162,125.5C 161.086,124.346 160.253,124.513 159.5,126C 160.447,128.188 160.447,130.522 159.5,133C 158.057,134.067 156.724,135.234 155.5,136.5C 155.002,135.397 154.669,134.397 154.5,133.5C 153.808,134.025 153.308,134.692 153,135.5C 151.578,135.406 150.078,135.072 148.5,134.5C 149.833,133.38 150.333,132.047 150,130.5C 147.845,131.683 145.845,131.35 144,129.5C 142.887,131.329 141.387,132.163 139.5,132C 142.028,129.925 141.861,129.092 139,129.5C 137.416,128.139 135.582,127.472 133.5,127.5C 134.027,131.955 132.527,132.621 129,129.5C 127.366,134.147 124.366,135.48 120,133.5C 117.262,134.729 114.595,136.062 112,137.5C 111.51,136.207 111.343,134.873 111.5,133.5C 108.402,133.587 108.068,133.087 110.5,132C 108.363,125.683 104.363,121.85 98.5,120.5C 98.5105,119.559 98.0105,118.892 97,118.5C 95.5478,120.825 93.8812,120.825 92,118.5C 89.5372,119.476 86.8705,120.809 84,122.5C 83.586,122.043 83.086,121.709 82.5,121.5C 81.4673,125.024 79.8007,128.191 77.5,131C 78.9255,132.714 78.5922,134.047 76.5,135C 77.9271,137.902 77.7605,141.068 76,144.5C 75.2825,145.451 74.4491,145.617 73.5,145C 75.8985,143.04 76.0652,140.874 74,138.5C 73.6905,139.766 73.1905,140.933 72.5,142C 72.8333,142.333 73.1667,142.667 73.5,143C 71.7254,144.439 69.7254,145.439 67.5,146C 68.5,146.333 69.5,146.667 70.5,147C 69.3224,147.967 67.989,148.467 66.5,148.5C 65.8555,149.732 65.6888,151.065 66,152.5C 65.0853,151.672 64.4186,150.672 64,149.5C 63.6905,150.766 63.1905,151.933 62.5,153C 62.8333,153.333 63.1667,153.667 63.5,154C 62.0039,154.507 60.8373,154.007 60,152.5C 58.7163,153.572 58.3829,154.905 59,156.5C 58.1627,154.993 56.9961,154.493 55.5,155C 54.8333,156.333 53.8333,157.333 52.5,158C 54.8776,158.974 54.5443,159.641 51.5,160C 52.8333,162.333 52.1667,163.333 49.5,163C 48.1667,162.333 48.1667,161.667 49.5,161C 49,160.833 48.5,160.667 48,160.5C 46.8319,161.509 45.6652,162.509 44.5,163.5C 43.2836,162.998 42.1169,162.665 41,162.5C 40.5172,163.448 40.3505,164.448 40.5,165.5C 36.551,165.693 36.551,166.193 40.5,167C 38.6992,167.317 38.3659,167.984 39.5,169C 37.7215,168.021 36.0548,168.354 34.5,170C 35.1667,170.333 35.8333,170.667 36.5,171C 35.2986,171.903 34.4652,173.069 34,174.5C 33.0862,173.346 32.2529,173.513 31.5,175C 32.9561,175.423 33.4561,176.256 33,177.5C 31.6012,178.227 30.1012,178.727 28.5,179C 29.5,179.333 30.5,179.667 31.5,180C 29.7738,181.53 27.7738,182.53 25.5,183C 26.8333,183.333 28.1667,183.667 29.5,184C 28.552,184.483 27.552,184.649 26.5,184.5C 26.6495,185.552 26.4828,186.552 26,187.5C 24.8808,186.448 24.3808,185.281 24.5,184C 23.451,183.508 22.451,183.674 21.5,184.5C 20.0981,184.135 19.0981,183.301 18.5,182C 19.5804,178.685 19.5804,175.685 18.5,173C 19.1667,172.667 19.8333,172.333 20.5,172C 20.6938,170.57 20.6938,169.07 20.5,167.5C 21.4289,165.362 23.0955,164.196 25.5,164C 21.8149,163.086 22.1482,162.419 26.5,162C 25.8333,161.667 25.1667,161.333 24.5,161C 30.5516,154.948 36.2183,149.282 41.5,144C 42.8333,143.667 44.1667,143.333 45.5,143C 42.8333,142 42.8333,141 45.5,140C 45.1321,137.967 45.1321,135.8 45.5,133.5C 44.2624,129.088 42.7624,124.755 41,120.5C 40.6667,120.833 40.3333,121.167 40,121.5C 38.6947,117.901 36.6947,115.567 34,114.5C 29.7095,109.708 25.2095,105.041 20.5,100.5C 12.9325,90.0186 10.2658,78.6853 12.5,66.5C 13.8014,65.36 14.9681,64.0267 16,62.5C 16.9246,63.0465 17.7579,63.7132 18.5,64.5C 16.9338,68.2712 15.6005,72.1046 14.5,76C 15.4706,77.2036 16.4706,77.7036 17.5,77.5C 13.6893,78.7376 13.6893,79.4042 17.5,79.5C 17.7035,81.3904 17.0368,82.8904 15.5,84C 17.4812,84.6054 17.8146,85.6054 16.5,87C 18.5689,87.3242 18.9023,88.1575 17.5,89.5C 18.874,93.3133 19.7074,92.9799 20,88.5C 20.7429,90.4406 20.5762,92.2739 19.5,94C 20.825,93.8516 21.9916,94.0183 23,94.5C 23.9492,91.8003 25.7825,90.967 28.5,92C 27.6637,93.2433 27.997,94.4099 29.5,95.5C 30.2838,93.4276 31.6171,91.2609 33.5,89C 33.1667,88.6667 32.8333,88.3333 32.5,88C 34.3333,88.1667 36.1667,88.3333 38,88.5C 38.3333,87.8333 38.6667,87.1667 39,86.5C 39.5691,90.3605 40.4024,90.3605 41.5,86.5C 42.3957,87.5063 43.0623,87.5063 43.5,86.5C 42.2713,85.7189 40.938,85.2189 39.5,85C 40.8333,84 40.8333,83 39.5,82C 41.524,83.2985 43.6907,84.7985 46,86.5C 48.2157,84.1713 50.7157,82.3379 53.5,81C 51.0028,78.7403 51.6695,77.407 55.5,77C 55.1667,76.6667 54.8333,76.3333 54.5,76C 55.7766,75.8726 56.9433,76.3726 58,77.5C 60.054,76.8107 61.054,75.8107 61,74.5C 61.3808,75.4818 62.2141,76.1485 63.5,76.5C 65.136,75.6961 66.636,74.6961 68,73.5C 68.3333,74.1667 68.6667,74.8333 69,75.5C 69.6368,73.6969 70.8035,72.3636 72.5,71.5C 71.8333,71.1667 71.1667,70.8333 70.5,70.5C 71,70.1667 71.5,69.8333 72,69.5C 74.6013,72.9372 77.6013,73.2705 81,70.5C 80.823,65.457 82.4896,65.1236 86,69.5C 86.3333,68.5 86.6667,67.5 87,66.5C 88.3159,69.028 89.4826,69.028 90.5,66.5C 89.1062,65.3131 89.2729,64.6465 91,64.5C 92.7297,65.6493 94.3963,65.6493 96,64.5C 96.3333,65.1667 96.6667,65.8333 97,66.5C 98.4411,65.7402 99.9411,65.0736 101.5,64.5C 100.939,66.0655 101.606,67.3989 103.5,68.5C 104.308,68.1924 104.975,67.6924 105.5,67C 103.74,66.0347 103.406,64.868 104.5,63.5C 106.777,63.9855 108.944,63.3188 111,61.5C 111.419,62.6721 112.085,63.6721 113,64.5C 114,63.1667 115,63.1667 116,64.5C 118.058,63.8905 118.891,62.8905 118.5,61.5C 120.434,61.9005 121.934,62.9005 123,64.5C 124.268,64.3842 125.602,64.0509 127,63.5C 128.57,64.614 129.903,65.9474 131,67.5C 131.193,65.5057 132.027,63.6723 133.5,62C 133.167,61.6667 132.833,61.3333 132.5,61C 134.046,62.2308 135.713,62.8974 137.5,63C 136.549,63.7175 136.383,64.5509 137,65.5C 138.957,63.879 140.791,62.879 142.5,62.5C 141.624,61.7492 140.624,61.2492 139.5,61C 142.232,60.587 144.899,59.9203 147.5,59C 148.126,58.2496 148.626,57.4162 149,56.5C 150.177,59.5302 151.843,62.1968 154,64.5C 154.75,63.8742 155.584,63.3742 156.5,63C 156.306,61.5701 156.306,60.0701 156.5,58.5C 157.862,60.012 158.196,61.512 157.5,63C 158.667,63.5 159.5,64.3333 160,65.5C 161,64.1667 162,64.1667 163,65.5C 163.535,63.7295 164.369,63.3961 165.5,64.5C 164.513,68.3673 165.013,68.3673 167,64.5C 167.918,66.2259 169.418,67.8926 171.5,69.5C 172.814,68.6872 173.981,67.6872 175,66.5C 176.333,67.1667 177.333,68.1667 178,69.5C 179,67.8333 180,66.1667 181,64.5C 181.221,67.9431 182.221,68.2764 184,65.5C 185.251,68.8163 186.918,69.1496 189,66.5C 189.448,68.2244 190.282,68.891 191.5,68.5C 191.291,69.086 190.957,69.586 190.5,70C 191.931,70.4652 193.097,71.2986 194,72.5C 195.011,71.6634 196.178,71.33 197.5,71.5C 197.939,77.7631 199.439,78.0964 202,72.5C 203.683,74.5136 205.683,76.1802 208,77.5C 208.333,76.5 208.667,75.5 209,74.5C 209.131,77.3712 210.297,79.7046 212.5,81.5C 213.478,81.0233 214.311,80.3567 215,79.5C 215.333,79.8333 215.667,80.1667 216,80.5C 217.16,78.203 218.16,78.5363 219,81.5C 220,81.5 221,81.5 222,81.5C 222.483,82.448 222.649,83.448 222.5,84.5C 224.39,84.2965 225.89,84.9632 227,86.5C 228.466,84.6751 230.299,84.1751 232.5,85C 230.747,89.3487 231.58,90.1821 235,87.5C 237.096,88.7155 236.929,89.5488 234.5,90C 235.701,90.9025 236.535,92.0692 237,93.5C 238.667,93.5 240.333,93.5 242,93.5C 242.5,94 243,94.5 243.5,95C 241.205,95.9836 241.539,96.8169 244.5,97.5C 244.998,96.3966 245.331,95.3966 245.5,94.5C 246.192,95.0253 246.692,95.6919 247,96.5C 248.626,94.0829 250.126,91.5829 251.5,89C 251.167,88 250.833,87 250.5,86C 253.742,85.7167 254.076,84.8834 251.5,83.5C 252.465,82.086 253.465,81.2526 254.5,81C 254.095,80.0546 253.428,79.3879 252.5,79C 253.167,78.6667 253.833,78.3333 254.5,78C 253.726,72.8478 252.06,68.0145 249.5,63.5C 250.664,63.8346 251.997,63.8346 253.5,63.5C 254.288,64.7701 255.288,65.7701 256.5,66.5 Z"/></g>
<g><path style="opacity:0.999" fill="#fb4164" d="M 12.5,64.5 C 12.5,65.1667 12.5,65.8333 12.5,66.5C 10.2658,78.6853 12.9325,90.0186 20.5,100.5C 25.2095,105.041 29.7095,109.708 34,114.5C 36.6947,115.567 38.6947,117.901 40,121.5C 40.3333,121.167 40.6667,120.833 41,120.5C 42.7624,124.755 44.2624,129.088 45.5,133.5C 45.1321,135.8 45.1321,137.967 45.5,140C 42.8333,141 42.8333,142 45.5,143C 44.1667,143.333 42.8333,143.667 41.5,144C 36.2183,149.282 30.5516,154.948 24.5,161C 25.1667,161.333 25.8333,161.667 26.5,162C 22.1482,162.419 21.8149,163.086 25.5,164C 23.0955,164.196 21.4289,165.362 20.5,167.5C 20.6938,169.07 20.6938,170.57 20.5,172C 19.8333,172.333 19.1667,172.667 18.5,173C 19.5804,175.685 19.5804,178.685 18.5,182C 19.0981,183.301 20.0981,184.135 21.5,184.5C 22.451,183.674 23.451,183.508 24.5,184C 24.3808,185.281 24.8808,186.448 26,187.5C 26.4828,186.552 26.6495,185.552 26.5,184.5C 27.552,184.649 28.552,184.483 29.5,184C 28.1667,183.667 26.8333,183.333 25.5,183C 27.7738,182.53 29.7738,181.53 31.5,180C 30.5,179.667 29.5,179.333 28.5,179C 30.1012,178.727 31.6012,178.227 33,177.5C 33.4561,176.256 32.9561,175.423 31.5,175C 32.2529,173.513 33.0862,173.346 34,174.5C 34.4652,173.069 35.2986,171.903 36.5,171C 35.8333,170.667 35.1667,170.333 34.5,170C 36.0548,168.354 37.7215,168.021 39.5,169C 38.3659,167.984 38.6992,167.317 40.5,167C 36.551,166.193 36.551,165.693 40.5,165.5C 40.3505,164.448 40.5172,163.448 41,162.5C 42.1169,162.665 43.2836,162.998 44.5,163.5C 45.6652,162.509 46.8319,161.509 48,160.5C 48.5,160.667 49,160.833 49.5,161C 48.1667,161.667 48.1667,162.333 49.5,163C 52.1667,163.333 52.8333,162.333 51.5,160C 54.5443,159.641 54.8776,158.974 52.5,158C 53.8333,157.333 54.8333,156.333 55.5,155C 56.9961,154.493 58.1627,154.993 59,156.5C 58.3829,154.905 58.7163,153.572 60,152.5C 60.8373,154.007 62.0039,154.507 63.5,154C 63.1667,153.667 62.8333,153.333 62.5,153C 63.1905,151.933 63.6905,150.766 64,149.5C 64.4186,150.672 65.0853,151.672 66,152.5C 65.6888,151.065 65.8555,149.732 66.5,148.5C 67.989,148.467 69.3224,147.967 70.5,147C 69.5,146.667 68.5,146.333 67.5,146C 69.7254,145.439 71.7254,144.439 73.5,143C 73.1667,142.667 72.8333,142.333 72.5,142C 73.1905,140.933 73.6905,139.766 74,138.5C 76.0652,140.874 75.8985,143.04 73.5,145C 74.4491,145.617 75.2825,145.451 76,144.5C 77.7605,141.068 77.9271,137.902 76.5,135C 78.5922,134.047 78.9255,132.714 77.5,131C 79.8007,128.191 81.4673,125.024 82.5,121.5C 83.086,121.709 83.586,122.043 84,122.5C 86.8705,120.809 89.5372,119.476 92,118.5C 93.8812,120.825 95.5478,120.825 97,118.5C 98.0105,118.892 98.5105,119.559 98.5,120.5C 104.363,121.85 108.363,125.683 110.5,132C 108.068,133.087 108.402,133.587 111.5,133.5C 111.343,134.873 111.51,136.207 112,137.5C 114.595,136.062 117.262,134.729 120,133.5C 124.366,135.48 127.366,134.147 129,129.5C 132.527,132.621 134.027,131.955 133.5,127.5C 135.582,127.472 137.416,128.139 139,129.5C 141.861,129.092 142.028,129.925 139.5,132C 141.387,132.163 142.887,131.329 144,129.5C 145.845,131.35 147.845,131.683 150,130.5C 150.333,132.047 149.833,133.38 148.5,134.5C 150.078,135.072 151.578,135.406 153,135.5C 153.308,134.692 153.808,134.025 154.5,133.5C 154.669,134.397 155.002,135.397 155.5,136.5C 156.724,135.234 158.057,134.067 159.5,133C 160.447,130.522 160.447,128.188 159.5,126C 160.253,124.513 161.086,124.346 162,125.5C 165.217,121.334 169.55,119 175,118.5C 179.583,119.714 184.416,122.214 189.5,126C 189.167,126.333 188.833,126.667 188.5,127C 189.939,130.246 191.272,133.579 192.5,137C 192.452,139.127 192.285,141.294 192,143.5C 193.693,144.184 195.193,145.184 196.5,146.5C 198.12,143.942 199.62,143.942 201,146.5C 201.333,145.833 201.667,145.167 202,144.5C 204.349,146.744 203.849,147.911 200.5,148C 202.101,148.273 203.601,148.773 205,149.5C 205.333,148.167 205.667,146.833 206,145.5C 207.691,147.709 207.524,149.542 205.5,151C 206.433,153.848 207.933,154.014 210,151.5C 210.739,153.221 211.573,154.887 212.5,156.5C 213.192,155.975 213.692,155.308 214,154.5C 215.353,155.685 216.52,157.019 217.5,158.5C 216.167,159.167 214.833,159.833 213.5,160.5C 213.846,161.696 214.346,161.696 215,160.5C 215.833,161.5 216.667,162.5 217.5,163.5C 219.731,162.47 222.065,162.304 224.5,163C 224.167,163.333 223.833,163.667 223.5,164C 226.049,164.751 227.716,166.418 228.5,169C 228.167,169.333 227.833,169.667 227.5,170C 228.784,170.684 229.951,170.517 231,169.5C 231.333,170.167 231.667,170.833 232,171.5C 233,170.5 234,169.5 235,168.5C 235.309,169.766 235.809,170.933 236.5,172C 234.993,172.837 234.493,174.004 235,175.5C 236.229,173.053 237.729,172.887 239.5,175C 238.346,175.914 238.513,176.747 240,177.5C 241.085,175.343 242.251,175.176 243.5,177C 238.112,181.047 238.612,183.214 245,183.5C 244.737,184.951 244.904,186.284 245.5,187.5C 246.799,186.91 247.632,185.91 248,184.5C 248.718,185.451 249.551,185.617 250.5,185C 249.167,183 249.167,181 250.5,179C 248.65,177.155 248.317,175.155 249.5,173C 247.56,170.169 245.893,167.669 244.5,165.5C 247.16,162.93 246.494,161.43 242.5,161C 243.654,160.086 243.487,159.253 242,158.5C 240.16,159.833 239.66,159.666 240.5,158C 236.432,152.762 231.432,147.595 225.5,142.5C 221.279,134.927 222.279,128.093 228.5,122C 228.167,121.667 227.833,121.333 227.5,121C 234.382,113.765 241.216,107.265 248,101.5C 255.306,91.669 257.806,81.169 255.5,70C 256.094,69.5357 256.761,69.369 257.5,69.5C 257.667,72.4931 258.334,75.6598 259.5,79C 256.84,94.5156 249.34,106.349 237,114.5C 232.286,120.549 229.453,127.383 228.5,135C 233.665,141.5 239.832,147.666 247,153.5C 262.012,173.971 260.012,192.971 241,210.5C 240.667,210.167 240.333,209.833 240,209.5C 238.738,211.303 237.071,212.636 235,213.5C 233.092,210.668 232.259,211.001 232.5,214.5C 228.851,213.79 225.517,213.79 222.5,214.5C 218.656,212.61 214.989,210.444 211.5,208C 211.493,206.417 211.826,204.751 212.5,203C 210.443,199.7 209.443,199.867 209.5,203.5C 207.876,203.36 206.71,204.027 206,205.5C 205.135,203.112 205.968,201.612 208.5,201C 205.539,199.686 202.872,198.019 200.5,196C 201.167,195.667 201.833,195.333 202.5,195C 200.899,194.727 199.399,194.227 198,193.5C 197.586,193.957 197.086,194.291 196.5,194.5C 196.234,191.899 196.234,189.399 196.5,187C 196,186.5 195.5,186 195,185.5C 193.859,187.609 192.359,189.442 190.5,191C 190.833,191.333 191.167,191.667 191.5,192C 190.5,192.667 189.5,192.667 188.5,192C 187.167,190.667 187.167,189.333 188.5,188C 189.738,188.077 190.738,187.911 191.5,187.5C 189.807,186.772 188.307,185.772 187,184.5C 186.667,184.833 186.333,185.167 186,185.5C 185.805,183.793 185.805,182.126 186,180.5C 183.725,184.483 182.725,184.483 183,180.5C 182.059,182.061 180.892,183.395 179.5,184.5C 176.924,183.117 177.258,182.283 180.5,182C 179.151,181.228 178.318,180.061 178,178.5C 175.89,180.838 173.723,180.671 171.5,178C 172.167,177.333 172.833,176.667 173.5,176C 171.273,173.795 169.273,173.628 167.5,175.5C 166.001,173.198 164.668,173.531 163.5,176.5C 163.167,175.833 162.833,175.167 162.5,174.5C 161.914,174.709 161.414,175.043 161,175.5C 161.077,174.262 160.911,173.262 160.5,172.5C 156.22,176.792 153.72,176.125 153,170.5C 150.725,174.483 149.725,174.483 150,170.5C 148.667,171.167 147.333,171.833 146,172.5C 143.107,173.096 140.107,173.096 137,172.5C 134.855,172.396 133.021,173.063 131.5,174.5C 130.676,172.252 129.676,172.086 128.5,174C 128.833,174.333 129.167,174.667 129.5,175C 128.552,175.483 127.552,175.649 126.5,175.5C 126.738,171.901 125.738,171.567 123.5,174.5C 122.808,173.975 122.308,173.308 122,172.5C 121.781,173.938 121.281,175.271 120.5,176.5C 120.167,176.333 119.833,176.167 119.5,176C 121.017,173.239 120.184,171.406 117,170.5C 116.333,171.167 115.667,171.833 115,172.5C 114.15,171.576 113.15,171.576 112,172.5C 111.055,172.095 110.388,171.428 110,170.5C 109.935,172.883 109.102,173.55 107.5,172.5C 106.833,173.167 106.167,173.833 105.5,174.5C 104.304,174.154 104.304,173.654 105.5,173C 104.065,173.311 102.732,173.145 101.5,172.5C 99.8693,174.059 99.036,176.059 99,178.5C 97.8869,179.711 96.7202,179.711 95.5,178.5C 94.7492,179.376 94.2492,180.376 94,181.5C 92.1429,177.62 90.8096,177.954 90,182.5C 88.3333,181.5 86.6667,180.5 85,179.5C 85.1484,180.825 84.9817,181.992 84.5,183C 86.2705,183.535 86.6039,184.369 85.5,185.5C 83.8333,184.5 82.5,183.167 81.5,181.5C 80.7379,182.628 80.0712,183.795 79.5,185C 80.9509,187.036 80.4509,188.869 78,190.5C 76.9326,189.809 75.7659,189.309 74.5,189C 75.3808,187.207 74.7142,186.54 72.5,187C 72.9574,187.414 73.2907,187.914 73.5,188.5C 72.2146,192.027 70.8812,195.027 69.5,197.5C 68.7189,196.271 68.2189,194.938 68,193.5C 67.2276,194.849 66.0609,195.682 64.5,196C 65.9389,196.991 66.9389,198.324 67.5,200C 65.6992,200.317 65.3659,200.984 66.5,202C 64.5,201.667 62.5,201.333 60.5,201C 59.7515,203.399 58.4181,205.899 56.5,208.5C 54.5,209.833 52.8333,211.5 51.5,213.5C 47.5768,214.559 43.7435,214.559 40,213.5C 39.3333,214.167 38.6667,214.833 38,215.5C 34.4434,214.119 30.9434,212.953 27.5,212C 31.5165,215.658 36.0165,217.491 41,217.5C 42.892,218.13 44.5587,219.13 46,220.5C 48.9595,220.305 51.9595,220.305 55,220.5C 55.3333,219.833 55.6667,219.167 56,218.5C 57.9269,218.239 59.9269,218.239 62,218.5C 65.339,217.418 68.339,215.752 71,213.5C 71.3333,214.167 71.6667,214.833 72,215.5C 73.6998,213.701 75.5331,213.368 77.5,214.5C 52.2677,227.564 31.101,222.897 14,200.5C 6.60391,185.408 6.93724,170.741 15,156.5C 20.6345,149.864 26.6345,143.531 33,137.5C 36.1113,130.887 35.4447,124.554 31,118.5C 23.9272,112.098 17.5939,105.098 12,97.5C 9.80324,93.4098 8.30324,89.0764 7.5,84.5C 6.17793,84.33 5.01127,84.6634 4,85.5C 2.8776,90.1016 2.3776,94.7682 2.5,99.5C 1.3485,97.2209 0.348502,94.8876 -0.5,92.5C -0.5,90.8333 -0.5,89.1667 -0.5,87.5C 1.29406,82.2132 3.46073,76.8799 6,71.5C 7.66571,68.6688 9.83238,66.3355 12.5,64.5 Z"/></g>
<g><path style="opacity:0.983" fill="#f3315e" d="M 77.5,214.5 C 80.6249,214.865 83.6249,215.698 86.5,217C 90.4233,220.753 94.09,224.586 97.5,228.5C 97.2914,229.922 96.7914,231.255 96,232.5C 95.5604,230.924 94.727,229.59 93.5,228.5C 93.7093,227.914 94.0426,227.414 94.5,227C 92.982,225.152 91.1487,223.652 89,222.5C 88.6667,222.833 88.3333,223.167 88,223.5C 86.9918,220.401 84.8251,218.401 81.5,217.5C 78.5926,218.01 75.7592,218.677 73,219.5C 72.6667,219.167 72.3333,218.833 72,218.5C 69.913,219.794 67.7463,220.961 65.5,222C 69.6273,221.264 73.7939,220.431 78,219.5C 83.1255,220.135 86.6255,222.802 88.5,227.5C 85.8916,224.678 82.7249,222.678 79,221.5C 69.9869,223.876 60.8203,225.876 51.5,227.5C 26.361,224.533 10.1944,210.866 3,186.5C 2.82669,180.984 2.32669,175.651 1.5,170.5C 3.20935,165.415 5.70935,160.748 9,156.5C 16.3811,148.617 24.2145,141.283 32.5,134.5C 24.2407,127.745 16.4074,120.411 9,112.5C 6.27391,108.381 4.10724,104.048 2.5,99.5C 2.3776,94.7682 2.8776,90.1016 4,85.5C 5.01127,84.6634 6.17793,84.33 7.5,84.5C 8.30324,89.0764 9.80324,93.4098 12,97.5C 17.5939,105.098 23.9272,112.098 31,118.5C 35.4447,124.554 36.1113,130.887 33,137.5C 26.6345,143.531 20.6345,149.864 15,156.5C 6.93724,170.741 6.60391,185.408 14,200.5C 31.101,222.897 52.2677,227.564 77.5,214.5 Z"/></g>
<g><path style="opacity:0.981" fill="#f4355f" d="M 256.5,64.5 C 264.546,71.601 268.546,80.601 268.5,91.5C 267.253,99.6611 264.086,106.994 259,113.5C 251.926,121.078 244.426,128.078 236.5,134.5C 244.426,140.922 251.926,147.922 259,155.5C 262.017,159.534 264.517,163.867 266.5,168.5C 268.27,192.939 258.27,211.105 236.5,223C 226.909,227.23 217.075,228.063 207,225.5C 205.107,224.992 203.607,223.992 202.5,222.5C 201.357,220.5 199.857,219.833 198,220.5C 195.262,219.271 192.595,217.938 190,216.5C 188.663,218.004 186.996,219.004 185,219.5C 184.667,219.167 184.333,218.833 184,218.5C 182.749,221.381 180.583,223.214 177.5,224C 175.898,225.935 174.731,228.101 174,230.5C 173.13,229.892 172.63,229.059 172.5,228C 174.07,225.941 175.403,223.774 176.5,221.5C 179.603,218.439 183.27,216.106 187.5,214.5C 186.413,212.895 187.079,212.229 189.5,212.5C 191.593,212.486 193.426,213.152 195,214.5C 196.147,213.542 197.147,213.875 198,215.5C 198.414,215.043 198.914,214.709 199.5,214.5C 200.954,216.833 202.787,217.5 205,216.5C 207.687,219.072 210.687,219.739 214,218.5C 215.309,220.891 216.309,220.891 217,218.5C 217.333,219.167 217.667,219.833 218,220.5C 218.85,219.576 219.85,219.576 221,220.5C 221.95,219.978 222.784,219.311 223.5,218.5C 224.086,218.709 224.586,219.043 225,219.5C 227.269,217.731 229.602,217.065 232,217.5C 233.728,216.648 233.895,215.648 232.5,214.5C 232.259,211.001 233.092,210.668 235,213.5C 237.071,212.636 238.738,211.303 240,209.5C 240.333,209.833 240.667,210.167 241,210.5C 260.012,192.971 262.012,173.971 247,153.5C 239.832,147.666 233.665,141.5 228.5,135C 229.453,127.383 232.286,120.549 237,114.5C 249.34,106.349 256.84,94.5156 259.5,79C 258.334,75.6598 257.667,72.4931 257.5,69.5C 256.89,68.609 256.557,67.609 256.5,66.5C 256.5,65.8333 256.5,65.1667 256.5,64.5 Z"/></g>
<g><path style="opacity:1" fill="#ffe3e8" d="M 101.5,143.5 C 96.215,150.154 90.8816,150.154 85.5,143.5C 85.334,138.156 85.5006,132.823 86,127.5C 88.4353,122.776 92.2686,121.276 97.5,123C 99.0488,124.214 100.215,125.714 101,127.5C 101.499,132.823 101.666,138.156 101.5,143.5 Z"/></g>
<g><path style="opacity:1" fill="#ffe3e8" d="M 183.5,143.5 C 178.118,150.154 172.785,150.154 167.5,143.5C 167.334,137.824 167.501,132.157 168,126.5C 171.42,122.247 175.587,121.413 180.5,124C 181.701,124.903 182.535,126.069 183,127.5C 183.499,132.823 183.666,138.156 183.5,143.5 Z"/></g>
<g><path style="opacity:1" fill="#ffd4dc" d="M 127.5,141.5 C 124.393,141.351 121.393,141.851 118.5,143C 116.789,144.133 116.289,145.633 117,147.5C 119.042,149.604 121.542,150.771 124.5,151C 131.167,151.667 137.833,151.667 144.5,151C 147.458,150.771 149.958,149.604 152,147.5C 152.711,145.633 152.211,144.133 150.5,143C 147.607,141.851 144.607,141.351 141.5,141.5C 146.625,138.227 150.791,139.227 154,144.5C 155.378,148.987 154.212,152.487 150.5,155C 139.492,159.665 128.492,159.665 117.5,155C 113.966,150.924 113.633,146.591 116.5,142C 120.191,138.969 123.858,138.802 127.5,141.5 Z"/></g>
<g><path style="opacity:1" fill="#fed3db" d="M 85.5,143.5 C 90.8816,150.154 96.215,150.154 101.5,143.5C 103.008,153.157 99.0083,157.323 89.5,156C 85.9609,152.613 84.6276,148.447 85.5,143.5 Z"/></g>
<g><path style="opacity:1" fill="#ffe7eb" d="M 127.5,141.5 C 132.167,141.5 136.833,141.5 141.5,141.5C 144.607,141.351 147.607,141.851 150.5,143C 152.211,144.133 152.711,145.633 152,147.5C 149.958,149.604 147.458,150.771 144.5,151C 137.833,151.667 131.167,151.667 124.5,151C 121.542,150.771 119.042,149.604 117,147.5C 116.289,145.633 116.789,144.133 118.5,143C 121.393,141.851 124.393,141.351 127.5,141.5 Z"/></g>
<g><path style="opacity:1" fill="#fed4db" d="M 167.5,143.5 C 172.785,150.154 178.118,150.154 183.5,143.5C 184.954,153.21 180.954,157.377 171.5,156C 167.961,152.613 166.628,148.447 167.5,143.5 Z"/></g>
<g><path style="opacity:1" fill="#eb2156" d="M 266.5,168.5 C 267.512,171.252 268.512,173.919 269.5,176.5C 269.5,182.167 269.5,187.833 269.5,193.5C 260.387,224.242 239.72,238.408 207.5,236C 199.315,234.49 192.148,230.99 186,225.5C 182.096,250.235 167.93,264.902 143.5,269.5C 137.167,269.5 130.833,269.5 124.5,269.5C 100.602,264.433 86.7688,249.766 83,225.5C 68.4413,236.788 52.2746,239.622 34.5,234C 16.1934,226.537 4.52673,213.37 -0.5,194.5C -0.5,188.5 -0.5,182.5 -0.5,176.5C 0.458201,174.698 1.12487,172.698 1.5,170.5C 2.32669,175.651 2.82669,180.984 3,186.5C 10.1944,210.866 26.361,224.533 51.5,227.5C 60.8203,225.876 69.9869,223.876 79,221.5C 82.7249,222.678 85.8916,224.678 88.5,227.5C 105.229,258.166 129.562,265.999 161.5,251C 164.427,248.618 167.261,246.118 170,243.5C 174.448,236.718 179.281,230.218 184.5,224C 190.592,222.645 196.592,222.145 202.5,222.5C 203.607,223.992 205.107,224.992 207,225.5C 217.075,228.063 226.909,227.23 236.5,223C 258.27,211.105 268.27,192.939 266.5,168.5 Z"/></g>
<g><path style="opacity:0.999" fill="#fc3f61" d="M 232.5,214.5 C 233.895,215.648 233.728,216.648 232,217.5C 229.602,217.065 227.269,217.731 225,219.5C 224.586,219.043 224.086,218.709 223.5,218.5C 222.784,219.311 221.95,219.978 221,220.5C 219.85,219.576 218.85,219.576 218,220.5C 217.667,219.833 217.333,219.167 217,218.5C 216.309,220.891 215.309,220.891 214,218.5C 210.687,219.739 207.687,219.072 205,216.5C 202.787,217.5 200.954,216.833 199.5,214.5C 198.914,214.709 198.414,215.043 198,215.5C 197.147,213.875 196.147,213.542 195,214.5C 193.426,213.152 191.593,212.486 189.5,212.5C 187.079,212.229 186.413,212.895 187.5,214.5C 183.27,216.106 179.603,218.439 176.5,221.5C 174.983,221.511 173.816,222.177 173,223.5C 169.793,231.717 164.96,238.883 158.5,245C 151.757,246.953 144.757,249.12 137.5,251.5C 133.64,251.692 129.807,251.025 126,249.5C 125.667,249.833 125.333,250.167 125,250.5C 124.492,248.096 123.325,247.429 121.5,248.5C 118.257,247.985 115.424,246.652 113,244.5C 111.251,245.299 109.918,244.632 109,242.5C 108.667,242.833 108.333,243.167 108,243.5C 107.167,241.333 105.667,239.833 103.5,239C 103.833,238.667 104.167,238.333 104.5,238C 103.5,237.167 102.5,236.333 101.5,235.5C 101.709,234.914 102.043,234.414 102.5,234C 99.887,232.893 98.2203,231.06 97.5,228.5C 94.09,224.586 90.4233,220.753 86.5,217C 83.6249,215.698 80.6249,214.865 77.5,214.5C 75.5331,213.368 73.6998,213.701 72,215.5C 71.6667,214.833 71.3333,214.167 71,213.5C 68.339,215.752 65.339,217.418 62,218.5C 59.9269,218.239 57.9269,218.239 56,218.5C 55.6667,219.167 55.3333,219.833 55,220.5C 51.9595,220.305 48.9595,220.305 46,220.5C 44.5587,219.13 42.892,218.13 41,217.5C 36.0165,217.491 31.5165,215.658 27.5,212C 30.9434,212.953 34.4434,214.119 38,215.5C 38.6667,214.833 39.3333,214.167 40,213.5C 43.7435,214.559 47.5768,214.559 51.5,213.5C 52.8333,211.5 54.5,209.833 56.5,208.5C 58.4181,205.899 59.7515,203.399 60.5,201C 62.5,201.333 64.5,201.667 66.5,202C 65.3659,200.984 65.6992,200.317 67.5,200C 66.9389,198.324 65.9389,196.991 64.5,196C 66.0609,195.682 67.2276,194.849 68,193.5C 68.2189,194.938 68.7189,196.271 69.5,197.5C 70.8812,195.027 72.2146,192.027 73.5,188.5C 73.2907,187.914 72.9574,187.414 72.5,187C 74.7142,186.54 75.3808,187.207 74.5,189C 75.7659,189.309 76.9326,189.809 78,190.5C 80.4509,188.869 80.9509,187.036 79.5,185C 80.0712,183.795 80.7379,182.628 81.5,181.5C 82.5,183.167 83.8333,184.5 85.5,185.5C 86.6039,184.369 86.2705,183.535 84.5,183C 84.9817,181.992 85.1484,180.825 85,179.5C 86.6667,180.5 88.3333,181.5 90,182.5C 90.8096,177.954 92.1429,177.62 94,181.5C 94.2492,180.376 94.7492,179.376 95.5,178.5C 96.7202,179.711 97.8869,179.711 99,178.5C 99.036,176.059 99.8693,174.059 101.5,172.5C 102.732,173.145 104.065,173.311 105.5,173C 104.304,173.654 104.304,174.154 105.5,174.5C 106.167,173.833 106.833,173.167 107.5,172.5C 109.102,173.55 109.935,172.883 110,170.5C 110.388,171.428 111.055,172.095 112,172.5C 113.15,171.576 114.15,171.576 115,172.5C 115.667,171.833 116.333,171.167 117,170.5C 120.184,171.406 121.017,173.239 119.5,176C 119.833,176.167 120.167,176.333 120.5,176.5C 121.281,175.271 121.781,173.938 122,172.5C 122.308,173.308 122.808,173.975 123.5,174.5C 125.738,171.567 126.738,171.901 126.5,175.5C 127.552,175.649 128.552,175.483 129.5,175C 129.167,174.667 128.833,174.333 128.5,174C 129.676,172.086 130.676,172.252 131.5,174.5C 133.021,173.063 134.855,172.396 137,172.5C 140.107,173.096 143.107,173.096 146,172.5C 147.333,171.833 148.667,171.167 150,170.5C 149.725,174.483 150.725,174.483 153,170.5C 153.72,176.125 156.22,176.792 160.5,172.5C 160.911,173.262 161.077,174.262 161,175.5C 161.414,175.043 161.914,174.709 162.5,174.5C 162.833,175.167 163.167,175.833 163.5,176.5C 164.668,173.531 166.001,173.198 167.5,175.5C 169.273,173.628 171.273,173.795 173.5,176C 172.833,176.667 172.167,177.333 171.5,178C 173.723,180.671 175.89,180.838 178,178.5C 178.318,180.061 179.151,181.228 180.5,182C 177.258,182.283 176.924,183.117 179.5,184.5C 180.892,183.395 182.059,182.061 183,180.5C 182.725,184.483 183.725,184.483 186,180.5C 185.805,182.126 185.805,183.793 186,185.5C 186.333,185.167 186.667,184.833 187,184.5C 188.307,185.772 189.807,186.772 191.5,187.5C 190.738,187.911 189.738,188.077 188.5,188C 187.167,189.333 187.167,190.667 188.5,192C 189.5,192.667 190.5,192.667 191.5,192C 191.167,191.667 190.833,191.333 190.5,191C 192.359,189.442 193.859,187.609 195,185.5C 195.5,186 196,186.5 196.5,187C 196.234,189.399 196.234,191.899 196.5,194.5C 197.086,194.291 197.586,193.957 198,193.5C 199.399,194.227 200.899,194.727 202.5,195C 201.833,195.333 201.167,195.667 200.5,196C 202.872,198.019 205.539,199.686 208.5,201C 205.968,201.612 205.135,203.112 206,205.5C 206.71,204.027 207.876,203.36 209.5,203.5C 209.443,199.867 210.443,199.7 212.5,203C 211.826,204.751 211.493,206.417 211.5,208C 214.989,210.444 218.656,212.61 222.5,214.5C 225.517,213.79 228.851,213.79 232.5,214.5 Z"/></g>
<g><path style="opacity:0.999" fill="#f5315b" d="M 202.5,222.5 C 196.592,222.145 190.592,222.645 184.5,224C 179.281,230.218 174.448,236.718 170,243.5C 167.261,246.118 164.427,248.618 161.5,251C 129.562,265.999 105.229,258.166 88.5,227.5C 86.6255,222.802 83.1255,220.135 78,219.5C 73.7939,220.431 69.6273,221.264 65.5,222C 67.7463,220.961 69.913,219.794 72,218.5C 72.3333,218.833 72.6667,219.167 73,219.5C 75.7592,218.677 78.5926,218.01 81.5,217.5C 84.8251,218.401 86.9918,220.401 88,223.5C 88.3333,223.167 88.6667,222.833 89,222.5C 91.1487,223.652 92.982,225.152 94.5,227C 94.0426,227.414 93.7093,227.914 93.5,228.5C 94.727,229.59 95.5604,230.924 96,232.5C 96.7914,231.255 97.2914,229.922 97.5,228.5C 98.2203,231.06 99.887,232.893 102.5,234C 102.043,234.414 101.709,234.914 101.5,235.5C 102.5,236.333 103.5,237.167 104.5,238C 104.167,238.333 103.833,238.667 103.5,239C 105.667,239.833 107.167,241.333 108,243.5C 108.333,243.167 108.667,242.833 109,242.5C 109.918,244.632 111.251,245.299 113,244.5C 115.424,246.652 118.257,247.985 121.5,248.5C 123.325,247.429 124.492,248.096 125,250.5C 125.333,250.167 125.667,249.833 126,249.5C 129.807,251.025 133.64,251.692 137.5,251.5C 144.757,249.12 151.757,246.953 158.5,245C 164.96,238.883 169.793,231.717 173,223.5C 173.816,222.177 174.983,221.511 176.5,221.5C 175.403,223.774 174.07,225.941 172.5,228C 172.63,229.059 173.13,229.892 174,230.5C 174.731,228.101 175.898,225.935 177.5,224C 180.583,223.214 182.749,221.381 184,218.5C 184.333,218.833 184.667,219.167 185,219.5C 186.996,219.004 188.663,218.004 190,216.5C 192.595,217.938 195.262,219.271 198,220.5C 199.857,219.833 201.357,220.5 202.5,222.5 Z"/></g>
</svg>
