<?xml version="1.0" encoding="UTF-8"?>
<!DOCTYPE svg PUBLIC "-//W3C//DTD SVG 1.1//EN" "http://www.w3.org/Graphics/SVG/1.1/DTD/svg11.dtd">
<svg xmlns="http://www.w3.org/2000/svg" version="1.1" width="40px" height="40px" style="shape-rendering:geometricPrecision; text-rendering:geometricPrecision; image-rendering:optimizeQuality; fill-rule:evenodd; clip-rule:evenodd" xmlns:xlink="http://www.w3.org/1999/xlink">
<g><path style="opacity:0.766" fill="#087bff" d="M 14.5,0.5 C 24.1154,-1.11417 30.6154,2.55249 34,11.5C 34.8163,20.4117 34.6497,29.245 33.5,38C 23.9223,38.8176 14.4223,38.6509 5,37.5C 4.33333,28.8333 4.33333,20.1667 5,11.5C 6.59916,6.40601 9.76582,2.73934 14.5,0.5 Z"/></g>
<g><path style="opacity:1" fill="#f6faff" d="M 29.5,8.5 C 29.6309,9.37644 29.2975,10.0431 28.5,10.5C 21.3682,13.6881 14.3682,17.0214 7.5,20.5C 7.5,17.8333 7.5,15.1667 7.5,12.5C 10.4632,3.52014 16.4632,0.686804 25.5,4C 27.3844,5.04875 28.7177,6.54875 29.5,8.5 Z"/></g>
<g><path style="opacity:1" fill="#d0e6ff" d="M 29.5,8.5 C 30.1667,8.5 30.5,8.83333 30.5,9.5C 29.0432,11.7848 27.0432,13.6181 24.5,15C 19.5268,17.4888 14.8601,20.4888 10.5,24C 9.55198,24.4828 8.55198,24.6495 7.5,24.5C 7.5,23.1667 7.5,21.8333 7.5,20.5C 14.3682,17.0214 21.3682,13.6881 28.5,10.5C 29.2975,10.0431 29.6309,9.37644 29.5,8.5 Z"/></g>
<g><path style="opacity:1" fill="#abd3ff" d="M 30.5,9.5 C 31.404,10.209 31.7373,11.209 31.5,12.5C 31.5,13.8333 31.5,15.1667 31.5,16.5C 26.3592,18.5696 21.6925,21.4029 17.5,25C 14.049,25.8952 10.7157,27.0618 7.5,28.5C 7.5,27.1667 7.5,25.8333 7.5,24.5C 8.55198,24.6495 9.55198,24.4828 10.5,24C 14.8601,20.4888 19.5268,17.4888 24.5,15C 27.0432,13.6181 29.0432,11.7848 30.5,9.5 Z"/></g>
<g><path style="opacity:1" fill="#7dbbff" d="M 31.5,16.5 C 31.5,17.5 31.5,18.5 31.5,19.5C 23.5519,23.2672 15.8852,27.6006 8.5,32.5C 7.57131,31.3112 7.23798,29.9778 7.5,28.5C 10.7157,27.0618 14.049,25.8952 17.5,25C 21.6925,21.4029 26.3592,18.5696 31.5,16.5 Z"/></g>
<g><path style="opacity:1" fill="#53a4ff" d="M 7.5,12.5 C 7.5,15.1667 7.5,17.8333 7.5,20.5C 7.5,21.8333 7.5,23.1667 7.5,24.5C 7.5,25.8333 7.5,27.1667 7.5,28.5C 7.23798,29.9778 7.57131,31.3112 8.5,32.5C 15.8852,27.6006 23.5519,23.2672 31.5,19.5C 31.8076,21.924 31.4742,24.2573 30.5,26.5C 23.5547,27.8188 17.5547,30.8188 12.5,35.5C 10.5,35.5 8.5,35.5 6.5,35.5C 6.17464,27.6484 6.50797,19.9818 7.5,12.5 Z"/></g>
<g><path style="opacity:1" fill="#278cff" d="M 31.5,12.5 C 32.8147,17.6803 32.8147,23.0136 31.5,28.5C 27.703,30.4674 24.0364,32.6341 20.5,35C 17.854,35.4974 15.1873,35.6641 12.5,35.5C 17.5547,30.8188 23.5547,27.8188 30.5,26.5C 31.4742,24.2573 31.8076,21.924 31.5,19.5C 31.5,18.5 31.5,17.5 31.5,16.5C 31.5,15.1667 31.5,13.8333 31.5,12.5 Z"/></g>
</svg>
