<?xml version="1.0" encoding="UTF-8"?>
<!DOCTYPE svg PUBLIC "-//W3C//DTD SVG 1.1//EN" "http://www.w3.org/Graphics/SVG/1.1/DTD/svg11.dtd">
<svg xmlns="http://www.w3.org/2000/svg" version="1.1" width="90px" height="90px" style="shape-rendering:geometricPrecision; text-rendering:geometricPrecision; image-rendering:optimizeQuality; fill-rule:evenodd; clip-rule:evenodd" xmlns:xlink="http://www.w3.org/1999/xlink">
<g><path style="opacity:0.986" fill="#2281e2" d="M 34.5,-0.5 C 41.1667,-0.5 47.8333,-0.5 54.5,-0.5C 72.5,4.83333 84.1667,16.5 89.5,34.5C 89.5,41.1667 89.5,47.8333 89.5,54.5C 84.1667,72.5 72.5,84.1667 54.5,89.5C 47.8333,89.5 41.1667,89.5 34.5,89.5C 16.5,84.1667 4.83333,72.5 -0.5,54.5C -0.5,47.8333 -0.5,41.1667 -0.5,34.5C 4.83333,16.5 16.5,4.83333 34.5,-0.5 Z"/></g>
<g><path style="opacity:1" fill="#fafcfe" d="M 43.5,52.5 C 41.5,51.8333 39.5,51.1667 37.5,50.5C 43.0177,40.8508 42.6843,31.3508 36.5,22C 38.7972,21.9822 41.1305,22.1489 43.5,22.5C 42.7366,18.8622 44.0699,17.3622 47.5,18C 48.2638,20.0693 48.7638,22.236 49,24.5C 52.7026,27.8675 56.036,31.5342 59,35.5C 60.703,42.4817 58.5363,47.9817 52.5,52C 51.2068,52.49 49.8734,52.6567 48.5,52.5C 48.5,54.1667 48.5,55.8333 48.5,57.5C 53.2252,58.4763 56.8918,56.9763 59.5,53C 64.0231,51.2025 68.6898,50.0359 73.5,49.5C 73.6495,50.552 73.4828,51.552 73,52.5C 68.1517,57.0477 63.6517,61.8811 59.5,67C 49.5,67.6667 39.5,67.6667 29.5,67C 22.2856,64.4203 18.619,59.2537 18.5,51.5C 23.1667,51.5 27.8333,51.5 32.5,51.5C 32.2865,53.1439 32.6198,54.6439 33.5,56C 36.6883,57.3158 40.0217,57.8158 43.5,57.5C 43.5,55.8333 43.5,54.1667 43.5,52.5 Z"/></g>
<g><path style="opacity:1" fill="#f6f9fd" d="M 33.5,27.5 C 37.9841,33.0831 38.4841,39.0831 35,45.5C 30.5868,46.6324 26.0868,46.7991 21.5,46C 25.7231,39.9504 29.7231,33.7837 33.5,27.5 Z"/></g>
<g><path style="opacity:1" fill="#b0d2f4" d="M 37.5,50.5 C 39.5,51.1667 41.5,51.8333 43.5,52.5C 41.076,52.8076 38.7427,52.4742 36.5,51.5C 36.6236,50.8933 36.9569,50.56 37.5,50.5 Z"/></g>
</svg>
