<?xml version="1.0" encoding="UTF-8"?>
<svg role="img" xmlns="http://www.w3.org/2000/svg" viewBox="0 0 512 512" width="50" height="32">
  <title>SoundCloud</title>
  <!-- Simple SoundCloud logo: cloud with a flat right edge illustrating the audio waveform -->
  <path d="M437.7 208.4c-4.7 0-9.4.3-14 .9C412.3 140 356.3 96 289.5 96c-50.5 0-97.3 28.6-119.9 72.9-2.4 4.8-.4 10.7 4.4 13.1 4.8 2.4 10.7.4 13.1-4.4 19.9-39.8 59.6-64.6 102.4-64.6 60.8 0 110.2 49.3 110.2 110.1 0 5.9-4.8 10.7-10.7 10.7h-9.8c-6.4-36.2-38-63.8-75.6-63.8-42.5 0-77.1 34.6-77.1 77.1v85.3c0 5.9 4.8 10.7 10.7 10.7h186.3c40.9 0 74.3-33.4 74.3-74.3s-33.4-74.4-74.4-74.4zM58.8 256c-5.9 0-10.7 4.8-10.7 10.7v64c0 5.9 4.8 10.7 10.7 10.7s10.7-4.8 10.7-10.7v-64c0-5.9-4.8-10.7-10.7-10.7zm32 0c-5.9 0-10.7 4.8-10.7 10.7v64c0 5.9 4.8 10.7 10.7 10.7s10.7-4.8 10.7-10.7v-64c0-5.9-4.8-10.7-10.7-10.7zm32 0c-5.9 0-10.7 4.8-10.7 10.7v64c0 5.9 4.8 10.7 10.7 10.7s10.7-4.8 10.7-10.7v-64c0-5.9-4.8-10.7-10.7-10.7zm32 0c-5.9 0-10.7 4.8-10.7 10.7v64c0 5.9 4.8 10.7 10.7 10.7s10.7-4.8 10.7-10.7v-64c0-5.9-4.8-10.7-10.7-10.7zm32 0c-5.9 0-10.7 4.8-10.7 10.7v64c0 5.9 4.8 10.7 10.7 10.7s10.7-4.8 10.7-10.7v-64c0-5.9-4.8-10.7-10.7-10.7z" fill="#FF5500"/>
</svg> 