<?xml version="1.0" encoding="UTF-8"?>
<!DOCTYPE svg PUBLIC "-//W3C//DTD SVG 1.1//EN" "http://www.w3.org/Graphics/SVG/1.1/DTD/svg11.dtd">
<svg xmlns="http://www.w3.org/2000/svg" version="1.1" width="50px" height="32px" style="shape-rendering:geometricPrecision; text-rendering:geometricPrecision; image-rendering:optimizeQuality; fill-rule:evenodd; clip-rule:evenodd" xmlns:xlink="http://www.w3.org/1999/xlink">
<g><path style="opacity:0.876" fill="#000000" d="M 7.5,-0.5 C 18.8333,-0.5 30.1667,-0.5 41.5,-0.5C 41.4142,0.495904 41.7476,1.32924 42.5,2C 44.8098,2.49665 47.1432,2.66331 49.5,2.5C 49.5,4.83333 49.5,7.16667 49.5,9.5C 28.1667,10.1667 28.1667,10.8333 49.5,11.5C 49.5,15.1667 49.5,18.8333 49.5,22.5C 46.8333,22.5 44.1667,22.5 41.5,22.5C 41.5,23.5 41.5,24.5 41.5,25.5C 30.1667,25.5 18.8333,25.5 7.5,25.5C 7.5,24.5 7.5,23.5 7.5,22.5C 4.83333,22.5 2.16667,22.5 -0.5,22.5C -0.5,19.8333 -0.5,17.1667 -0.5,14.5C 20.8333,13.8333 20.8333,13.1667 -0.5,12.5C -0.5,9.16667 -0.5,5.83333 -0.5,2.5C 1.85684,2.66331 4.19018,2.49665 6.5,2C 7.25244,1.32924 7.58577,0.495904 7.5,-0.5 Z M 16.5,3.5 C 21.5973,5.15435 26.9306,6.48768 32.5,7.5C 27.2079,8.49485 21.8746,8.82818 16.5,8.5C 16.5,6.83333 16.5,5.16667 16.5,3.5 Z M 16.5,15.5 C 21.5111,15.3341 26.5111,15.5007 31.5,16C 32.8333,17.6667 32.8333,19.3333 31.5,21C 29.5273,21.4955 27.5273,21.6621 25.5,21.5C 25.5,20.5 25.5,19.5 25.5,18.5C 22.8127,18.6641 20.146,18.4974 17.5,18C 16.7476,17.3292 16.4142,16.4959 16.5,15.5 Z"/></g>
<g><path style="opacity:0.732" fill="#000000" d="M 41.5,31.5 C 37.8333,31.5 34.1667,31.5 30.5,31.5C 30.1667,30.1667 29.8333,30.1667 29.5,31.5C 22.1667,31.5 14.8333,31.5 7.5,31.5C 7.5,29.8333 7.5,28.1667 7.5,26.5C 12.8333,26.5 18.1667,26.5 23.5,26.5C 24.1667,30.5 24.8333,30.5 25.5,26.5C 30.6871,27.051 36.0204,27.051 41.5,26.5C 41.5,28.1667 41.5,29.8333 41.5,31.5 Z"/></g>
</svg>
