<?xml version="1.0" encoding="utf-8"?>
<svg xmlns="http://www.w3.org/2000/svg" xmlns:xlink="http://www.w3.org/1999/xlink" style="margin: auto; background: none; display: block; shape-rendering: auto;" width="200px" height="200px" viewBox="0 0 100 100" preserveAspectRatio="xMidYMid">
<g transform="rotate(0 50 50)">
  <rect x="29.5" y="9.5" rx="20.5" ry="20.5" width="41" height="41" fill="#ff9ae1">
    <animate attributeName="opacity" values="1;0" keyTimes="0;1" dur="0.625s" begin="-0.546875s" repeatCount="indefinite"></animate>
  </rect>
</g><g transform="rotate(45 50 50)">
  <rect x="29.5" y="9.5" rx="20.5" ry="20.5" width="41" height="41" fill="#ff9ae1">
    <animate attributeName="opacity" values="1;0" keyTimes="0;1" dur="0.625s" begin="-0.46875s" repeatCount="indefinite"></animate>
  </rect>
</g><g transform="rotate(90 50 50)">
  <rect x="29.5" y="9.5" rx="20.5" ry="20.5" width="41" height="41" fill="#ff9ae1">
    <animate attributeName="opacity" values="1;0" keyTimes="0;1" dur="0.625s" begin="-0.390625s" repeatCount="indefinite"></animate>
  </rect>
</g><g transform="rotate(135 50 50)">
  <rect x="29.5" y="9.5" rx="20.5" ry="20.5" width="41" height="41" fill="#ff9ae1">
    <animate attributeName="opacity" values="1;0" keyTimes="0;1" dur="0.625s" begin="-0.3125s" repeatCount="indefinite"></animate>
  </rect>
</g><g transform="rotate(180 50 50)">
  <rect x="29.5" y="9.5" rx="20.5" ry="20.5" width="41" height="41" fill="#ff9ae1">
    <animate attributeName="opacity" values="1;0" keyTimes="0;1" dur="0.625s" begin="-0.234375s" repeatCount="indefinite"></animate>
  </rect>
</g><g transform="rotate(225 50 50)">
  <rect x="29.5" y="9.5" rx="20.5" ry="20.5" width="41" height="41" fill="#ff9ae1">
    <animate attributeName="opacity" values="1;0" keyTimes="0;1" dur="0.625s" begin="-0.15625s" repeatCount="indefinite"></animate>
  </rect>
</g><g transform="rotate(270 50 50)">
  <rect x="29.5" y="9.5" rx="20.5" ry="20.5" width="41" height="41" fill="#ff9ae1">
    <animate attributeName="opacity" values="1;0" keyTimes="0;1" dur="0.625s" begin="-0.078125s" repeatCount="indefinite"></animate>
  </rect>
</g><g transform="rotate(315 50 50)">
  <rect x="29.5" y="9.5" rx="20.5" ry="20.5" width="41" height="41" fill="#ff9ae1">
    <animate attributeName="opacity" values="1;0" keyTimes="0;1" dur="0.625s" begin="0s" repeatCount="indefinite"></animate>
  </rect>
</g>
<!-- [ldio] generated by https://loading.io/ --></svg>