<?xml version="1.0" encoding="UTF-8"?>
<!DOCTYPE svg PUBLIC "-//W3C//DTD SVG 1.1//EN" "http://www.w3.org/Graphics/SVG/1.1/DTD/svg11.dtd">
<svg xmlns="http://www.w3.org/2000/svg" version="1.1" width="768px" height="793px" style="shape-rendering:geometricPrecision; text-rendering:geometricPrecision; image-rendering:optimizeQuality; fill-rule:evenodd; clip-rule:evenodd" xmlns:xlink="http://www.w3.org/1999/xlink">
<g><path style="opacity:0.998" fill="#1dd65f" d="M 767.5,368.5 C 767.5,386.833 767.5,405.167 767.5,423.5C 754.832,551.066 695.498,650.233 589.5,721C 482.186,785.299 369.186,797.299 250.5,757C 141.73,714.563 65.8963,639.063 23,530.5C 10.3514,495.744 2.51809,460.077 -0.5,423.5C -0.5,404.833 -0.5,386.167 -0.5,367.5C 13.7728,231.046 79.7728,128.212 197.5,59C 304.489,3.12945 414.489,-3.53722 527.5,39C 627.753,81.5862 698.92,153.086 741,253.5C 755.382,290.686 764.216,329.019 767.5,368.5 Z"/></g>
<g><path style="opacity:1" fill="#000000" d="M 291.5,212.5 C 373.962,209.146 454.962,218.312 534.5,240C 574.882,251.696 613.216,268.029 649.5,289C 663.818,300.293 668.318,314.793 663,332.5C 655.598,350.462 642.098,358.628 622.5,357C 601.936,346.219 580.936,336.219 559.5,327C 493.624,303.095 425.624,289.762 355.5,287C 288.907,283.525 223.573,290.859 159.5,309C 141.608,310.754 128.775,303.587 121,287.5C 113.559,257.934 124.726,239.767 154.5,233C 199.58,221.327 245.246,214.493 291.5,212.5 Z"/></g>
<g><path style="opacity:1" fill="#000100" d="M 291.5,344.5 C 381.472,340.938 467.805,356.772 550.5,392C 566.642,399.569 582.309,407.903 597.5,417C 609.419,426.422 613.586,438.588 610,453.5C 603.995,469.422 592.495,476.588 575.5,475C 559.708,467.271 544.042,459.271 528.5,451C 445.495,414.954 358.828,400.954 268.5,409C 238.235,412.053 208.568,418.053 179.5,427C 153.564,426.719 142.064,413.552 145,387.5C 148.599,375.567 156.432,368.067 168.5,365C 208.83,353.361 249.83,346.527 291.5,344.5 Z"/></g>
<g><path style="opacity:1" fill="#000100" d="M 295.5,470.5 C 372.939,465.592 446.939,479.092 517.5,511C 530.321,517.241 542.654,524.241 554.5,532C 562.149,540.021 564.649,549.521 562,560.5C 556.385,573.393 546.552,578.56 532.5,576C 478.92,543.807 420.92,525.474 358.5,521C 300.986,517.587 244.319,522.921 188.5,537C 174.648,538.475 165.481,532.641 161,519.5C 157.845,500.651 165.679,489.484 184.5,486C 221.301,478.378 258.301,473.211 295.5,470.5 Z"/></g>
</svg>
