<svg id="svg" version="1.1" xmlns="http://www.w3.org/2000/svg" xmlns:xlink="http://www.w3.org/1999/xlink" width="400" height="400" viewBox="0, 0, 400,400"><g id="svgg"><path id="path0" d="M198.800 134.776 C 198.800 216.196,198.665 257.636,198.400 257.800 C 198.180 257.936,198.000 259.297,198.000 260.824 C 198.000 262.408,197.828 263.600,197.600 263.600 C 197.380 263.600,197.200 264.309,197.200 265.176 C 197.200 266.043,197.040 266.852,196.844 266.973 C 196.649 267.094,196.404 267.779,196.301 268.496 C 196.076 270.063,194.721 273.746,194.300 273.933 C 194.135 274.007,194.000 274.303,194.000 274.593 C 194.000 274.882,193.552 275.902,193.005 276.859 C 192.457 277.817,192.007 278.875,192.005 279.212 C 192.002 279.548,191.640 280.083,191.200 280.400 C 190.760 280.717,190.400 281.257,190.400 281.600 C 190.400 281.943,190.040 282.483,189.600 282.800 C 189.160 283.117,188.800 283.622,188.800 283.923 C 188.800 285.100,176.476 296.400,175.193 296.400 C 174.977 296.400,174.800 296.580,174.800 296.800 C 174.800 297.020,174.522 297.200,174.183 297.200 C 173.844 297.200,173.180 297.560,172.708 298.000 C 172.236 298.440,171.613 298.800,171.325 298.800 C 171.036 298.800,170.800 298.980,170.800 299.200 C 170.800 299.420,170.361 299.600,169.824 299.600 C 169.287 299.600,168.736 299.780,168.600 300.000 C 168.464 300.220,168.003 300.400,167.576 300.400 C 167.149 300.400,166.800 300.580,166.800 300.800 C 166.800 301.020,166.361 301.200,165.824 301.200 C 165.287 301.200,164.736 301.380,164.600 301.600 C 164.464 301.820,163.924 302.000,163.400 302.000 C 162.876 302.000,162.336 302.180,162.200 302.400 C 162.064 302.620,161.333 302.800,160.576 302.800 C 159.819 302.800,159.200 302.980,159.200 303.200 C 159.200 303.422,158.133 303.600,156.800 303.600 C 155.467 303.600,154.400 303.778,154.400 304.000 C 154.400 304.244,152.533 304.400,149.600 304.400 C 146.667 304.400,144.800 304.244,144.800 304.000 C 144.800 303.778,143.733 303.600,142.400 303.600 C 141.067 303.600,140.000 303.422,140.000 303.200 C 140.000 302.980,139.370 302.800,138.600 302.800 C 137.830 302.800,137.200 302.620,137.200 302.400 C 137.200 302.180,136.671 302.000,136.024 302.000 C 135.377 302.000,134.736 301.820,134.600 301.600 C 134.464 301.380,133.913 301.200,133.376 301.200 C 132.839 301.200,132.400 301.020,132.400 300.800 C 132.400 300.580,132.128 300.400,131.795 300.400 C 131.462 300.400,130.832 300.220,130.395 300.000 C 129.958 299.780,129.242 299.420,128.805 299.200 C 128.368 298.980,127.738 298.800,127.405 298.800 C 127.072 298.800,126.800 298.650,126.800 298.468 C 126.800 298.285,126.305 297.880,125.700 297.568 C 125.095 297.256,124.510 296.911,124.400 296.801 C 120.897 293.287,120.148 295.493,122.906 301.200 C 132.423 320.894,153.102 332.332,174.000 329.461 C 179.368 328.724,191.551 324.436,192.800 322.844 C 192.910 322.704,194.065 321.872,195.367 320.995 C 198.430 318.931,203.809 313.849,206.043 310.909 C 207.008 309.639,207.894 308.510,208.011 308.400 C 209.349 307.146,213.443 298.894,214.773 294.771 C 217.164 287.359,216.959 298.611,217.190 161.800 L 217.400 37.000 240.400 36.789 C 253.050 36.672,263.445 36.537,263.500 36.489 C 263.790 36.232,263.542 34.011,263.200 33.800 C 262.980 33.664,262.800 32.753,262.800 31.776 C 262.800 30.799,262.620 30.000,262.400 30.000 C 262.180 30.000,262.000 29.010,262.000 27.800 C 262.000 26.590,261.820 25.600,261.600 25.600 C 261.362 25.600,261.200 24.075,261.200 21.824 C 261.200 19.737,261.021 17.937,260.800 17.800 C 260.580 17.664,260.400 16.303,260.400 14.776 L 260.400 12.000 229.600 12.000 L 198.800 12.000 198.800 134.776 M287.751 76.183 C 287.605 76.565,287.988 77.612,288.678 78.717 C 289.326 79.753,290.113 81.050,290.428 81.600 C 290.742 82.150,291.102 82.690,291.226 82.800 C 291.351 82.910,292.059 83.900,292.799 85.000 C 298.526 93.505,309.879 104.151,318.713 109.300 C 321.958 111.190,330.194 115.172,332.651 116.036 C 337.267 117.661,342.618 119.191,343.700 119.195 L 344.800 119.200 344.800 107.800 L 344.800 96.400 342.424 96.400 C 341.117 96.400,339.936 96.220,339.800 96.000 C 339.660 95.773,337.663 95.600,335.176 95.600 C 332.769 95.600,330.800 95.451,330.800 95.268 C 330.800 95.086,329.765 94.896,328.500 94.846 C 327.235 94.796,326.140 94.585,326.067 94.378 C 325.993 94.170,325.239 94.000,324.390 94.000 C 323.542 94.000,322.748 93.840,322.627 93.644 C 322.506 93.449,321.821 93.192,321.104 93.074 C 318.976 92.724,315.689 91.822,315.366 91.500 C 315.202 91.335,314.557 91.200,313.933 91.200 C 313.310 91.200,312.800 91.020,312.800 90.800 C 312.800 90.580,312.440 90.400,312.000 90.400 C 311.560 90.400,311.200 90.220,311.200 90.000 C 311.200 89.780,310.660 89.600,310.000 89.600 C 309.340 89.600,308.800 89.420,308.800 89.200 C 308.800 88.980,308.530 88.800,308.200 88.800 C 307.870 88.800,307.600 88.620,307.600 88.400 C 307.600 88.180,307.240 88.000,306.800 88.000 C 306.360 88.000,306.000 87.820,306.000 87.600 C 306.000 87.380,305.640 87.200,305.200 87.200 C 304.760 87.200,304.400 87.020,304.400 86.800 C 304.400 86.580,304.080 86.400,303.688 86.400 C 303.297 86.400,302.717 86.040,302.400 85.600 C 302.083 85.160,301.503 84.800,301.112 84.800 C 300.720 84.800,300.400 84.620,300.400 84.400 C 300.400 84.180,300.080 84.000,299.688 84.000 C 299.297 84.000,298.717 83.640,298.400 83.200 C 298.083 82.760,297.591 82.400,297.308 82.400 C 297.025 82.400,296.228 81.860,295.537 81.200 C 294.846 80.540,294.104 80.000,293.888 80.000 C 293.671 80.000,293.203 79.679,292.847 79.286 C 291.187 77.455,288.006 75.518,287.751 76.183 M142.800 140.753 C 142.800 140.947,140.505 141.211,137.700 141.339 C 133.276 141.542,130.464 141.885,124.000 143.011 C 123.230 143.145,122.240 143.418,121.800 143.618 C 121.360 143.818,120.550 144.036,120.000 144.101 C 119.450 144.167,118.791 144.351,118.536 144.512 C 118.280 144.672,117.605 144.842,117.036 144.889 C 116.466 144.936,116.000 145.115,116.000 145.287 C 116.000 145.459,115.460 145.600,114.800 145.600 C 114.140 145.600,113.600 145.780,113.600 146.000 C 113.600 146.220,113.060 146.400,112.400 146.400 C 111.740 146.400,111.200 146.580,111.200 146.800 C 111.200 147.020,110.750 147.200,110.200 147.200 C 109.650 147.200,109.200 147.380,109.200 147.600 C 109.200 147.820,108.761 148.000,108.224 148.000 C 107.687 148.000,107.136 148.180,107.000 148.400 C 106.864 148.620,106.403 148.800,105.976 148.800 C 105.549 148.800,105.200 148.980,105.200 149.200 C 105.200 149.420,104.840 149.600,104.400 149.600 C 103.960 149.600,103.600 149.780,103.600 150.000 C 103.600 150.220,103.251 150.400,102.824 150.400 C 102.397 150.400,101.936 150.580,101.800 150.800 C 101.664 151.020,101.113 151.200,100.576 151.200 C 100.039 151.200,99.599 151.335,99.599 151.500 C 99.598 151.665,98.608 152.250,97.400 152.800 C 96.192 153.350,95.202 153.935,95.201 154.100 C 95.201 154.265,94.930 154.400,94.600 154.400 C 94.270 154.400,94.000 154.536,94.000 154.702 C 94.000 154.869,93.415 155.264,92.700 155.580 C 91.985 155.897,91.051 156.480,90.625 156.878 C 90.198 157.275,89.613 157.600,89.325 157.600 C 89.036 157.600,88.800 157.780,88.800 158.000 C 88.800 158.220,88.538 158.400,88.218 158.400 C 87.563 158.400,85.059 159.949,83.714 161.186 C 83.227 161.634,82.669 162.000,82.474 162.000 C 82.278 162.000,81.554 162.540,80.863 163.200 C 80.172 163.860,79.503 164.400,79.375 164.400 C 79.247 164.400,78.900 164.625,78.603 164.900 C 78.306 165.175,77.140 166.210,76.013 167.200 C 73.329 169.557,65.200 177.514,65.200 177.785 C 65.200 177.901,64.300 178.915,63.200 180.039 C 62.100 181.162,61.200 182.251,61.200 182.459 C 61.200 182.666,60.795 183.270,60.300 183.799 C 58.743 185.464,58.400 185.951,58.400 186.495 C 58.400 186.786,58.040 187.283,57.600 187.600 C 57.160 187.917,56.800 188.457,56.800 188.800 C 56.800 189.143,56.440 189.683,56.000 190.000 C 55.560 190.317,55.200 190.857,55.200 191.200 C 55.200 191.543,54.840 192.083,54.400 192.400 C 53.960 192.717,53.600 193.207,53.600 193.488 C 53.600 193.770,53.465 194.001,53.300 194.003 C 53.135 194.005,52.802 194.410,52.560 194.903 C 51.378 197.311,50.170 199.413,49.900 199.533 C 49.735 199.607,49.600 200.012,49.600 200.433 C 49.600 200.855,49.420 201.200,49.200 201.200 C 48.980 201.200,48.800 201.560,48.800 202.000 C 48.800 202.440,48.620 202.800,48.400 202.800 C 48.180 202.800,48.000 203.160,48.000 203.600 C 48.000 204.040,47.820 204.400,47.600 204.400 C 47.380 204.400,47.200 204.760,47.200 205.200 C 47.200 205.640,47.020 206.000,46.800 206.000 C 46.580 206.000,46.400 206.360,46.400 206.800 C 46.400 207.240,46.220 207.600,46.000 207.600 C 45.780 207.600,45.600 207.872,45.600 208.205 C 45.600 208.538,45.433 209.123,45.229 209.505 C 44.743 210.416,44.316 211.611,44.130 212.583 C 44.047 213.013,43.832 213.463,43.651 213.583 C 43.363 213.774,42.783 215.459,42.614 216.600 C 42.581 216.820,42.450 217.270,42.323 217.600 C 41.826 218.887,41.200 221.535,41.200 222.346 C 41.200 222.816,41.020 223.200,40.800 223.200 C 40.580 223.200,40.400 223.920,40.400 224.800 C 40.400 225.680,40.220 226.400,40.000 226.400 C 39.780 226.400,39.600 227.120,39.600 228.000 C 39.600 228.880,39.420 229.600,39.200 229.600 C 38.980 229.600,38.800 230.590,38.800 231.800 C 38.800 233.010,38.620 234.000,38.400 234.000 C 38.171 234.000,38.000 235.200,38.000 236.800 C 38.000 238.400,37.829 239.600,37.600 239.600 C 37.341 239.600,37.200 244.400,37.200 253.200 C 37.200 262.000,37.341 266.800,37.600 266.800 C 37.831 266.800,38.000 268.067,38.000 269.800 C 38.000 271.533,38.169 272.800,38.400 272.800 C 38.620 272.800,38.800 273.700,38.800 274.800 C 38.800 275.900,38.980 276.800,39.200 276.800 C 39.420 276.800,39.600 277.599,39.600 278.576 C 39.600 279.553,39.780 280.464,40.000 280.600 C 40.220 280.736,40.400 281.557,40.400 282.424 C 40.400 283.291,40.560 284.000,40.756 284.000 C 40.952 284.000,41.207 284.585,41.323 285.300 C 41.717 287.733,42.483 290.599,42.842 290.980 C 43.039 291.189,43.200 291.774,43.200 292.280 C 43.200 292.786,43.380 293.200,43.600 293.200 C 43.820 293.200,44.000 293.639,44.000 294.176 C 44.000 294.713,44.180 295.264,44.400 295.400 C 44.620 295.536,44.800 295.997,44.800 296.424 C 44.800 296.851,44.980 297.200,45.200 297.200 C 45.420 297.200,45.600 297.740,45.600 298.400 C 45.600 299.060,45.780 299.600,46.000 299.600 C 46.220 299.600,46.400 299.960,46.400 300.400 C 46.400 300.840,46.580 301.200,46.800 301.200 C 47.020 301.200,47.200 301.560,47.200 302.000 C 47.200 302.440,47.380 302.800,47.600 302.800 C 47.820 302.800,48.000 303.160,48.000 303.600 C 48.000 304.040,48.180 304.400,48.400 304.400 C 48.620 304.400,48.800 304.760,48.800 305.200 C 48.800 305.640,48.946 306.000,49.125 306.000 C 49.304 306.000,49.698 306.630,50.000 307.400 C 50.302 308.170,50.696 308.800,50.875 308.800 C 51.054 308.800,51.200 309.160,51.200 309.600 C 51.200 310.040,51.380 310.400,51.600 310.400 C 51.820 310.400,52.000 310.636,52.000 310.925 C 52.000 311.213,52.360 311.836,52.800 312.308 C 53.240 312.780,53.600 313.362,53.600 313.600 C 53.600 313.838,53.960 314.420,54.400 314.892 C 54.840 315.364,55.200 315.987,55.200 316.275 C 55.200 316.564,55.380 316.800,55.600 316.800 C 55.820 316.800,56.000 317.070,56.000 317.400 C 56.000 317.730,56.180 318.000,56.400 318.000 C 56.620 318.000,56.800 318.230,56.800 318.512 C 56.800 318.793,57.160 319.283,57.600 319.600 C 58.040 319.917,58.400 320.407,58.400 320.688 C 58.400 320.970,58.610 321.200,58.867 321.200 C 59.123 321.200,59.218 321.315,59.077 321.457 C 58.829 321.704,61.441 325.119,62.893 326.447 C 63.282 326.803,63.600 327.264,63.600 327.472 C 63.600 327.991,68.645 333.200,69.148 333.200 C 70.120 333.200,69.815 332.213,67.281 327.162 C 64.916 322.449,64.162 320.799,62.822 317.400 C 62.649 316.960,62.312 316.150,62.074 315.600 C 61.836 315.050,61.248 313.340,60.768 311.800 C 60.288 310.260,59.759 308.640,59.593 308.200 C 59.169 307.075,58.037 302.730,57.249 299.200 C 53.855 283.997,54.353 262.079,58.407 248.200 C 58.664 247.320,58.968 246.013,59.081 245.296 C 59.195 244.579,59.449 243.894,59.644 243.773 C 59.840 243.652,60.000 243.124,60.000 242.600 C 60.000 242.076,60.180 241.536,60.400 241.400 C 60.620 241.264,60.800 240.836,60.800 240.449 C 60.800 239.590,64.110 231.379,66.222 227.000 C 75.425 207.917,90.758 191.295,109.754 179.807 C 113.509 177.537,122.435 173.200,123.352 173.200 C 123.709 173.200,124.000 173.020,124.000 172.800 C 124.000 172.580,124.349 172.400,124.776 172.400 C 125.203 172.400,125.642 172.256,125.751 172.079 C 125.860 171.903,126.872 171.507,128.000 171.200 C 129.128 170.893,130.140 170.497,130.249 170.321 C 130.358 170.144,130.799 170.000,131.229 170.000 C 131.659 170.000,132.323 169.842,132.705 169.649 C 133.861 169.065,136.204 168.400,137.105 168.400 C 137.571 168.400,138.052 168.240,138.173 168.044 C 138.294 167.849,138.979 167.588,139.696 167.466 C 140.413 167.344,141.900 167.045,143.000 166.801 C 147.463 165.811,153.598 164.939,159.315 164.481 C 163.856 164.118,163.587 164.871,163.594 152.519 L 163.600 142.038 162.100 141.621 C 161.275 141.392,159.025 141.203,157.100 141.202 C 155.035 141.201,153.600 141.036,153.600 140.800 C 153.600 140.553,151.533 140.400,148.200 140.400 C 145.230 140.400,142.800 140.559,142.800 140.753 " stroke="none" fill="#04f0e8" fill-rule="evenodd"></path><path id="path1" d="M217.992 158.100 C 217.984 287.898,218.041 284.025,216.005 291.718 C 212.152 306.272,202.325 318.328,188.800 325.091 C 186.930 326.026,185.173 326.793,184.895 326.796 C 184.617 326.798,184.077 326.958,183.695 327.151 C 182.539 327.735,180.196 328.400,179.295 328.400 C 178.829 328.400,178.350 328.557,178.231 328.750 C 176.614 331.367,156.274 329.582,148.400 326.133 C 135.607 320.528,124.096 308.424,120.627 296.928 C 120.482 296.448,119.791 295.693,119.092 295.250 C 104.948 286.295,95.905 261.473,100.347 243.800 C 101.849 237.824,106.323 227.607,107.966 226.400 C 108.116 226.290,108.669 225.570,109.194 224.800 C 114.262 217.378,122.920 210.759,132.200 207.213 C 132.640 207.045,133.450 206.723,134.000 206.499 C 135.153 206.029,137.191 205.482,140.600 204.730 C 144.098 203.958,155.355 204.079,159.283 204.931 C 160.979 205.299,162.465 205.600,162.587 205.600 C 162.708 205.600,162.761 196.375,162.704 185.100 L 162.600 164.600 159.800 164.657 C 154.902 164.757,145.433 166.186,140.200 167.616 C 139.320 167.856,137.970 168.201,137.200 168.381 C 135.677 168.738,131.880 169.899,130.600 170.400 C 130.160 170.572,127.640 171.566,125.000 172.609 C 106.765 179.811,90.889 191.883,78.169 208.219 C 66.737 222.902,59.203 241.090,56.308 261.000 C 55.679 265.329,55.682 286.834,56.313 291.000 C 57.288 297.437,59.026 305.417,59.972 307.800 C 60.146 308.240,60.507 309.320,60.774 310.200 C 62.348 315.391,68.266 328.725,70.684 332.526 C 71.365 333.598,71.366 333.678,70.700 334.170 C 69.707 334.905,69.830 335.432,71.117 335.966 C 71.732 336.220,72.947 337.097,73.819 337.914 C 78.753 342.543,86.393 348.004,94.200 352.482 C 95.550 353.257,104.167 357.482,105.400 357.974 C 106.333 358.346,108.019 359.040,109.300 359.579 C 117.193 362.898,130.217 365.611,141.866 366.361 C 152.471 367.044,168.557 365.408,176.800 362.808 C 177.350 362.635,178.610 362.271,179.600 362.001 C 180.590 361.730,181.760 361.367,182.200 361.195 C 182.640 361.022,183.630 360.664,184.400 360.400 C 185.170 360.136,186.205 359.757,186.700 359.560 C 187.195 359.362,188.005 359.044,188.500 358.854 C 194.202 356.658,202.000 352.531,208.794 348.113 C 210.667 346.895,212.290 345.777,212.400 345.630 C 212.510 345.482,213.230 344.923,214.000 344.386 C 215.340 343.453,216.358 342.666,217.345 341.800 C 217.596 341.580,219.151 340.230,220.801 338.800 C 224.126 335.917,224.670 335.374,229.407 330.200 C 232.832 326.459,235.532 323.199,237.193 320.800 C 237.725 320.030,238.274 319.310,238.411 319.200 C 238.942 318.774,242.000 314.021,242.000 313.622 C 242.000 313.390,242.159 313.200,242.353 313.200 C 242.548 313.200,242.807 312.885,242.929 312.500 C 243.160 311.772,244.435 309.549,244.822 309.200 C 246.237 307.924,252.738 292.317,254.443 286.100 C 254.640 285.385,254.994 284.125,255.230 283.300 C 255.910 280.931,256.961 275.891,257.628 271.800 C 258.790 264.683,258.888 259.436,259.049 196.100 C 259.179 144.420,259.318 130.800,259.711 130.800 C 259.984 130.800,260.656 131.210,261.204 131.712 C 263.724 134.019,274.000 141.200,274.782 141.200 C 275.012 141.200,275.201 141.335,275.203 141.500 C 275.205 141.665,275.610 141.994,276.103 142.232 C 276.596 142.470,278.710 143.558,280.800 144.651 C 285.197 146.950,291.317 149.665,294.200 150.595 C 295.300 150.950,296.560 151.392,297.000 151.577 C 298.129 152.051,301.938 153.230,303.600 153.619 C 304.370 153.799,305.720 154.144,306.600 154.384 C 309.549 155.190,314.083 156.045,319.600 156.836 C 324.205 157.497,342.724 157.761,343.429 157.176 C 344.056 156.655,344.304 121.097,343.687 120.127 C 343.521 119.867,341.949 119.273,340.193 118.807 C 330.472 116.231,317.339 109.768,310.391 104.142 C 305.296 100.017,299.431 94.260,295.981 90.000 C 295.002 88.790,294.089 87.710,293.954 87.600 C 293.393 87.145,287.240 77.556,286.977 76.728 C 286.783 76.115,286.886 75.707,287.304 75.443 C 287.799 75.131,287.615 74.909,286.338 74.277 C 285.029 73.629,280.103 68.613,277.134 64.902 C 271.866 58.320,265.141 45.304,263.388 38.300 L 263.113 37.200 240.557 37.200 L 218.000 37.200 217.992 158.100 " stroke="none" fill="#040404" fill-rule="evenodd"></path><path id="path2" d="M263.600 36.948 C 263.600 39.287,268.071 49.769,271.981 56.598 C 276.620 64.700,287.200 76.241,287.200 73.200 C 287.200 72.760,287.020 72.400,286.800 72.400 C 286.580 72.400,286.400 72.040,286.400 71.600 C 286.400 71.160,286.220 70.800,286.000 70.800 C 285.780 70.800,285.600 70.260,285.600 69.600 C 285.600 68.940,285.420 68.400,285.200 68.400 C 284.980 68.400,284.800 68.040,284.800 67.600 C 284.800 67.160,284.620 66.800,284.400 66.800 C 284.180 66.800,284.000 66.260,284.000 65.600 C 284.000 64.940,283.820 64.400,283.600 64.400 C 283.380 64.400,283.200 63.860,283.200 63.200 C 283.200 62.540,283.020 62.000,282.800 62.000 C 282.580 62.000,282.400 61.561,282.400 61.024 C 282.400 60.487,282.220 59.936,282.000 59.800 C 281.780 59.664,281.600 58.933,281.600 58.176 C 281.600 57.419,281.420 56.800,281.200 56.800 C 280.980 56.800,280.800 56.080,280.800 55.200 C 280.800 54.320,280.620 53.600,280.400 53.600 C 280.180 53.600,280.000 52.790,280.000 51.800 C 280.000 50.810,279.820 50.000,279.600 50.000 C 279.378 50.000,279.200 48.941,279.200 47.624 C 279.200 46.317,279.020 45.136,278.800 45.000 C 278.575 44.861,278.400 42.929,278.400 40.576 L 278.400 36.400 271.000 36.400 C 265.002 36.400,263.600 36.504,263.600 36.948 M344.667 119.467 C 344.520 119.613,344.400 128.241,344.400 138.640 C 344.400 156.304,344.354 157.559,343.700 157.744 C 340.833 158.557,325.483 158.236,318.400 157.216 C 313.044 156.444,307.788 155.348,303.000 154.004 C 302.120 153.757,300.860 153.406,300.200 153.224 C 298.896 152.864,297.847 152.508,296.600 152.004 C 296.160 151.826,295.170 151.464,294.400 151.200 C 293.055 150.738,292.254 150.432,290.300 149.631 C 287.159 148.345,278.149 143.860,275.800 142.413 C 274.260 141.465,272.359 140.339,271.575 139.910 C 270.791 139.482,267.776 137.347,264.875 135.167 L 259.600 131.202 259.600 195.433 C 259.600 235.468,259.449 261.121,259.199 263.532 C 258.441 270.860,257.804 275.001,256.789 279.200 C 256.603 279.970,256.238 281.500,255.979 282.600 C 255.256 285.671,253.580 291.172,252.811 293.000 C 252.626 293.440,252.173 294.610,251.804 295.600 C 248.864 303.500,243.061 313.953,237.712 320.988 C 228.782 332.732,220.571 340.647,209.600 348.089 C 202.362 352.998,198.523 355.075,189.400 359.015 C 168.388 368.089,141.113 369.507,117.655 362.745 C 101.679 358.140,86.079 349.432,73.275 337.972 C 71.295 336.200,70.800 336.046,70.800 337.200 C 70.800 337.640,70.950 338.000,71.132 338.000 C 71.315 338.000,71.719 338.495,72.030 339.100 C 72.340 339.705,72.911 340.491,73.297 340.847 C 73.684 341.203,74.000 341.698,74.000 341.947 C 74.000 342.196,74.158 342.400,74.351 342.400 C 74.545 342.400,74.910 342.895,75.163 343.500 C 75.416 344.105,76.158 345.209,76.811 345.954 C 77.465 346.699,78.000 347.460,78.000 347.646 C 78.000 347.831,78.990 348.973,80.200 350.183 C 81.410 351.393,82.400 352.534,82.400 352.720 C 82.400 353.236,89.690 360.123,90.918 360.768 C 91.513 361.080,92.000 361.466,92.000 361.625 C 92.000 362.102,94.286 364.400,94.760 364.400 C 95.002 364.400,95.200 364.580,95.200 364.800 C 95.200 365.020,95.398 365.200,95.640 365.200 C 95.881 365.200,96.583 365.740,97.200 366.400 C 97.817 367.060,98.474 367.600,98.660 367.601 C 98.847 367.601,99.630 368.141,100.400 368.800 C 101.170 369.459,101.985 369.999,102.212 369.999 C 102.438 370.000,102.883 370.360,103.200 370.800 C 103.517 371.240,104.097 371.600,104.488 371.600 C 104.880 371.600,105.200 371.780,105.200 372.000 C 105.200 372.220,105.377 372.400,105.592 372.400 C 105.808 372.400,106.933 373.000,108.092 373.734 C 109.252 374.468,110.785 375.322,111.500 375.632 C 112.215 375.942,112.800 376.331,112.800 376.498 C 112.800 376.664,113.160 376.800,113.600 376.800 C 114.040 376.800,114.400 376.980,114.400 377.200 C 114.400 377.420,114.760 377.600,115.200 377.600 C 115.640 377.600,116.000 377.780,116.000 378.000 C 116.000 378.220,116.360 378.400,116.800 378.400 C 117.240 378.400,117.600 378.580,117.600 378.800 C 117.600 379.020,117.960 379.200,118.400 379.200 C 118.840 379.200,119.200 379.380,119.200 379.600 C 119.200 379.820,119.639 380.000,120.176 380.000 C 120.713 380.000,121.264 380.180,121.400 380.400 C 121.536 380.620,121.997 380.800,122.424 380.800 C 122.851 380.800,123.200 380.980,123.200 381.200 C 123.200 381.420,123.472 381.600,123.805 381.600 C 124.138 381.600,124.768 381.780,125.205 382.000 C 125.642 382.220,126.358 382.580,126.795 382.800 C 127.232 383.020,127.952 383.200,128.395 383.200 C 128.838 383.200,129.200 383.380,129.200 383.600 C 129.200 383.820,129.740 384.000,130.400 384.000 C 131.060 384.000,131.600 384.180,131.600 384.400 C 131.600 384.620,132.129 384.800,132.776 384.800 C 133.423 384.800,134.064 384.980,134.200 385.200 C 134.336 385.420,135.067 385.600,135.824 385.600 C 136.581 385.600,137.200 385.780,137.200 386.000 C 137.200 386.220,137.920 386.400,138.800 386.400 C 139.680 386.400,140.400 386.580,140.400 386.800 C 140.400 387.020,141.199 387.200,142.176 387.200 C 143.153 387.200,144.064 387.380,144.200 387.600 C 144.336 387.820,145.427 388.000,146.624 388.000 C 147.821 388.000,148.800 388.180,148.800 388.400 C 148.800 388.633,150.125 388.800,151.976 388.800 C 153.723 388.800,155.264 388.980,155.400 389.200 C 155.737 389.746,175.200 389.746,175.200 389.200 C 175.200 388.965,176.592 388.800,178.576 388.800 C 180.433 388.800,182.064 388.620,182.200 388.400 C 182.336 388.180,183.416 388.000,184.600 388.000 C 185.784 388.000,186.864 387.820,187.000 387.600 C 187.136 387.380,188.047 387.200,189.024 387.200 C 190.001 387.200,190.800 387.020,190.800 386.800 C 190.800 386.580,191.520 386.400,192.400 386.400 C 193.280 386.400,194.000 386.240,194.000 386.044 C 194.000 385.848,194.630 385.578,195.400 385.444 C 196.170 385.310,197.430 385.090,198.200 384.956 C 198.970 384.822,199.600 384.552,199.600 384.356 C 199.600 384.160,200.140 384.000,200.800 384.000 C 201.460 384.000,202.000 383.820,202.000 383.600 C 202.000 383.380,202.362 383.200,202.805 383.200 C 203.248 383.200,204.013 382.992,204.505 382.738 C 206.382 381.767,206.807 381.600,207.395 381.600 C 207.728 381.600,208.000 381.420,208.000 381.200 C 208.000 380.980,208.360 380.800,208.800 380.800 C 209.240 380.800,209.600 380.620,209.600 380.400 C 209.600 380.180,210.140 380.000,210.800 380.000 C 211.460 380.000,212.000 379.820,212.000 379.600 C 212.000 379.380,212.360 379.200,212.800 379.200 C 213.240 379.200,213.600 379.020,213.600 378.800 C 213.600 378.580,213.960 378.400,214.400 378.400 C 214.840 378.400,215.200 378.220,215.200 378.000 C 215.200 377.780,215.560 377.600,216.000 377.600 C 216.440 377.600,216.800 377.420,216.800 377.200 C 216.800 376.980,217.160 376.800,217.600 376.800 C 218.040 376.800,218.400 376.620,218.400 376.400 C 218.400 376.180,218.760 376.000,219.200 376.000 C 219.640 376.000,220.002 375.865,220.005 375.700 C 220.007 375.535,220.772 375.044,221.705 374.610 C 223.217 373.905,225.459 372.542,226.000 371.999 C 226.110 371.889,226.695 371.544,227.300 371.232 C 227.905 370.920,228.400 370.515,228.400 370.332 C 228.400 370.150,228.643 370.000,228.941 370.000 C 229.238 370.000,230.046 369.460,230.737 368.800 C 231.428 368.140,232.192 367.600,232.436 367.600 C 232.680 367.600,233.383 367.060,234.000 366.400 C 234.617 365.740,235.295 365.200,235.507 365.200 C 235.719 365.200,236.893 364.255,238.116 363.100 C 239.340 361.945,241.367 360.100,242.622 359.000 C 246.211 355.853,249.600 352.355,249.600 351.797 C 249.600 351.691,250.500 350.685,251.600 349.561 C 252.700 348.438,253.600 347.351,253.600 347.146 C 253.600 346.941,254.230 346.143,255.000 345.373 C 255.770 344.603,256.400 343.827,256.400 343.648 C 256.400 343.469,256.760 342.907,257.200 342.400 C 257.640 341.893,258.000 341.275,258.000 341.027 C 258.000 340.779,258.360 340.317,258.800 340.000 C 259.240 339.683,259.600 339.143,259.600 338.800 C 259.600 338.457,259.960 337.917,260.400 337.600 C 260.840 337.283,261.200 336.743,261.200 336.400 C 261.200 336.057,261.560 335.517,262.000 335.200 C 262.440 334.883,262.800 334.303,262.800 333.912 C 262.800 333.520,262.980 333.200,263.200 333.200 C 263.420 333.200,263.600 332.840,263.600 332.400 C 263.600 331.960,263.780 331.600,264.000 331.600 C 264.220 331.600,264.400 331.255,264.400 330.833 C 264.400 330.412,264.549 330.007,264.732 329.933 C 265.078 329.794,267.129 325.951,268.059 323.700 C 268.354 322.985,268.731 322.400,268.898 322.400 C 269.064 322.400,269.200 322.051,269.200 321.624 C 269.200 321.197,269.380 320.736,269.600 320.600 C 269.820 320.464,270.000 319.913,270.000 319.376 C 270.000 318.839,270.180 318.400,270.400 318.400 C 270.620 318.400,270.800 318.051,270.800 317.624 C 270.800 317.197,270.980 316.736,271.200 316.600 C 271.420 316.464,271.600 315.913,271.600 315.376 C 271.600 314.839,271.780 314.400,272.000 314.400 C 272.220 314.400,272.400 313.860,272.400 313.200 C 272.400 312.540,272.580 312.000,272.800 312.000 C 273.020 312.000,273.200 311.471,273.200 310.824 C 273.200 310.177,273.360 309.548,273.556 309.427 C 273.751 309.306,274.005 308.621,274.119 307.904 C 274.232 307.187,274.518 305.880,274.753 305.000 C 274.988 304.120,275.185 302.725,275.190 301.900 C 275.196 301.075,275.380 300.400,275.600 300.400 C 275.820 300.400,276.000 299.500,276.000 298.400 C 276.000 297.300,276.180 296.400,276.400 296.400 C 276.626 296.400,276.800 295.267,276.800 293.800 C 276.800 292.333,276.974 291.200,277.200 291.200 C 277.442 291.200,277.600 289.475,277.600 286.824 C 277.600 284.337,277.773 282.340,278.000 282.200 C 278.264 282.037,278.400 260.309,278.400 218.314 C 278.400 156.688,278.423 154.697,279.131 155.338 C 279.534 155.702,279.992 156.000,280.149 156.000 C 280.306 156.000,280.920 156.450,281.513 157.000 C 282.107 157.550,282.792 158.000,283.037 158.000 C 283.281 158.000,284.046 158.540,284.737 159.200 C 285.428 159.860,286.225 160.400,286.508 160.400 C 286.791 160.400,287.283 160.760,287.600 161.200 C 287.917 161.640,288.497 162.000,288.888 162.000 C 289.280 162.000,289.600 162.180,289.600 162.400 C 289.600 162.620,289.836 162.800,290.125 162.800 C 290.413 162.800,291.036 163.160,291.508 163.600 C 291.980 164.040,292.554 164.400,292.783 164.400 C 293.012 164.400,293.200 164.580,293.200 164.800 C 293.200 165.020,293.478 165.200,293.817 165.200 C 294.156 165.200,294.820 165.560,295.292 166.000 C 295.764 166.440,296.387 166.800,296.675 166.800 C 296.964 166.800,297.200 166.980,297.200 167.200 C 297.200 167.420,297.560 167.600,298.000 167.600 C 298.440 167.600,298.800 167.780,298.800 168.000 C 298.800 168.220,299.160 168.400,299.600 168.400 C 300.040 168.400,300.400 168.580,300.400 168.800 C 300.400 169.020,300.760 169.200,301.200 169.200 C 301.640 169.200,302.000 169.380,302.000 169.600 C 302.000 169.820,302.272 170.000,302.605 170.000 C 302.938 170.000,303.568 170.180,304.005 170.400 C 304.442 170.620,305.158 170.980,305.595 171.200 C 306.032 171.420,306.662 171.600,306.995 171.600 C 307.328 171.600,307.600 171.780,307.600 172.000 C 307.600 172.220,307.872 172.400,308.204 172.400 C 308.537 172.400,309.572 172.737,310.504 173.150 C 312.826 174.176,316.292 175.200,317.446 175.200 C 317.971 175.200,318.400 175.380,318.400 175.600 C 318.400 175.820,318.940 176.000,319.600 176.000 C 320.260 176.000,320.800 176.180,320.800 176.400 C 320.800 176.620,321.520 176.800,322.400 176.800 C 323.280 176.800,324.000 176.980,324.000 177.200 C 324.000 177.420,324.720 177.600,325.600 177.600 C 326.480 177.600,327.200 177.780,327.200 178.000 C 327.200 178.220,327.999 178.400,328.976 178.400 C 329.953 178.400,330.864 178.580,331.000 178.800 C 331.136 179.020,332.216 179.200,333.400 179.200 C 334.584 179.200,335.664 179.380,335.800 179.600 C 335.937 179.821,337.737 180.000,339.824 180.000 C 342.075 180.000,343.600 180.162,343.600 180.400 C 343.600 180.651,346.200 180.800,350.600 180.800 C 355.000 180.800,357.600 180.651,357.600 180.400 C 357.600 180.174,358.733 180.000,360.200 180.000 L 362.800 180.000 362.800 150.400 L 362.800 120.800 359.424 120.800 C 357.567 120.800,355.936 120.620,355.800 120.400 C 355.664 120.180,354.123 120.000,352.376 120.000 C 350.525 120.000,349.200 119.833,349.200 119.600 C 349.200 119.160,345.094 119.039,344.667 119.467 M163.423 163.485 C 163.278 163.862,163.173 173.693,163.190 185.331 L 163.220 206.492 162.110 206.190 C 158.994 205.342,156.828 205.104,150.608 204.925 C 125.756 204.210,106.234 220.317,100.338 246.400 C 99.660 249.400,99.683 261.541,100.372 264.400 C 103.467 277.234,108.363 285.789,116.768 293.048 C 119.052 295.021,119.927 295.552,120.568 295.356 C 121.695 295.010,121.711 294.983,121.267 294.139 C 121.053 293.733,120.668 292.590,120.412 291.600 C 120.156 290.610,119.778 289.247,119.573 288.572 C 119.368 287.896,119.200 286.591,119.200 285.672 C 119.200 284.752,119.020 284.000,118.800 284.000 C 118.551 284.000,118.400 281.675,118.400 277.824 C 118.400 274.137,118.561 271.548,118.800 271.400 C 119.020 271.264,119.200 270.364,119.200 269.400 C 119.200 268.436,119.380 267.536,119.600 267.400 C 119.820 267.264,120.000 266.533,120.000 265.776 C 120.000 265.019,120.180 264.400,120.400 264.400 C 120.620 264.400,120.800 263.871,120.800 263.224 C 120.800 262.577,120.980 261.936,121.200 261.800 C 121.420 261.664,121.600 261.113,121.600 260.576 C 121.600 260.039,121.780 259.600,122.000 259.600 C 122.220 259.600,122.400 259.335,122.400 259.012 C 122.400 258.228,124.296 254.111,124.801 253.799 C 125.021 253.664,125.200 253.203,125.200 252.776 C 125.200 252.349,125.380 252.000,125.600 252.000 C 125.820 252.000,126.000 251.728,126.000 251.396 C 126.000 251.064,126.540 250.228,127.200 249.537 C 127.860 248.846,128.400 248.128,128.400 247.941 C 128.400 247.754,129.120 246.859,130.000 245.952 C 130.880 245.045,131.600 244.127,131.600 243.912 C 131.600 243.697,132.136 243.044,132.792 242.460 C 134.129 241.270,134.285 241.144,136.800 239.207 C 137.790 238.444,138.690 237.714,138.800 237.584 C 138.910 237.454,139.900 236.740,141.000 235.997 C 142.100 235.254,143.060 234.501,143.133 234.323 C 143.207 234.145,143.612 234.000,144.033 234.000 C 144.455 234.000,144.800 233.820,144.800 233.600 C 144.800 233.380,145.160 233.200,145.600 233.200 C 146.040 233.200,146.400 233.020,146.400 232.800 C 146.400 232.580,146.760 232.400,147.200 232.400 C 147.640 232.400,148.000 232.220,148.000 232.000 C 148.000 231.780,148.360 231.600,148.800 231.600 C 149.240 231.600,149.600 231.420,149.600 231.200 C 149.600 230.980,150.140 230.800,150.800 230.800 C 151.460 230.800,152.000 230.620,152.000 230.400 C 152.000 230.180,152.540 230.000,153.200 230.000 C 153.860 230.000,154.400 229.820,154.400 229.600 C 154.400 229.380,155.030 229.200,155.800 229.200 C 156.570 229.200,157.200 229.020,157.200 228.800 C 157.200 228.580,158.100 228.400,159.200 228.400 C 160.300 228.400,161.200 228.220,161.200 228.000 C 161.200 227.750,163.600 227.600,167.600 227.600 C 171.600 227.600,174.000 227.750,174.000 228.000 C 174.000 228.220,174.900 228.400,176.000 228.400 C 177.100 228.400,178.000 228.580,178.000 228.800 C 178.000 229.020,178.810 229.200,179.800 229.200 L 181.600 229.200 181.600 196.400 L 181.600 163.600 180.000 163.600 C 179.120 163.600,178.400 163.420,178.400 163.200 C 178.400 162.408,163.729 162.687,163.423 163.485 " stroke="none" fill="#fb044b" fill-rule="evenodd"></path><path id="path3" d="M263.379 37.880 C 264.218 43.442,271.699 58.138,277.134 64.898 C 282.130 71.114,287.600 76.080,287.600 74.400 C 287.600 74.180,287.281 74.000,286.892 74.000 C 285.554 74.000,278.144 65.871,274.129 59.998 C 270.560 54.779,266.632 46.627,264.011 39.000 C 263.557 37.680,263.273 37.176,263.379 37.880 M344.200 119.431 C 343.939 119.541,343.839 126.020,343.912 138.045 C 343.996 151.957,343.905 156.632,343.543 157.069 C 342.970 157.759,324.795 157.583,319.600 156.837 C 314.075 156.043,309.547 155.189,306.600 154.384 C 305.720 154.144,304.370 153.799,303.600 153.619 C 301.938 153.230,298.129 152.051,297.000 151.577 C 296.560 151.392,295.300 150.950,294.200 150.595 C 291.317 149.665,285.197 146.950,280.800 144.651 C 278.710 143.558,276.596 142.470,276.103 142.232 C 275.610 141.994,275.205 141.665,275.203 141.500 C 275.201 141.335,275.012 141.200,274.782 141.200 C 274.000 141.200,263.724 134.019,261.204 131.712 C 260.656 131.210,259.984 130.800,259.711 130.800 C 259.318 130.800,259.179 144.420,259.049 196.100 C 258.888 259.436,258.790 264.683,257.628 271.800 C 256.961 275.891,255.910 280.931,255.230 283.300 C 254.994 284.125,254.640 285.385,254.443 286.100 C 252.738 292.317,246.237 307.924,244.822 309.200 C 244.435 309.549,243.160 311.772,242.929 312.500 C 242.807 312.885,242.548 313.200,242.353 313.200 C 242.159 313.200,242.000 313.390,242.000 313.622 C 242.000 314.021,238.942 318.774,238.411 319.200 C 238.274 319.310,237.725 320.030,237.193 320.800 C 235.040 323.910,229.981 329.781,224.955 335.000 C 223.870 336.127,219.354 340.136,217.255 341.835 C 216.736 342.256,216.106 342.786,215.855 343.013 C 215.605 343.240,214.770 343.862,214.000 344.394 C 213.230 344.926,212.510 345.482,212.400 345.630 C 211.597 346.707,200.461 353.315,195.000 355.955 C 191.589 357.605,190.607 358.042,188.500 358.854 C 188.005 359.044,187.195 359.362,186.700 359.560 C 186.205 359.757,185.170 360.136,184.400 360.400 C 183.630 360.664,182.640 361.022,182.200 361.195 C 181.760 361.367,180.590 361.728,179.600 361.997 C 178.610 362.265,177.440 362.634,177.000 362.815 C 175.518 363.428,177.355 363.233,179.429 362.559 C 182.687 361.498,188.120 359.567,189.400 359.015 C 194.151 356.963,196.050 356.094,197.800 355.171 C 214.108 346.568,226.015 336.369,237.712 320.988 C 243.061 313.953,248.864 303.500,251.804 295.600 C 252.173 294.610,252.626 293.440,252.811 293.000 C 253.580 291.172,255.256 285.671,255.979 282.600 C 256.238 281.500,256.603 279.970,256.789 279.200 C 257.804 275.001,258.441 270.860,259.199 263.532 C 259.449 261.121,259.600 235.468,259.600 195.433 L 259.600 131.202 264.875 135.167 C 267.776 137.347,270.791 139.482,271.575 139.910 C 272.359 140.339,274.260 141.465,275.800 142.413 C 278.149 143.860,287.159 148.345,290.300 149.631 C 292.254 150.432,293.055 150.738,294.400 151.200 C 295.170 151.464,296.160 151.826,296.600 152.004 C 297.847 152.508,298.896 152.864,300.200 153.224 C 300.860 153.406,302.120 153.757,303.000 154.004 C 307.787 155.348,313.040 156.444,318.400 157.216 C 325.784 158.281,342.455 158.555,343.941 157.636 C 344.253 157.444,344.416 151.710,344.492 138.281 C 344.552 127.786,344.600 119.214,344.600 119.231 C 344.600 119.249,344.420 119.339,344.200 119.431 M162.707 185.038 C 162.766 196.347,162.713 205.600,162.590 205.600 C 162.467 205.600,160.979 205.299,159.283 204.931 C 155.355 204.079,144.098 203.958,140.600 204.730 C 137.191 205.482,135.153 206.029,134.000 206.499 C 133.450 206.723,132.640 207.045,132.200 207.213 C 122.920 210.759,114.262 217.378,109.194 224.800 C 108.669 225.570,108.116 226.290,107.966 226.400 C 106.320 227.609,101.844 237.835,100.349 243.800 C 99.252 248.182,99.003 260.568,99.936 264.400 C 100.794 267.927,102.437 273.296,102.606 273.127 C 102.691 273.042,102.344 271.539,101.834 269.786 C 99.999 263.476,99.842 262.340,99.841 255.400 C 99.841 249.030,100.064 247.029,101.271 242.600 C 106.228 224.412,119.650 210.843,137.400 206.078 C 141.582 204.955,144.076 204.737,150.608 204.925 C 156.823 205.104,158.997 205.342,162.100 206.187 L 163.200 206.487 163.200 185.667 C 163.200 174.216,163.065 164.764,162.900 164.662 C 162.735 164.560,162.648 173.729,162.707 185.038 M102.828 273.800 C 102.828 274.020,103.086 274.650,103.400 275.200 C 103.714 275.750,103.972 276.020,103.972 275.800 C 103.972 275.580,103.714 274.950,103.400 274.400 C 103.086 273.850,102.828 273.580,102.828 273.800 M105.800 280.000 C 106.141 280.660,106.511 281.200,106.621 281.200 C 106.731 281.200,106.541 280.660,106.200 280.000 C 105.859 279.340,105.489 278.800,105.379 278.800 C 105.269 278.800,105.459 279.340,105.800 280.000 M71.398 336.487 C 71.838 336.742,72.828 337.531,73.598 338.240 C 83.540 347.393,98.648 356.333,112.065 361.004 C 114.305 361.783,116.318 362.361,116.539 362.287 C 116.761 362.213,115.425 361.662,113.571 361.063 C 111.717 360.463,109.795 359.799,109.300 359.586 C 108.251 359.136,106.539 358.428,105.400 357.974 C 96.308 354.347,79.821 344.020,74.800 338.807 C 73.580 337.540,71.524 336.000,71.069 336.012 C 70.811 336.019,70.959 336.233,71.398 336.487 M117.248 362.581 C 117.557 362.890,125.354 364.794,126.200 364.767 C 126.640 364.753,124.930 364.217,122.400 363.575 C 117.819 362.413,116.903 362.237,117.248 362.581 M173.800 363.600 L 173.000 363.944 173.800 363.944 C 174.240 363.944,174.960 363.789,175.400 363.600 L 176.200 363.256 175.400 363.256 C 174.960 363.256,174.240 363.411,173.800 363.600 M170.000 364.400 C 169.025 364.712,169.030 364.721,170.200 364.732 C 170.860 364.738,171.760 364.589,172.200 364.400 C 173.294 363.930,171.467 363.930,170.000 364.400 M128.400 365.207 C 133.979 366.501,144.353 367.368,150.600 367.061 C 158.175 366.690,168.162 365.572,168.699 365.035 C 169.066 364.668,167.889 364.753,163.896 365.383 C 154.612 366.848,142.083 366.855,132.088 365.399 C 127.696 364.759,126.114 364.677,128.400 365.207 " stroke="none" fill="#5a041c" fill-rule="evenodd"></path><path id="path4" d="M240.000 36.795 L 217.400 37.000 217.353 160.400 C 217.327 228.270,217.447 282.900,217.618 281.800 C 217.790 280.700,217.946 225.215,217.965 158.500 L 218.000 37.200 240.576 37.200 C 255.196 37.200,263.240 37.059,263.400 36.800 C 263.536 36.580,263.412 36.443,263.124 36.495 C 262.836 36.547,252.430 36.682,240.000 36.795 M286.959 75.764 C 286.661 76.540,292.437 86.299,293.965 87.600 C 294.094 87.710,295.002 88.790,295.981 90.000 C 299.431 94.260,305.296 100.017,310.391 104.142 C 315.901 108.604,334.011 118.122,335.037 117.096 C 335.155 116.978,334.295 116.571,333.126 116.191 C 330.900 115.469,321.952 111.191,318.713 109.301 C 309.866 104.138,298.554 93.531,292.796 85.000 C 292.054 83.900,291.301 82.940,291.123 82.867 C 290.945 82.793,290.800 82.574,290.800 82.380 C 290.800 82.186,290.071 80.899,289.180 79.521 C 288.038 77.753,287.627 76.747,287.788 76.107 C 288.034 75.125,287.318 74.828,286.959 75.764 M335.600 117.372 C 335.600 117.599,339.772 118.806,340.462 118.778 C 340.758 118.767,339.920 118.409,338.600 117.984 C 336.117 117.185,335.600 117.079,335.600 117.372 M87.600 197.000 C 85.961 198.650,84.710 200.000,84.820 200.000 C 84.930 200.000,86.361 198.650,88.000 197.000 C 89.639 195.350,90.890 194.000,90.780 194.000 C 90.670 194.000,89.239 195.350,87.600 197.000 M82.032 203.094 C 80.694 204.576,79.600 205.940,79.600 206.125 C 79.600 206.310,80.082 205.863,80.671 205.131 C 81.260 204.399,82.467 203.035,83.354 202.100 C 84.241 201.165,84.853 200.400,84.715 200.400 C 84.577 200.400,83.369 201.613,82.032 203.094 M77.775 208.268 C 77.159 209.076,76.859 209.611,77.109 209.456 C 77.621 209.140,79.353 206.800,79.075 206.800 C 78.976 206.800,78.391 207.461,77.775 208.268 M73.944 213.683 C 71.184 217.789,67.499 224.033,67.712 224.246 C 67.788 224.321,68.636 222.992,69.597 221.292 C 70.558 219.591,72.575 216.355,74.081 214.100 C 75.586 211.845,76.729 210.000,76.619 210.000 C 76.510 210.000,75.306 211.657,73.944 213.683 M64.458 230.794 C 63.766 232.341,63.212 233.740,63.226 233.904 C 63.240 234.067,63.872 232.867,64.631 231.238 C 65.389 229.609,65.943 228.210,65.862 228.129 C 65.781 228.048,65.149 229.248,64.458 230.794 M61.830 237.195 C 61.226 238.735,60.823 240.221,60.934 240.497 C 61.068 240.830,61.148 240.786,61.168 240.369 C 61.186 240.022,61.660 238.607,62.222 237.224 C 62.783 235.841,63.172 234.639,63.086 234.552 C 62.999 234.466,62.434 235.655,61.830 237.195 M59.354 244.177 C 59.232 244.494,59.203 245.079,59.289 245.477 C 59.387 245.928,59.524 245.712,59.654 244.900 C 59.871 243.538,59.730 243.196,59.354 244.177 M58.263 248.300 C 58.138 248.905,57.839 250.300,57.600 251.400 C 54.451 265.834,54.104 280.952,56.580 295.800 C 57.117 299.022,58.904 306.373,59.593 308.200 C 59.759 308.640,60.288 310.260,60.768 311.800 C 61.248 313.340,61.836 315.050,62.074 315.600 C 62.312 316.150,62.649 316.960,62.822 317.400 C 64.163 320.800,64.917 322.450,67.285 327.171 C 69.413 331.412,69.883 332.660,69.516 333.101 C 69.158 333.533,69.183 333.744,69.626 334.024 C 71.052 334.927,71.606 333.695,70.483 332.114 C 68.486 329.303,62.404 315.574,60.774 310.200 C 60.507 309.320,60.146 308.240,59.972 307.800 C 59.600 306.863,58.485 302.578,57.942 300.000 C 56.061 291.066,55.828 288.413,55.836 276.000 C 55.843 263.655,56.202 259.576,57.997 251.400 C 58.809 247.702,58.892 247.200,58.691 247.200 C 58.581 247.200,58.388 247.695,58.263 248.300 M216.863 285.000 C 216.823 285.660,216.704 286.920,216.597 287.800 L 216.403 289.400 216.823 288.060 C 217.054 287.323,217.174 286.063,217.089 285.260 C 216.952 283.966,216.926 283.937,216.863 285.000 M215.850 290.850 C 215.709 291.553,215.669 292.202,215.759 292.292 C 215.850 292.383,216.048 291.891,216.200 291.200 C 216.352 290.509,216.393 289.859,216.291 289.758 C 216.189 289.656,215.991 290.147,215.850 290.850 M215.029 293.829 C 214.881 294.415,214.838 294.972,214.932 295.066 C 215.027 295.160,215.224 294.758,215.371 294.171 C 215.519 293.585,215.562 293.028,215.468 292.934 C 215.373 292.840,215.176 293.242,215.029 293.829 M120.301 295.433 C 119.595 296.138,127.145 310.400,128.224 310.400 C 128.334 310.400,127.552 309.095,126.487 307.500 C 124.047 303.848,121.088 297.774,121.038 296.313 C 121.001 295.231,120.774 294.959,120.301 295.433 M213.800 297.491 C 213.406 298.541,212.652 300.300,212.125 301.400 C 211.597 302.500,211.438 303.058,211.770 302.641 C 212.500 301.725,214.926 295.992,214.686 295.752 C 214.592 295.659,214.193 296.441,213.800 297.491 M210.424 304.518 C 210.123 305.003,209.615 305.805,209.293 306.300 C 208.971 306.795,208.795 307.200,208.901 307.200 C 209.183 307.200,211.286 303.953,211.115 303.781 C 211.035 303.702,210.724 304.033,210.424 304.518 M206.433 310.358 C 205.681 311.371,205.375 311.946,205.752 311.636 C 206.571 310.961,208.147 308.803,207.944 308.635 C 207.865 308.570,207.185 309.345,206.433 310.358 M129.038 311.689 C 132.190 315.368,137.414 320.167,139.600 321.392 C 140.463 321.876,140.199 321.637,136.200 318.325 C 134.220 316.685,131.790 314.329,130.800 313.090 C 129.810 311.851,128.837 310.829,128.638 310.819 C 128.439 310.809,128.619 311.200,129.038 311.689 M202.000 315.400 C 200.361 317.050,199.110 318.400,199.220 318.400 C 199.330 318.400,200.761 317.050,202.400 315.400 C 204.039 313.750,205.290 312.400,205.180 312.400 C 205.070 312.400,203.639 313.750,202.000 315.400 M161.400 329.600 C 161.840 329.789,162.470 329.944,162.800 329.944 C 163.178 329.944,163.104 329.817,162.600 329.600 C 162.160 329.411,161.530 329.256,161.200 329.256 C 160.822 329.256,160.896 329.383,161.400 329.600 M172.400 329.600 C 171.596 329.857,171.557 329.923,172.200 329.932 C 172.640 329.938,173.360 329.789,173.800 329.600 C 174.819 329.162,173.768 329.162,172.400 329.600 " stroke="none" fill="#047c7c" fill-rule="evenodd"></path></g></svg>