<?xml version="1.0" encoding="UTF-8"?>
<!DOCTYPE svg PUBLIC "-//W3C//DTD SVG 1.1//EN" "http://www.w3.org/Graphics/SVG/1.1/DTD/svg11.dtd">
<svg xmlns="http://www.w3.org/2000/svg" version="1.1" width="256px" height="268px" style="shape-rendering:geometricPrecision; text-rendering:geometricPrecision; image-rendering:optimizeQuality; fill-rule:evenodd; clip-rule:evenodd" xmlns:xlink="http://www.w3.org/1999/xlink">
<g><path style="opacity:0.991" fill="#593e84" d="M 16.5,-0.5 C 96.1667,-0.5 175.833,-0.5 255.5,-0.5C 255.5,54.1667 255.5,108.833 255.5,163.5C 232.368,186.132 209.368,208.965 186.5,232C 168.833,232.333 151.167,232.667 133.5,233C 121.965,244.368 110.631,255.868 99.5,267.5C 87.1667,267.5 74.8333,267.5 62.5,267.5C 62.5,255.833 62.5,244.167 62.5,232.5C 41.5,232.5 20.5,232.5 -0.5,232.5C -0.5,169.5 -0.5,106.5 -0.5,43.5C 5.14677,28.9039 10.8134,14.2372 16.5,-0.5 Z M 40.5,23.5 C 104.167,23.5 167.833,23.5 231.5,23.5C 231.667,66.168 231.5,108.835 231,151.5C 217.833,164.667 204.667,177.833 191.5,191C 169.833,191.333 148.167,191.667 126.5,192C 115.667,202.833 104.833,213.667 94,224.5C 93.5002,213.505 93.3335,202.505 93.5,191.5C 75.8333,191.5 58.1667,191.5 40.5,191.5C 40.5,135.5 40.5,79.5 40.5,23.5 Z"/></g>
<g><path style="opacity:0.954" fill="#5a3d85" d="M 103.5,68.5 C 111.5,68.5 119.5,68.5 127.5,68.5C 127.5,92.1667 127.5,115.833 127.5,139.5C 119.5,139.5 111.5,139.5 103.5,139.5C 103.5,115.833 103.5,92.1667 103.5,68.5 Z"/></g>
<g><path style="opacity:0.954" fill="#593d85" d="M 167.5,68.5 C 175.5,68.5 183.5,68.5 191.5,68.5C 191.5,92.1667 191.5,115.833 191.5,139.5C 183.5,139.5 175.5,139.5 167.5,139.5C 167.5,115.833 167.5,92.1667 167.5,68.5 Z"/></g>
</svg>
