<?xml version="1.0" encoding="UTF-8"?>
<!DOCTYPE svg PUBLIC "-//W3C//DTD SVG 1.1//EN" "http://www.w3.org/Graphics/SVG/1.1/DTD/svg11.dtd">
<svg xmlns="http://www.w3.org/2000/svg" version="1.1" width="428px" height="428px" style="shape-rendering:geometricPrecision; text-rendering:geometricPrecision; image-rendering:optimizeQuality; fill-rule:evenodd; clip-rule:evenodd" xmlns:xlink="http://www.w3.org/1999/xlink">
<g><path style="opacity:0.999" fill="#4d2496" d="M 86.5,-0.5 C 171.167,-0.5 255.833,-0.5 340.5,-0.5C 346.839,0.30219 353.172,1.63552 359.5,3.5C 361.102,5.07394 363.102,5.74061 365.5,5.5C 373.709,7.60469 381.043,11.2714 387.5,16.5C 387.821,18.0481 388.821,18.7148 390.5,18.5C 395.46,21.7923 399.793,25.7923 403.5,30.5C 403.427,32.0269 404.094,33.0269 405.5,33.5C 407.587,34.5846 408.92,36.2512 409.5,38.5C 409.427,40.0269 410.094,41.0269 411.5,41.5C 412.906,41.9731 413.573,42.9731 413.5,44.5C 413.427,46.0269 414.094,47.0269 415.5,47.5C 417.293,49.4261 418.293,51.7594 418.5,54.5C 418.66,56.153 419.326,57.4863 420.5,58.5C 421.404,59.209 421.737,60.209 421.5,61.5C 421.259,63.8984 421.926,65.8984 423.5,67.5C 424.961,72.8057 426.294,78.1391 427.5,83.5C 427.5,170.167 427.5,256.833 427.5,343.5C 426.629,346.003 425.963,348.67 425.5,351.5C 423.837,353.438 423.171,355.772 423.5,358.5C 414.728,390.776 394.395,412.276 362.5,423C 355.118,424.976 347.784,426.476 340.5,427.5C 255.833,427.5 171.167,427.5 86.5,427.5C 73.4946,426.164 61.1613,422.498 49.5,416.5C 49.0269,415.094 48.0269,414.427 46.5,414.5C 45.5084,414.672 44.8417,414.338 44.5,413.5C 44.0269,412.094 43.0269,411.427 41.5,411.5C 38.4669,409.984 35.8003,407.984 33.5,405.5C 33.0269,404.094 32.0269,403.427 30.5,403.5C 18.6489,393.127 10.3155,380.46 5.5,365.5C 5.74061,363.102 5.07394,361.102 3.5,359.5C 3.88934,356.447 3.22267,353.78 1.5,351.5C 1.03718,348.67 0.370512,346.003 -0.5,343.5C -0.5,256.833 -0.5,170.167 -0.5,83.5C -0.166667,83.5 0.166667,83.5 0.5,83.5C 1.6874,80.0542 2.35407,76.3875 2.5,72.5C 2.21552,70.5853 2.54885,68.9187 3.5,67.5C 5.07394,65.8984 5.74061,63.8984 5.5,61.5C 5.26269,60.209 5.59603,59.209 6.5,58.5C 7.67373,57.4863 8.3404,56.153 8.5,54.5C 8.70732,51.7594 9.70732,49.4261 11.5,47.5C 12.9063,47.0269 13.573,46.0269 13.5,44.5C 13.427,42.9731 14.0937,41.9731 15.5,41.5C 16.9063,41.0269 17.573,40.0269 17.5,38.5C 18.0798,36.2512 19.4131,34.5846 21.5,33.5C 22.9063,33.0269 23.573,32.0269 23.5,30.5C 25.5,30.5 26.5,29.5 26.5,27.5C 29.1667,26.8333 30.8333,25.1667 31.5,22.5C 31.8417,21.6618 32.5084,21.3284 33.5,21.5C 35.7488,20.9202 37.4154,19.5869 38.5,17.5C 38.9731,16.0937 39.9731,15.427 41.5,15.5C 43.0269,15.573 44.0269,14.9063 44.5,13.5C 44.8417,12.6618 45.5084,12.3284 46.5,12.5C 48.0269,12.573 49.0269,11.9063 49.5,10.5C 50.5137,9.32627 51.847,8.6596 53.5,8.5C 56.716,8.6545 59.3826,7.6545 61.5,5.5C 63.8984,5.74061 65.8984,5.07394 67.5,3.5C 73.8275,1.63552 80.1609,0.30219 86.5,-0.5 Z M 146.5,135.5 C 147.055,139.397 148.055,143.063 149.5,146.5C 149.41,149.152 150.076,151.485 151.5,153.5C 153.054,161.387 155.054,169.054 157.5,176.5C 157.41,179.152 158.076,181.485 159.5,183.5C 161.368,192.638 163.701,201.638 166.5,210.5C 166.116,212.665 166.783,214.332 168.5,215.5C 169.452,213.955 169.785,212.288 169.5,210.5C 170.768,208.095 171.435,205.428 171.5,202.5C 172.924,200.485 173.59,198.152 173.5,195.5C 179.435,175.765 184.769,155.765 189.5,135.5C 206.073,134.871 222.406,135.538 238.5,137.5C 241.231,150.431 244.565,163.098 248.5,175.5C 248.41,178.152 249.076,180.485 250.5,182.5C 252.565,192.765 255.231,202.765 258.5,212.5C 258.369,213.376 258.702,214.043 259.5,214.5C 260.795,211.988 261.461,209.321 261.5,206.5C 262.434,205.432 262.768,204.099 262.5,202.5C 263.924,200.485 264.59,198.152 264.5,195.5C 266.946,188.054 268.946,180.387 270.5,172.5C 271.738,170.786 272.405,168.786 272.5,166.5C 273.971,162.282 274.971,157.949 275.5,153.5C 276.924,151.485 277.59,149.152 277.5,146.5C 278.945,143.063 279.945,139.397 280.5,135.5C 298.864,134.847 316.864,135.513 334.5,137.5C 334.5,137.833 334.5,138.167 334.5,138.5C 332.928,141.215 331.928,144.215 331.5,147.5C 331.5,147.833 331.5,148.167 331.5,148.5C 330.262,150.214 329.595,152.214 329.5,154.5C 329.5,154.833 329.5,155.167 329.5,155.5C 327.928,158.215 326.928,161.215 326.5,164.5C 326.5,164.833 326.5,165.167 326.5,165.5C 325.262,167.214 324.595,169.214 324.5,171.5C 324.5,171.833 324.5,172.167 324.5,172.5C 323.262,174.214 322.595,176.214 322.5,178.5C 322.5,178.833 322.5,179.167 322.5,179.5C 320.928,182.215 319.928,185.215 319.5,188.5C 319.5,188.833 319.5,189.167 319.5,189.5C 318.262,191.214 317.595,193.214 317.5,195.5C 317.5,195.833 317.5,196.167 317.5,196.5C 315.928,199.215 314.928,202.215 314.5,205.5C 314.5,205.833 314.5,206.167 314.5,206.5C 313.262,208.214 312.595,210.214 312.5,212.5C 312.5,212.833 312.5,213.167 312.5,213.5C 310.928,216.215 309.928,219.215 309.5,222.5C 309.5,222.833 309.5,223.167 309.5,223.5C 307.928,226.215 306.928,229.215 306.5,232.5C 306.5,232.833 306.5,233.167 306.5,233.5C 305.262,235.214 304.595,237.214 304.5,239.5C 304.5,239.833 304.5,240.167 304.5,240.5C 303.076,242.515 302.41,244.848 302.5,247.5C 300.928,250.215 299.928,253.215 299.5,256.5C 299.5,256.833 299.5,257.167 299.5,257.5C 298.076,259.515 297.41,261.848 297.5,264.5C 296.076,266.515 295.41,268.848 295.5,271.5C 293.928,274.215 292.928,277.215 292.5,280.5C 290.926,283.907 289.926,287.573 289.5,291.5C 288.262,293.214 287.595,295.214 287.5,297.5C 287.5,297.833 287.5,298.167 287.5,298.5C 285.928,301.215 284.928,304.215 284.5,307.5C 284.5,307.833 284.5,308.167 284.5,308.5C 268.578,309.484 252.578,309.817 236.5,309.5C 236.737,308.209 236.404,307.209 235.5,306.5C 235.634,304.708 235.301,303.042 234.5,301.5C 234.405,299.214 233.738,297.214 232.5,295.5C 232.5,295.167 232.5,294.833 232.5,294.5C 232.405,292.214 231.738,290.214 230.5,288.5C 230.5,288.167 230.5,287.833 230.5,287.5C 230.279,284.933 229.612,282.599 228.5,280.5C 228.405,278.214 227.738,276.214 226.5,274.5C 226.59,271.848 225.924,269.515 224.5,267.5C 224.634,265.708 224.301,264.042 223.5,262.5C 223.405,260.214 222.738,258.214 221.5,256.5C 221.59,253.848 220.924,251.515 219.5,249.5C 219.634,247.708 219.301,246.042 218.5,244.5C 218.072,241.215 217.072,238.215 215.5,235.5C 215.634,233.708 215.301,232.042 214.5,230.5C 213.833,227.833 213.167,227.833 212.5,230.5C 212.5,230.833 212.5,231.167 212.5,231.5C 211.262,233.214 210.595,235.214 210.5,237.5C 209.699,239.042 209.366,240.708 209.5,242.5C 208.262,244.214 207.595,246.214 207.5,248.5C 207.5,248.833 207.5,249.167 207.5,249.5C 206.262,251.214 205.595,253.214 205.5,255.5C 204.699,257.042 204.366,258.708 204.5,260.5C 203.076,262.515 202.41,264.848 202.5,267.5C 201.076,269.515 200.41,271.848 200.5,274.5C 199.076,276.515 198.41,278.848 198.5,281.5C 197.262,283.214 196.595,285.214 196.5,287.5C 195.699,289.042 195.366,290.708 195.5,292.5C 194.076,294.515 193.41,296.848 193.5,299.5C 192.076,301.515 191.41,303.848 191.5,306.5C 190.596,307.209 190.263,308.209 190.5,309.5C 174.422,309.817 158.422,309.484 142.5,308.5C 142.59,305.848 141.924,303.515 140.5,301.5C 140.074,297.573 139.074,293.907 137.5,290.5C 137.405,288.214 136.738,286.214 135.5,284.5C 135.5,284.167 135.5,283.833 135.5,283.5C 135.072,280.215 134.072,277.215 132.5,274.5C 132.59,271.848 131.924,269.515 130.5,267.5C 130.277,263.838 129.277,260.505 127.5,257.5C 127.59,254.848 126.924,252.515 125.5,250.5C 125.5,250.167 125.5,249.833 125.5,249.5C 125.072,246.215 124.072,243.215 122.5,240.5C 122.59,237.848 121.924,235.515 120.5,233.5C 120.277,229.838 119.277,226.505 117.5,223.5C 117.59,220.848 116.924,218.515 115.5,216.5C 115.5,216.167 115.5,215.833 115.5,215.5C 115.072,212.215 114.072,209.215 112.5,206.5C 112.5,206.167 112.5,205.833 112.5,205.5C 112.405,203.214 111.738,201.214 110.5,199.5C 110.5,199.167 110.5,198.833 110.5,198.5C 110.405,196.214 109.738,194.214 108.5,192.5C 108.768,190.901 108.434,189.568 107.5,188.5C 107.405,186.214 106.738,184.214 105.5,182.5C 105.5,182.167 105.5,181.833 105.5,181.5C 105.072,178.215 104.072,175.215 102.5,172.5C 102.59,169.848 101.924,167.515 100.5,165.5C 100.5,165.167 100.5,164.833 100.5,164.5C 100.072,161.215 99.0719,158.215 97.5,155.5C 97.5905,152.848 96.9238,150.515 95.5,148.5C 95.5,148.167 95.5,147.833 95.5,147.5C 95.0719,144.215 94.0719,141.215 92.5,138.5C 92.5,138.167 92.5,137.833 92.5,137.5C 110.136,135.513 128.136,134.847 146.5,135.5 Z"/></g>
<g><path style="opacity:0.616" fill="#af9cce" d="M 67.5,3.5 C 65.8984,5.07394 63.8984,5.74061 61.5,5.5C 63.2143,4.26162 65.2143,3.59495 67.5,3.5 Z"/></g>
<g><path style="opacity:0.424" fill="#b8a7d4" d="M 359.5,3.5 C 361.786,3.59495 363.786,4.26162 365.5,5.5C 363.102,5.74061 361.102,5.07394 359.5,3.5 Z"/></g>
<g><path style="opacity:0.78" fill="#9b80c2" d="M 61.5,5.5 C 59.3826,7.6545 56.716,8.6545 53.5,8.5C 55.936,7.12904 58.6027,6.12904 61.5,5.5 Z"/></g>
<g><path style="opacity:0.624" fill="#a58fc9" d="M 49.5,10.5 C 49.0269,11.9063 48.0269,12.573 46.5,12.5C 46.9731,11.0937 47.9731,10.427 49.5,10.5 Z"/></g>
<g><path style="opacity:0.655" fill="#9c84c4" d="M 44.5,13.5 C 44.0269,14.9063 43.0269,15.573 41.5,15.5C 41.9731,14.0937 42.9731,13.427 44.5,13.5 Z"/></g>
<g><path style="opacity:0.741" fill="#a188c6" d="M 387.5,16.5 C 388.71,16.9321 389.71,17.5987 390.5,18.5C 388.821,18.7148 387.821,18.0481 387.5,16.5 Z"/></g>
<g><path style="opacity:0.788" fill="#886ab7" d="M 38.5,17.5 C 37.4154,19.5869 35.7488,20.9202 33.5,21.5C 34.5846,19.4131 36.2512,18.0798 38.5,17.5 Z"/></g>
<g><path style="opacity:0.631" fill="#9d84c4" d="M 31.5,22.5 C 30.8333,25.1667 29.1667,26.8333 26.5,27.5C 27.8333,25.5 29.5,23.8333 31.5,22.5 Z"/></g>
<g><path style="opacity:0.624" fill="#a38cc8" d="M 26.5,27.5 C 26.5,29.5 25.5,30.5 23.5,30.5C 24.1667,29.1667 25.1667,28.1667 26.5,27.5 Z"/></g>
<g><path style="opacity:0.631" fill="#aa95cc" d="M 23.5,30.5 C 23.573,32.0269 22.9063,33.0269 21.5,33.5C 21.427,31.9731 22.0937,30.9731 23.5,30.5 Z"/></g>
<g><path style="opacity:0.631" fill="#aa95cc" d="M 403.5,30.5 C 404.906,30.9731 405.573,31.9731 405.5,33.5C 404.094,33.0269 403.427,32.0269 403.5,30.5 Z"/></g>
<g><path style="opacity:0.529" fill="#9d84c4" d="M 17.5,38.5 C 17.573,40.0269 16.9063,41.0269 15.5,41.5C 15.427,39.9731 16.0937,38.9731 17.5,38.5 Z"/></g>
<g><path style="opacity:0.529" fill="#9d84c4" d="M 409.5,38.5 C 410.906,38.9731 411.573,39.9731 411.5,41.5C 410.094,41.0269 409.427,40.0269 409.5,38.5 Z"/></g>
<g><path style="opacity:0.282" fill="#c0b3d9" d="M 13.5,44.5 C 13.573,46.0269 12.9063,47.0269 11.5,47.5C 11.427,45.9731 12.0937,44.9731 13.5,44.5 Z"/></g>
<g><path style="opacity:0.282" fill="#c0b3d9" d="M 413.5,44.5 C 414.906,44.9731 415.573,45.9731 415.5,47.5C 414.094,47.0269 413.427,46.0269 413.5,44.5 Z"/></g>
<g><path style="opacity:0.071" fill="#cec3e0" d="M 8.5,54.5 C 8.3404,56.153 7.67373,57.4863 6.5,58.5C 6.22911,56.6203 6.89578,55.287 8.5,54.5 Z"/></g>
<g><path style="opacity:0.071" fill="#cec3e0" d="M 418.5,54.5 C 420.104,55.287 420.771,56.6203 420.5,58.5C 419.326,57.4863 418.66,56.153 418.5,54.5 Z"/></g>
<g><path style="opacity:0.647" fill="#a792ca" d="M 5.5,61.5 C 5.74061,63.8984 5.07394,65.8984 3.5,67.5C 3.59495,65.2143 4.26162,63.2143 5.5,61.5 Z"/></g>
<g><path style="opacity:0.647" fill="#a792ca" d="M 421.5,61.5 C 422.738,63.2143 423.405,65.2143 423.5,67.5C 421.926,65.8984 421.259,63.8984 421.5,61.5 Z"/></g>
<g><path style="opacity:0.067" fill="#c8bbdd" d="M 2.5,72.5 C 2.35407,76.3875 1.6874,80.0542 0.5,83.5C 0.251076,79.5422 0.917743,75.8756 2.5,72.5 Z"/></g>
<g><path style="opacity:0.666" fill="#9881c2" d="M 146.5,135.5 C 128.136,134.847 110.136,135.513 92.5,137.5C 91.596,136.791 91.2627,135.791 91.5,134.5C 110.008,134.17 128.341,134.503 146.5,135.5 Z"/></g>
<g><path style="opacity:0.666" fill="#9983c3" d="M 189.5,135.5 C 205.658,134.504 221.991,134.17 238.5,134.5C 238.5,135.5 238.5,136.5 238.5,137.5C 222.406,135.538 206.073,134.871 189.5,135.5 Z"/></g>
<g><path style="opacity:0.666" fill="#9881c2" d="M 280.5,135.5 C 298.659,134.503 316.992,134.17 335.5,134.5C 335.737,135.791 335.404,136.791 334.5,137.5C 316.864,135.513 298.864,134.847 280.5,135.5 Z"/></g>
<g><path style="opacity:0.937" fill="#b4a1d3" d="M 92.5,138.5 C 94.0719,141.215 95.0719,144.215 95.5,147.5C 93.5275,144.916 92.5275,141.916 92.5,138.5 Z"/></g>
<g><path style="opacity:0.937" fill="#b3a0d3" d="M 334.5,138.5 C 334.472,141.916 333.472,144.916 331.5,147.5C 331.928,144.215 332.928,141.215 334.5,138.5 Z"/></g>
<g><path style="opacity:0.012" fill="#d5cae6" d="M 149.5,146.5 C 150.924,148.515 151.59,150.848 151.5,153.5C 150.076,151.485 149.41,149.152 149.5,146.5 Z"/></g>
<g><path style="opacity:0.012" fill="#d4cae6" d="M 277.5,146.5 C 277.59,149.152 276.924,151.485 275.5,153.5C 275.41,150.848 276.076,148.515 277.5,146.5 Z"/></g>
<g><path style="opacity:0.894" fill="#af9ad0" d="M 95.5,148.5 C 96.9238,150.515 97.5905,152.848 97.5,155.5C 96.0762,153.485 95.4095,151.152 95.5,148.5 Z"/></g>
<g><path style="opacity:0.882" fill="#b5a2d3" d="M 331.5,148.5 C 331.741,150.898 331.074,152.898 329.5,154.5C 329.595,152.214 330.262,150.214 331.5,148.5 Z"/></g>
<g><path style="opacity:0.945" fill="#b4a0d3" d="M 97.5,155.5 C 99.0719,158.215 100.072,161.215 100.5,164.5C 98.5275,161.916 97.5275,158.916 97.5,155.5 Z"/></g>
<g><path style="opacity:0.925" fill="#b4a2d3" d="M 329.5,155.5 C 329.472,158.916 328.472,161.916 326.5,164.5C 326.928,161.215 327.928,158.215 329.5,155.5 Z"/></g>
<g><path style="opacity:0.894" fill="#ae99d0" d="M 100.5,165.5 C 101.924,167.515 102.59,169.848 102.5,172.5C 101.076,170.485 100.41,168.152 100.5,165.5 Z"/></g>
<g><path style="opacity:0.882" fill="#b5a3d3" d="M 326.5,165.5 C 326.741,167.898 326.074,169.898 324.5,171.5C 324.595,169.214 325.262,167.214 326.5,165.5 Z"/></g>
<g><path style="opacity:0.518" fill="#c8badf" d="M 272.5,166.5 C 272.405,168.786 271.738,170.786 270.5,172.5C 270.259,170.102 270.926,168.102 272.5,166.5 Z"/></g>
<g><path style="opacity:0.945" fill="#b3a0d3" d="M 102.5,172.5 C 104.072,175.215 105.072,178.215 105.5,181.5C 103.528,178.916 102.528,175.916 102.5,172.5 Z"/></g>
<g><path style="opacity:0.925" fill="#ae9acf" d="M 324.5,172.5 C 324.741,174.898 324.074,176.898 322.5,178.5C 322.595,176.214 323.262,174.214 324.5,172.5 Z"/></g>
<g><path style="opacity:0.012" fill="#d7cde8" d="M 248.5,175.5 C 249.924,177.515 250.59,179.848 250.5,182.5C 249.076,180.485 248.41,178.152 248.5,175.5 Z"/></g>
<g><path style="opacity:0.012" fill="#d5cae6" d="M 157.5,176.5 C 158.924,178.515 159.59,180.848 159.5,183.5C 158.076,181.485 157.41,179.152 157.5,176.5 Z"/></g>
<g><path style="opacity:0.969" fill="#af9ad0" d="M 322.5,179.5 C 322.472,182.916 321.472,185.916 319.5,188.5C 319.928,185.215 320.928,182.215 322.5,179.5 Z"/></g>
<g><path style="opacity:0.902" fill="#b3a0d2" d="M 105.5,182.5 C 106.738,184.214 107.405,186.214 107.5,188.5C 105.926,186.898 105.259,184.898 105.5,182.5 Z"/></g>
<g><path style="opacity:0.914" fill="#af9bd0" d="M 319.5,189.5 C 319.741,191.898 319.074,193.898 317.5,195.5C 317.595,193.214 318.262,191.214 319.5,189.5 Z"/></g>
<g><path style="opacity:0.839" fill="#bbaad7" d="M 108.5,192.5 C 109.738,194.214 110.405,196.214 110.5,198.5C 108.926,196.898 108.259,194.898 108.5,192.5 Z"/></g>
<g><path style="opacity:0.012" fill="#d5cbe7" d="M 173.5,195.5 C 173.59,198.152 172.924,200.485 171.5,202.5C 171.41,199.848 172.076,197.515 173.5,195.5 Z"/></g>
<g><path style="opacity:0.012" fill="#d9cfe9" d="M 264.5,195.5 C 264.59,198.152 263.924,200.485 262.5,202.5C 262.41,199.848 263.076,197.515 264.5,195.5 Z"/></g>
<g><path style="opacity:0.969" fill="#b09cd0" d="M 317.5,196.5 C 317.472,199.916 316.472,202.916 314.5,205.5C 314.928,202.215 315.928,199.215 317.5,196.5 Z"/></g>
<g><path style="opacity:0.894" fill="#b3a0d3" d="M 110.5,199.5 C 111.738,201.214 112.405,203.214 112.5,205.5C 110.926,203.898 110.259,201.898 110.5,199.5 Z"/></g>
<g><path style="opacity:0.937" fill="#b3a0d2" d="M 112.5,206.5 C 114.072,209.215 115.072,212.215 115.5,215.5C 113.528,212.916 112.528,209.916 112.5,206.5 Z"/></g>
<g><path style="opacity:0.925" fill="#b09cd1" d="M 314.5,206.5 C 314.741,208.898 314.074,210.898 312.5,212.5C 312.595,210.214 313.262,208.214 314.5,206.5 Z"/></g>
<g><path style="opacity:0.141" fill="#d0c4e3" d="M 261.5,206.5 C 261.461,209.321 260.795,211.988 259.5,214.5C 258.702,214.043 258.369,213.376 258.5,212.5C 259.5,210.5 260.5,208.5 261.5,206.5 Z"/></g>
<g><path style="opacity:0.014" fill="#e6e1f1" d="M 166.5,210.5 C 167.268,211.263 167.768,212.263 168,213.5C 168.232,212.263 168.732,211.263 169.5,210.5C 169.785,212.288 169.452,213.955 168.5,215.5C 166.783,214.332 166.116,212.665 166.5,210.5 Z"/></g>
<g><path style="opacity:0.98" fill="#b19cd1" d="M 312.5,213.5 C 312.472,216.916 311.472,219.916 309.5,222.5C 309.928,219.215 310.928,216.215 312.5,213.5 Z"/></g>
<g><path style="opacity:0.894" fill="#ad99cf" d="M 115.5,216.5 C 116.924,218.515 117.59,220.848 117.5,223.5C 116.076,221.485 115.41,219.152 115.5,216.5 Z"/></g>
<g><path style="opacity:0.945" fill="#ae9ad0" d="M 117.5,223.5 C 119.277,226.505 120.277,229.838 120.5,233.5C 118.723,230.495 117.723,227.162 117.5,223.5 Z"/></g>
<g><path style="opacity:0.914" fill="#b9a7d6" d="M 309.5,223.5 C 309.472,226.916 308.472,229.916 306.5,232.5C 306.928,229.215 307.928,226.215 309.5,223.5 Z"/></g>
<g><path style="opacity:0.408" fill="#cfc4e3" d="M 214.5,230.5 C 213.833,230.5 213.167,230.5 212.5,230.5C 213.167,227.833 213.833,227.833 214.5,230.5 Z"/></g>
<g><path style="opacity:0.816" fill="#bcacd8" d="M 212.5,231.5 C 212.741,233.898 212.074,235.898 210.5,237.5C 210.595,235.214 211.262,233.214 212.5,231.5 Z"/></g>
<g><path style="opacity:0.902" fill="#ad98cf" d="M 120.5,233.5 C 121.924,235.515 122.59,237.848 122.5,240.5C 121.076,238.485 120.41,236.152 120.5,233.5 Z"/></g>
<g><path style="opacity:0.851" fill="#b9a8d6" d="M 306.5,233.5 C 306.741,235.898 306.074,237.898 304.5,239.5C 304.595,237.214 305.262,235.214 306.5,233.5 Z"/></g>
<g><path style="opacity:0.957" fill="#b5a1d3" d="M 215.5,235.5 C 217.072,238.215 218.072,241.215 218.5,244.5C 216.528,241.916 215.528,238.916 215.5,235.5 Z"/></g>
<g><path style="opacity:0.957" fill="#b19ed1" d="M 122.5,240.5 C 124.072,243.215 125.072,246.215 125.5,249.5C 123.528,246.916 122.528,243.916 122.5,240.5 Z"/></g>
<g><path style="opacity:0.914" fill="#ad98ce" d="M 304.5,240.5 C 304.59,243.152 303.924,245.485 302.5,247.5C 302.41,244.848 303.076,242.515 304.5,240.5 Z"/></g>
<g><path style="opacity:0.914" fill="#b09cd0" d="M 209.5,242.5 C 209.741,244.898 209.074,246.898 207.5,248.5C 207.595,246.214 208.262,244.214 209.5,242.5 Z"/></g>
<g><path style="opacity:0.945" fill="#b29fd2" d="M 302.5,247.5 C 302.472,250.916 301.472,253.916 299.5,256.5C 299.928,253.215 300.928,250.215 302.5,247.5 Z"/></g>
<g><path style="opacity:0.882" fill="#b4a1d3" d="M 207.5,249.5 C 207.741,251.898 207.074,253.898 205.5,255.5C 205.595,253.214 206.262,251.214 207.5,249.5 Z"/></g>
<g><path style="opacity:0.882" fill="#af9bd0" d="M 219.5,249.5 C 220.924,251.515 221.59,253.848 221.5,256.5C 220.076,254.485 219.41,252.152 219.5,249.5 Z"/></g>
<g><path style="opacity:0.894" fill="#ac98ce" d="M 125.5,250.5 C 126.924,252.515 127.59,254.848 127.5,257.5C 126.076,255.485 125.41,253.152 125.5,250.5 Z"/></g>
<g><path style="opacity:0.859" fill="#b8a6d6" d="M 221.5,256.5 C 222.738,258.214 223.405,260.214 223.5,262.5C 221.926,260.898 221.259,258.898 221.5,256.5 Z"/></g>
<g><path style="opacity:0.957" fill="#ae99cf" d="M 127.5,257.5 C 129.277,260.505 130.277,263.838 130.5,267.5C 128.723,264.495 127.723,261.162 127.5,257.5 Z"/></g>
<g><path style="opacity:0.894" fill="#ae9ad0" d="M 299.5,257.5 C 299.59,260.152 298.924,262.485 297.5,264.5C 297.41,261.848 298.076,259.515 299.5,257.5 Z"/></g>
<g><path style="opacity:0.969" fill="#a28bc8" d="M 204.5,260.5 C 204.59,263.152 203.924,265.485 202.5,267.5C 202.41,264.848 203.076,262.515 204.5,260.5 Z"/></g>
<g><path style="opacity:0.945" fill="#a58fca" d="M 297.5,264.5 C 297.59,267.152 296.924,269.485 295.5,271.5C 295.41,268.848 296.076,266.515 297.5,264.5 Z"/></g>
<g><path style="opacity:0.902" fill="#ac97ce" d="M 130.5,267.5 C 131.924,269.515 132.59,271.848 132.5,274.5C 131.076,272.485 130.41,270.152 130.5,267.5 Z"/></g>
<g><path style="opacity:0.937" fill="#a690cb" d="M 202.5,267.5 C 202.59,270.152 201.924,272.485 200.5,274.5C 200.41,271.848 201.076,269.515 202.5,267.5 Z"/></g>
<g><path style="opacity:0.925" fill="#a691cb" d="M 224.5,267.5 C 225.924,269.515 226.59,271.848 226.5,274.5C 225.076,272.485 224.41,270.152 224.5,267.5 Z"/></g>
<g><path style="opacity:0.988" fill="#ad98ce" d="M 295.5,271.5 C 295.472,274.916 294.472,277.916 292.5,280.5C 292.928,277.215 293.928,274.215 295.5,271.5 Z"/></g>
<g><path style="opacity:0.957" fill="#b19dd2" d="M 132.5,274.5 C 134.072,277.215 135.072,280.215 135.5,283.5C 133.528,280.916 132.528,277.916 132.5,274.5 Z"/></g>
<g><path style="opacity:0.914" fill="#aa96cd" d="M 200.5,274.5 C 200.59,277.152 199.924,279.485 198.5,281.5C 198.41,278.848 199.076,276.515 200.5,274.5 Z"/></g>
<g><path style="opacity:0.914" fill="#b09cd0" d="M 226.5,274.5 C 227.738,276.214 228.405,278.214 228.5,280.5C 226.926,278.898 226.259,276.898 226.5,274.5 Z"/></g>
<g><path style="opacity:0.894" fill="#b4a0d3" d="M 198.5,281.5 C 198.741,283.898 198.074,285.898 196.5,287.5C 196.595,285.214 197.262,283.214 198.5,281.5 Z"/></g>
<g><path style="opacity:0.894" fill="#baa8d6" d="M 228.5,280.5 C 229.612,282.599 230.279,284.933 230.5,287.5C 228.837,285.562 228.171,283.228 228.5,280.5 Z"/></g>
<g><path style="opacity:0.914" fill="#b19ed2" d="M 135.5,284.5 C 136.738,286.214 137.405,288.214 137.5,290.5C 135.926,288.898 135.259,286.898 135.5,284.5 Z"/></g>
<g><path style="opacity:0.871" fill="#b8a5d5" d="M 230.5,288.5 C 231.738,290.214 232.405,292.214 232.5,294.5C 230.926,292.898 230.259,290.898 230.5,288.5 Z"/></g>
<g><path style="opacity:0.871" fill="#b6a4d4" d="M 289.5,291.5 C 289.741,293.898 289.074,295.898 287.5,297.5C 287.595,295.214 288.262,293.214 289.5,291.5 Z"/></g>
<g><path style="opacity:0.969" fill="#a28bc9" d="M 195.5,292.5 C 195.59,295.152 194.924,297.485 193.5,299.5C 193.41,296.848 194.076,294.515 195.5,292.5 Z"/></g>
<g><path style="opacity:0.827" fill="#bcabd8" d="M 232.5,295.5 C 233.738,297.214 234.405,299.214 234.5,301.5C 232.926,299.898 232.259,297.898 232.5,295.5 Z"/></g>
<g><path style="opacity:0.925" fill="#b5a3d4" d="M 287.5,298.5 C 287.472,301.916 286.472,304.916 284.5,307.5C 284.928,304.215 285.928,301.215 287.5,298.5 Z"/></g>
<g><path style="opacity:0.945" fill="#a690cb" d="M 193.5,299.5 C 193.59,302.152 192.924,304.485 191.5,306.5C 191.41,303.848 192.076,301.515 193.5,299.5 Z"/></g>
<g><path style="opacity:0.925" fill="#ab96ce" d="M 140.5,301.5 C 141.924,303.515 142.59,305.848 142.5,308.5C 141.076,306.485 140.41,304.152 140.5,301.5 Z"/></g>
<g><path style="opacity:0.494" fill="#b2a1d2" d="M 142.5,308.5 C 158.422,309.484 174.422,309.817 190.5,309.5C 182.674,310.166 174.674,310.5 166.5,310.5C 158.138,310.498 150.138,309.831 142.5,308.5 Z"/></g>
<g><path style="opacity:0.494" fill="#b09ed1" d="M 235.5,306.5 C 236.404,307.209 236.737,308.209 236.5,309.5C 252.578,309.817 268.578,309.484 284.5,308.5C 268.534,310.485 252.201,311.152 235.5,310.5C 235.5,309.167 235.5,307.833 235.5,306.5 Z"/></g>
<g><path style="opacity:0.608" fill="#ac98cd" d="M 1.5,351.5 C 3.22267,353.78 3.88934,356.447 3.5,359.5C 2.46899,357.039 1.80233,354.373 1.5,351.5 Z"/></g>
<g><path style="opacity:0.608" fill="#a791ca" d="M 425.5,351.5 C 425.279,354.067 424.612,356.401 423.5,358.5C 423.171,355.772 423.837,353.438 425.5,351.5 Z"/></g>
<g><path style="opacity:0.494" fill="#ad9bcd" d="M 3.5,359.5 C 5.07394,361.102 5.74061,363.102 5.5,365.5C 4.26162,363.786 3.59495,361.786 3.5,359.5 Z"/></g>
<g><path style="opacity:0.361" fill="#b7a6d3" d="M 30.5,403.5 C 32.0269,403.427 33.0269,404.094 33.5,405.5C 31.9731,405.573 30.9731,404.906 30.5,403.5 Z"/></g>
<g><path style="opacity:0.376" fill="#b3a1d0" d="M 41.5,411.5 C 43.0269,411.427 44.0269,412.094 44.5,413.5C 42.9731,413.573 41.9731,412.906 41.5,411.5 Z"/></g>
<g><path style="opacity:0.259" fill="#bdaed7" d="M 46.5,414.5 C 48.0269,414.427 49.0269,415.094 49.5,416.5C 47.9731,416.573 46.9731,415.906 46.5,414.5 Z"/></g>
</svg>
