<?xml version="1.0" encoding="UTF-8"?>
<!DOCTYPE svg PUBLIC "-//W3C//DTD SVG 1.1//EN" "http://www.w3.org/Graphics/SVG/1.1/DTD/svg11.dtd">
<svg xmlns="http://www.w3.org/2000/svg" version="1.1" width="512px" height="512px" style="shape-rendering:geometricPrecision; text-rendering:geometricPrecision; image-rendering:optimizeQuality; fill-rule:evenodd; clip-rule:evenodd" xmlns:xlink="http://www.w3.org/1999/xlink">
<g><path style="opacity:0.979" fill="#000000" d="M -0.5,23.5 C 53.8374,23.1667 108.171,23.5001 162.5,24.5C 199.511,73.2052 236.511,121.872 273.5,170.5C 316.657,121.84 359.657,73.0071 402.5,24C 428.84,23.1668 455.173,23.3335 481.5,24.5C 424.686,89.8147 367.686,154.981 310.5,220C 377.156,308.837 444.156,397.337 511.5,485.5C 511.5,486.167 511.5,486.833 511.5,487.5C 458.496,487.833 405.496,487.5 352.5,486.5C 311.489,433.128 270.489,379.795 229.5,326.5C 182.343,379.826 135.343,433.326 88.5,487C 62.1603,487.833 35.827,487.667 9.5,486.5C 70.3136,416.519 131.314,346.685 192.5,277C 128.025,193.188 63.692,109.355 -0.5,25.5C -0.5,24.8333 -0.5,24.1667 -0.5,23.5 Z M 92.5,70.5 C 107.902,69.1697 123.402,69.1697 139,70.5C 231.712,193.423 324.545,316.256 417.5,439C 403.5,439.667 389.5,439.667 375.5,439C 281.303,315.982 186.97,193.148 92.5,70.5 Z"/></g>
</svg>
